<?xml version="1.0" encoding="iso-8859-1"?>
<!-- Generator: Adobe Illustrator 18.0.0, SVG Export Plug-In . SVG Version: 6.00 Build 0)  -->
<!DOCTYPE svg PUBLIC "-//W3C//DTD SVG 1.1//EN" "http://www.w3.org/Graphics/SVG/1.1/DTD/svg11.dtd">
<svg version="1.1" id="Capa_1" xmlns="http://www.w3.org/2000/svg" xmlns:xlink="http://www.w3.org/1999/xlink" x="0px" y="0px"
	 viewBox="0 0 470.367 470.367" style="enable-background:new 0 0 470.367 470.367;" xml:space="preserve">
<path d="M324.608,284.26c10.461-9.521,16.796-23.187,16.796-37.901v-15.006c31.202-13.354,46.4-39.173,46.4-78.734
	C387.804,68.465,319.339,0,235.184,0S82.564,68.465,82.564,152.62c0,39.558,15.201,65.381,46.41,78.743v14.997
	c0,14.717,6.334,28.385,16.793,37.905c-28.344,25.337-44.936,61.893-44.936,100.243v76.86c0,4.97,4.029,9,9,9h250.71
	c4.971,0,9-4.03,9-9v-76.86c0-35.891-13.974-69.631-39.346-95.004C328.392,287.7,326.515,285.963,324.608,284.26z M235.196,391.43
	c8.095,0,14.68,6.585,14.68,14.68s-6.585,14.68-14.68,14.68s-14.681-6.585-14.681-14.68S227.102,391.43,235.196,391.43z
	 M255.226,380.315c-5.537-4.309-12.486-6.886-20.03-6.886c-7.54,0-14.486,2.573-20.022,6.879
	c-8.945-8.569-16.317-22.324-21.244-38.874c10.474,9.871,24.243,14.855,41.263,14.855c17.029,0,30.804-4.99,41.28-14.873
	C271.547,357.977,264.174,371.741,255.226,380.315z M193.003,305.215l16.099,5.69c8.409,2.974,17.243,4.46,26.082,4.46
	c8.836,0,17.676-1.487,26.089-4.46l16.242-5.741c-5.306,17.529-16.257,33.126-42.322,33.126
	C219.927,338.29,202.047,334.146,193.003,305.215z M255.275,293.934c-12.957,4.579-27.223,4.579-40.172,0l-45.981-16.25
	c-13.247-4.68-22.147-17.268-22.147-31.324v-58.619c0-4.004,2.177-7.716,5.681-9.685c7.349-4.13,14.183-9.173,20.314-14.99
	c2.077-1.971,4.822-3,7.571-3c1.782,0,3.567,0.433,5.171,1.323c15.057,8.354,32.163,12.77,49.473,12.77
	c17.311,0,34.42-4.416,49.478-12.77c4.076-2.262,9.316-1.573,12.743,1.677c6.132,5.818,12.969,10.864,20.319,14.997
	c3.503,1.97,5.68,5.681,5.68,9.684v58.612c0,14.054-8.904,26.642-22.16,31.325L255.275,293.934z M128.974,187.741v23.584
	c-19.544-11.092-28.41-29.702-28.41-58.705c0-74.23,60.391-134.62,134.62-134.62s134.62,60.39,134.62,134.62
	c0,29.004-8.864,47.611-28.4,58.698v-23.569c0-10.498-5.693-20.221-14.857-25.374c-6.06-3.407-11.695-7.567-16.753-12.365
	c-9.209-8.737-22.818-10.488-33.864-4.359c-12.393,6.875-26.482,10.51-40.745,10.51c-14.261,0-28.349-3.634-40.739-10.51
	c-11.043-6.128-24.655-4.379-33.864,4.357c-5.056,4.796-10.689,8.954-16.744,12.357
	C134.668,167.517,128.974,177.241,128.974,187.741z M163.124,294.656l6.115,2.161c0.676,42.277,14.159,79.409,35.247,98.116
	c-1.274,3.489-1.97,7.253-1.97,11.177c0,18.02,14.66,32.68,32.681,32.68c18.02,0,32.68-14.66,32.68-32.68
	c0-3.92-0.695-7.68-1.966-11.166c21.091-18.71,34.574-55.85,35.248-98.138l6.083-2.15c0.427-0.151,0.847-0.315,1.268-0.476
	c2.899,2.357,5.696,4.85,8.354,7.471v150.716h-163.35V301.664c2.649-2.618,5.436-5.115,8.348-7.483
	C162.281,294.342,162.699,294.505,163.124,294.656z M118.831,384.507c0-21.334,5.936-42.026,16.683-59.918v127.778h-16.683V384.507z
	 M351.541,452.367h-16.678V324.396c10.869,17.952,16.678,38.584,16.678,60.112V452.367z"/>
<g>
</g>
<g>
</g>
<g>
</g>
<g>
</g>
<g>
</g>
<g>
</g>
<g>
</g>
<g>
</g>
<g>
</g>
<g>
</g>
<g>
</g>
<g>
</g>
<g>
</g>
<g>
</g>
<g>
</g>
</svg>
