<?xml version="1.0" encoding="iso-8859-1"?>
<!-- Generator: Adobe Illustrator 18.0.0, SVG Export Plug-In . SVG Version: 6.00 Build 0)  -->
<!DOCTYPE svg PUBLIC "-//W3C//DTD SVG 1.1//EN" "http://www.w3.org/Graphics/SVG/1.1/DTD/svg11.dtd">
<svg version="1.1" id="Capa_1" xmlns="http://www.w3.org/2000/svg" xmlns:xlink="http://www.w3.org/1999/xlink" x="0px" y="0px"
	 viewBox="0 0 470.593 470.593" style="enable-background:new 0 0 470.593 470.593;" xml:space="preserve">
<path d="M405.546,159c0-17.458-9.654-33.159-24.464-41.252c2.283-5.585,3.464-11.582,3.464-17.748
	c0-25.305-20.101-46.004-45.175-46.965C335.577,30.899,316.248,14,293.046,14c-7.146,0-14.028,1.571-20.313,4.599
	C263.952,7.066,250.114,0,235.296,0c-14.816,0-28.653,7.066-37.435,18.597C191.58,15.571,184.696,14,177.546,14
	c-23.201,0-42.53,16.899-46.325,39.035C106.147,53.996,86.046,74.695,86.046,100c0,6.167,1.181,12.164,3.464,17.749
	C74.7,125.842,65.046,141.543,65.046,159c0,18.38,10.877,34.881,26.98,42.513c-1.307,4.361-1.98,8.908-1.98,13.487
	c0,25.916,21.084,47,47,47c2.65,0,5.273-0.224,7.854-0.659c1.428,2.903,2.946,5.766,4.561,8.581c1.505,2.62,3.095,5.184,4.748,7.705
	c-33.401,25.317-53.268,65.138-53.268,107.106v76.86c0,4.971,4.029,9,9,9h77.967h94.776h77.967c4.971,0,9-4.029,9-9v-76.86
	c0-35.892-13.974-69.632-39.346-95.004c-4.365-4.365-9.068-8.428-13.983-12.15c3.418-5.226,6.525-10.65,9.289-16.25
	c2.607,0.444,5.258,0.671,7.935,0.671c25.916,0,47-21.084,47-47c0-4.579-0.674-9.126-1.98-13.487
	C394.669,193.881,405.546,177.379,405.546,159z M323.506,193.47c0,47.992-25.738,92.851-67.173,117.071
	c-12.973,7.586-29.091,7.587-42.065-0.001c-20.407-11.929-37.42-29.074-49.195-49.578c-11.767-20.515-17.986-43.854-17.986-67.492
	v-0.466c7.666-1.647,14.787-5.313,20.635-10.74c7.467-6.937,12.275-16.276,13.661-26.268c13.229-0.17,25.32-6.112,33.438-16.055
	c6.267,3.3,13.286,5.059,20.477,5.059c7.188,0,14.209-1.759,20.479-5.06c8.111,9.944,20.2,15.885,33.435,16.056
	c1.386,9.992,6.194,19.333,13.664,26.271c5.845,5.424,12.965,9.09,20.632,10.737V193.47z M205.183,326.079
	c3.387,1.981,6.925,3.596,10.557,4.854l-22.809,21.413l-37.049-52.624c2.876-2.693,5.902-5.247,9.067-7.653
	C176.277,305.586,189.88,317.134,205.183,326.079z M351.652,452.593h-27.335c9.689-10.263,15.647-24.084,15.647-39.278v-36.878
	c0-4.971-4.029-9-9-9s-9,4.029-9,9v36.878c0,21.658-17.62,39.278-39.278,39.278h-94.776c-21.658,0-39.278-17.62-39.278-39.278
	v-36.878c0-4.971-4.029-9-9-9s-9,4.029-9,9v36.878c0,15.194,5.958,29.015,15.647,39.278h-27.335v-67.86
	c0-26.062,8.854-51.167,24.526-71.375l40.71,57.823c1.501,2.131,3.852,3.507,6.445,3.772c2.588,0.265,5.173-0.607,7.074-2.392
	l37.6-35.298l37.6,35.298c1.677,1.574,3.883,2.438,6.159,2.438c0.305,0,0.609-0.015,0.915-0.046
	c2.594-0.265,4.944-1.641,6.445-3.772l40.753-57.885c15.877,20.334,24.484,45.222,24.484,71.437V452.593z M314.719,299.709
	l-37.058,52.637l-22.806-21.411c3.634-1.259,7.174-2.875,10.563-4.856c15.467-9.041,28.988-20.634,40.186-34.043
	C308.761,294.434,311.814,296.994,314.719,299.709z M364.653,187.349c-2.809,0.601-5.161,2.506-6.333,5.129s-1.021,5.646,0.404,8.14
	c2.501,4.373,3.822,9.346,3.822,14.382c0,15.991-13.01,29-29,29c-0.221,0-0.438-0.023-0.659-0.028
	c5.612-16.037,8.619-33.085,8.619-50.502v-0.342c7.887-1.583,15.218-5.299,21.211-10.86c3.645-3.381,3.857-9.076,0.477-12.719
	s-9.075-3.857-12.719-0.476C345.66,173.54,339.381,176,332.796,176c-6.586,0-12.864-2.46-17.675-6.924
	c-5.369-4.986-8.325-11.761-8.325-19.076c0-0.974,0.058-1.967,0.171-2.952c0.335-2.917-0.773-5.813-2.97-7.761
	c-2.196-1.948-5.208-2.702-8.061-2.021c-2.042,0.487-4.107,0.734-6.141,0.734c-10.02,0-18.976-5.597-23.371-14.607
	c-1.229-2.519-3.563-4.321-6.31-4.875c-2.747-0.553-5.597,0.203-7.706,2.049c-4.741,4.148-10.818,6.433-17.113,6.433
	c-6.296,0-12.368-2.283-17.099-6.429c-2.107-1.848-4.953-2.606-7.704-2.055c-2.748,0.552-5.082,2.353-6.313,4.871
	C199.774,132.401,190.814,138,180.796,138c-2.033,0-4.1-0.247-6.143-0.734c-2.854-0.682-5.865,0.073-8.063,2.023
	c-2.196,1.949-3.304,4.848-2.966,7.766c0.113,0.979,0.171,1.97,0.171,2.945c0,7.314-2.957,14.089-8.321,19.072
	C150.66,173.54,144.381,176,137.796,176c-6.586,0-12.864-2.46-17.678-6.927c-3.642-3.38-9.338-3.168-12.719,0.475
	c-3.382,3.644-3.169,9.338,0.475,12.719c5.993,5.561,13.324,9.278,21.212,10.861v0.342c0,17.231,2.934,34.316,8.566,50.504
	c-0.203,0.004-0.403,0.026-0.606,0.026c-15.99,0-29-13.009-29-29c0-5.036,1.321-10.009,3.822-14.382
	c1.426-2.493,1.576-5.518,0.404-8.14c-1.172-2.623-3.524-4.528-6.334-5.129C92.674,184.511,83.046,172.588,83.046,159
	c0-13.135,8.853-24.657,21.528-28.021c2.867-0.761,5.176-2.886,6.17-5.681c0.995-2.795,0.549-5.9-1.193-8.302
	c-3.602-4.966-5.505-10.843-5.505-16.996c0-15.991,13.01-29,29-29c1.646,0,3.329,0.147,5.001,0.438
	c2.682,0.465,5.424-0.306,7.468-2.097c2.045-1.791,3.172-4.41,3.064-7.125c-0.016-0.403-0.033-0.805-0.033-1.215
	c0-15.991,13.01-29,29-29c6.503,0,12.646,2.104,17.766,6.085c2.165,1.683,4.978,2.286,7.639,1.643
	c2.664-0.644,4.89-2.466,6.046-4.951C213.739,24.585,224.062,18,235.296,18s21.558,6.585,26.3,16.777
	c1.156,2.484,3.38,4.306,6.043,4.951c2.66,0.645,5.472,0.042,7.637-1.639c5.13-3.983,11.275-6.089,17.771-6.089
	c15.99,0,29,13.009,29,29c0,0.392-0.017,0.777-0.033,1.232c-0.103,2.713,1.026,5.328,3.07,7.115
	c2.045,1.786,4.782,2.555,7.462,2.091C334.217,71.147,335.9,71,337.546,71c15.99,0,29,13.009,29,29
	c0,6.152-1.904,12.029-5.506,16.996c-1.742,2.402-2.188,5.508-1.193,8.303s3.304,4.92,6.171,5.681
	c12.676,3.362,21.528,14.885,21.528,28.021C387.546,172.588,377.918,184.51,364.653,187.349z"/>
<g>
</g>
<g>
</g>
<g>
</g>
<g>
</g>
<g>
</g>
<g>
</g>
<g>
</g>
<g>
</g>
<g>
</g>
<g>
</g>
<g>
</g>
<g>
</g>
<g>
</g>
<g>
</g>
<g>
</g>
</svg>
