<?xml version="1.0" encoding="iso-8859-1"?>
<!-- Generator: Adobe Illustrator 18.0.0, SVG Export Plug-In . SVG Version: 6.00 Build 0)  -->
<!DOCTYPE svg PUBLIC "-//W3C//DTD SVG 1.1//EN" "http://www.w3.org/Graphics/SVG/1.1/DTD/svg11.dtd">
<svg version="1.1" id="Capa_1" xmlns="http://www.w3.org/2000/svg" xmlns:xlink="http://www.w3.org/1999/xlink" x="0px" y="0px"
	 viewBox="0 0 467.644 467.644" style="enable-background:new 0 0 467.644 467.644;" xml:space="preserve">
<path d="M354.966,72.223c-19.892-32.82-61.283-60.635-102.996-69.214c-37.967-7.808-74.247-0.354-104.922,21.558
	c-6.281,4.486-12.062,9.299-17.209,14.328c-19.848,6.946-32.847,20.98-37.657,40.707c-3.146,12.898-4.354,34.944,7.755,66.724
	c1.232,3.234,2.567,6.441,3.976,9.597c-6.418,7.033-10.113,16.303-10.113,25.963c0,12.645,4.923,24.538,13.871,33.499
	c6.775,6.765,15.326,11.255,24.586,13.015c3.425,13.456,8.654,26.449,15.607,38.565c1.505,2.624,3.096,5.192,4.75,7.716
	c-33.398,25.317-53.263,65.137-53.263,107.104v76.86c0,4.971,4.029,9,9,9h77.967h94.776h77.967c4.971,0,9-4.029,9-9v-76.86
	c0-35.891-13.974-69.631-39.346-95.004c-4.364-4.364-9.066-8.426-13.979-12.147c9.248-14.136,16.159-29.76,20.38-46.228
	c5.998-1.134,11.692-3.421,16.803-6.723c3.883,14.684,5.85,27.973,5.85,39.697c0,4.834,3.819,8.806,8.65,8.993
	c4.829,0.201,8.948-3.475,9.322-8.295C376.178,256.447,386.105,123.607,354.966,72.223z M157.51,39.215
	c33.47-23.908,67.868-23.296,90.834-18.574c42.859,8.815,76.702,36.945,91.228,60.913c13.858,22.865,18.513,66.302,19.655,104.677
	c-15.302-38.014-49.961-64.628-91.103-69.729c-45.986-5.701-97.555-18.026-114.034-22.124l-9.556-44.616
	C148.481,46.095,152.827,42.559,157.51,39.215z M238.707,169.76h-10.02c-1.626-4.683-4.304-9.078-8.038-12.812
	c-6.408-6.407-14.927-9.936-23.987-9.936c-6.315,0-12.366,1.714-17.623,4.921c-5.257-3.208-11.309-4.921-17.623-4.921
	c-4.896,0-9.63,1.039-13.962,2.997c1.295-12.523,3.22-24.981,5.79-37.303c19.799,4.845,68.658,16.202,112.665,21.657
	c13.499,1.673,26.163,6.101,37.357,12.767c-5.324,0.421-10.4,2.061-14.894,4.803c-5.257-3.207-11.309-4.921-17.623-4.921
	c-9.062,0-17.58,3.529-23.987,9.936C243.087,160.623,240.365,164.993,238.707,169.76z M150.157,169.676
	c3.007-3.007,7.005-4.664,11.259-4.664c4.253,0,8.252,1.656,11.259,4.664c1.688,1.688,3.978,2.636,6.364,2.636
	s4.677-0.948,6.364-2.636c3.007-3.007,7.006-4.664,11.259-4.664s8.252,1.656,11.259,4.664c6.208,6.208,6.208,16.31,0,22.519
	l-28.882,28.882l-28.882-28.882c-3.008-3.007-4.664-7.006-4.664-11.259S147.149,172.684,150.157,169.676z M259.49,169.676
	c3.007-3.007,7.005-4.664,11.259-4.664c4.253,0,8.252,1.656,11.259,4.664c1.688,1.688,3.978,2.636,6.364,2.636
	s4.677-0.948,6.364-2.636c3.007-3.007,7.005-4.664,11.259-4.664c4.253,0,8.252,1.656,11.259,4.664c6.208,6.208,6.208,16.31,0,22.519
	l-28.882,28.882l-28.882-28.882c-3.008-3.007-4.664-7.006-4.664-11.259S256.482,172.684,259.49,169.676z M109.669,83.867
	c2.724-11.171,8.819-19.279,18.492-24.6l9.085,42.417c-4.697,20.5-7.725,41.392-9.022,62.386
	c-4.271-7.397-8.258-15.727-11.468-24.153C108.595,118.496,106.077,98.591,109.669,83.867z M120.398,202.656
	c-5.545-5.553-8.599-12.929-8.599-20.771c0-2.659,0.533-5.261,1.513-7.675c4.55,7.73,9.414,14.594,14.221,19.934
	c0.113,4.771,0.45,9.527,1.005,14.252C125.549,206.975,122.793,205.047,120.398,202.656z M147.793,215.287l24.881,24.881
	c1.758,1.757,4.061,2.636,6.364,2.636s4.606-0.879,6.364-2.636l35.246-35.246c4.871-4.871,7.942-10.869,9.225-17.162h7.638
	c1.312,6.458,4.482,12.396,9.249,17.162l35.246,35.246c1.758,1.757,4.061,2.636,6.364,2.636s4.606-0.879,6.364-2.636l24.861-24.861
	c-7.173,38.259-30.662,72.304-64.857,92.287c-12.974,7.58-29.094,7.581-42.067,0.002c-20.429-11.947-37.441-29.094-49.197-49.59
	C155.855,244.726,150.578,230.256,147.793,215.287z M315.986,299.508c21.974,21.974,34.074,51.193,34.074,82.276v67.86h-27.336
	c9.689-10.263,15.647-24.084,15.647-39.279v-36.877c0-4.971-4.029-9-9-9s-9,4.029-9,9v36.877c0,21.658-17.62,39.279-39.278,39.279
	h-94.776c-21.658,0-39.278-17.621-39.278-39.279v-36.877c0-4.971-4.029-9-9-9s-9,4.029-9,9v36.877
	c0,15.195,5.958,29.015,15.647,39.279H117.35v-67.86c0-36.289,17.152-70.727,46-92.66c11.32,13.508,24.924,25.057,40.239,34.013
	c9.288,5.426,19.701,8.139,30.115,8.139c10.413,0,20.828-2.713,30.116-8.139c15.471-9.041,28.995-20.635,40.195-34.046
	C308.22,292.284,312.246,295.768,315.986,299.508z M338.844,208.409c0.698-5.901,1.076-11.868,1.076-17.883v-3.469
	c1.271,2.627,2.429,5.329,3.465,8.099c1.033,2.762,2,5.478,2.923,8.163C344.074,205.411,341.557,207.12,338.844,208.409z"/>
<g>
</g>
<g>
</g>
<g>
</g>
<g>
</g>
<g>
</g>
<g>
</g>
<g>
</g>
<g>
</g>
<g>
</g>
<g>
</g>
<g>
</g>
<g>
</g>
<g>
</g>
<g>
</g>
<g>
</g>
</svg>
