<?xml version="1.0" encoding="iso-8859-1"?>
<!-- Generator: Adobe Illustrator 18.0.0, SVG Export Plug-In . SVG Version: 6.00 Build 0)  -->
<!DOCTYPE svg PUBLIC "-//W3C//DTD SVG 1.1//EN" "http://www.w3.org/Graphics/SVG/1.1/DTD/svg11.dtd">
<svg version="1.1" id="Capa_1" xmlns="http://www.w3.org/2000/svg" xmlns:xlink="http://www.w3.org/1999/xlink" x="0px" y="0px"
	 viewBox="0 0 458.011 458.011" style="enable-background:new 0 0 458.011 458.011;" xml:space="preserve">
<path d="M229.005,0C154.922,0,94.65,60.271,94.65,134.355v314.656c0,4.971,4.029,9,9,9h250.71c4.971,0,9-4.029,9-9V134.355
	C363.361,60.271,303.089,0,229.005,0z M345.361,440.011H112.65v-67.86c0-28.756,10.773-56.348,29.597-77.48
	C150.858,330.935,183.495,358,222.355,358h13.3c38.877,0,71.524-27.088,80.118-63.375c19.124,21.35,29.587,48.631,29.587,77.526
	V440.011z M158.652,279.49c11.321,13.51,24.923,25.058,40.233,34.011c9.289,5.427,19.704,8.14,30.119,8.14
	s20.832-2.713,30.123-8.141c15.468-9.041,28.989-20.634,40.187-34.044c0.179,0.136,0.359,0.27,0.538,0.407
	C297.673,313.387,269.721,340,235.656,340h-13.3c-34.067,0-62.019-26.614-64.197-60.139
	C158.321,279.735,158.489,279.615,158.652,279.49z M250.046,297.959c-12.978,7.581-29.103,7.581-42.078,0.002
	c-20.417-11.939-37.425-29.083-49.186-49.579c-11.768-20.517-17.987-43.855-17.987-67.493L140.794,159h68.947
	c24.573,0,47.521-9.754,64.317-26.77c7.525,16.533,23.974,28.181,43.157,28.748v19.912
	C317.215,228.883,291.476,273.741,250.046,297.959z M324.014,277.147c-4.365-4.365-9.068-8.428-13.981-12.149
	c16.126-24.652,25.182-53.826,25.182-84.108l0.002-53.89c0-4.971-4.029-9-9-9s-9,4.029-9,9v15.963
	c-16.414-0.769-29.532-14.362-29.532-30.963c0-4.007-2.649-7.532-6.499-8.646c-3.847-1.113-7.97,0.451-10.111,3.839
	C257.707,128.362,234.778,141,209.741,141h-68.948v-14c0-4.971-4.029-9-9-9s-9,4.029-9,9l0.002,53.89
	c0,26.774,7.045,53.209,20.374,76.449c1.504,2.621,3.094,5.186,4.746,7.707c-1.53,1.16-3.036,2.345-4.508,3.564
	c-0.113,0.09-0.222,0.185-0.331,0.281c-12.303,10.256-22.563,22.559-30.426,36.213V134.355C112.65,70.197,164.847,18,229.006,18
	c64.158,0,116.355,52.197,116.355,116.355v170.516C339.553,294.865,332.412,285.545,324.014,277.147z"/>
<g>
</g>
<g>
</g>
<g>
</g>
<g>
</g>
<g>
</g>
<g>
</g>
<g>
</g>
<g>
</g>
<g>
</g>
<g>
</g>
<g>
</g>
<g>
</g>
<g>
</g>
<g>
</g>
<g>
</g>
</svg>
