<?xml version="1.0" encoding="iso-8859-1"?>
<!-- Generator: Adobe Illustrator 18.0.0, SVG Export Plug-In . SVG Version: 6.00 Build 0)  -->
<!DOCTYPE svg PUBLIC "-//W3C//DTD SVG 1.1//EN" "http://www.w3.org/Graphics/SVG/1.1/DTD/svg11.dtd">
<svg version="1.1" id="Capa_1" xmlns="http://www.w3.org/2000/svg" xmlns:xlink="http://www.w3.org/1999/xlink" x="0px" y="0px"
	 viewBox="0 0 459.623 459.623" style="enable-background:new 0 0 459.623 459.623;" xml:space="preserve">
<g>
	<path d="M355.167,263.79c4.971,0,9-4.029,9-9V134.36c0-35.885-13.977-69.625-39.354-95.002C299.444,13.978,265.703,0,229.807,0
		c-74.081,0-134.35,60.273-134.35,134.36v120.43c0,4.971,4.029,9,9,9h42.424c0.602,0.964,1.217,1.918,1.84,2.868
		c-33.4,25.317-53.265,65.138-53.265,107.105v76.86c0,4.971,4.029,9,9,9h250.71c4.971,0,9-4.029,9-9v-76.86
		c0-35.892-13.973-69.631-39.346-95.004c-4.364-4.364-9.067-8.427-13.982-12.149c0.611-0.934,1.213-1.874,1.804-2.82H355.167z
		 M113.457,134.36c0-64.161,52.194-116.36,116.35-116.36c31.086,0,60.306,12.104,82.276,34.084
		c21.979,21.979,34.083,51.199,34.083,82.276v111.43h-23.873c8.898-19.617,13.733-41.159,13.733-63.29v-60.043c0-4.971-4.029-9-9-9
		s-9,4.029-9,9v13.284c-57.329-16.899-119.093-16.899-176.43,0v-13.284c0-4.971-4.029-9-9-9s-9,4.029-9,9V182.5
		c0,21.839,4.691,43.451,13.653,63.29h-23.793V134.36z M159.584,249.993c-11.767-20.517-17.987-43.855-17.987-67.493v-27.946
		c57.145-17.997,119.293-17.998,176.43,0V182.5c0,47.989-25.743,92.848-67.183,117.071c-12.973,7.586-29.091,7.586-42.065-0.001
		C188.372,287.642,171.36,270.497,159.584,249.993z M346.166,373.763v67.86h-232.71v-67.86c0-28.906,10.882-56.64,29.889-77.814
		c13.919,20.957,32.519,38.56,54.296,51.289c7.24,4.237,15.119,6.92,23.171,8.066v52.727c0,4.971,4.029,9,9,9s9-4.029,9-9v-52.727
		c8.051-1.146,15.931-3.829,23.167-8.064c21.808-12.751,40.393-30.361,54.308-51.332
		C335.599,317.306,346.166,344.72,346.166,373.763z M302.99,283.318c-12.568,19.849-29.755,36.491-50.099,48.385
		c-14.235,8.332-31.922,8.332-46.163-0.002c-20.335-11.886-37.548-28.547-50.103-48.376c0.932-0.755,1.877-1.496,2.834-2.224
		c11.327,13.516,24.93,25.064,40.233,34.009c9.29,5.433,19.703,8.148,30.119,8.148c10.413,0,20.83-2.716,30.117-8.147
		c15.468-9.042,28.99-20.634,40.189-34.043C301.086,281.802,302.043,282.551,302.99,283.318z"/>
	<path d="M264.804,362.55c-3.166-2.177-7.565-1.947-10.563,0.412c-2.819,2.218-4.074,6.058-3.088,9.511
		c1.061,3.714,4.446,6.387,8.307,6.551c3.852,0.163,7.457-2.277,8.791-5.88C269.662,369.335,268.261,364.764,264.804,362.55
		C264.324,362.22,265.304,362.871,264.804,362.55z"/>
	<path d="M208.125,366.59c-1.439-3.433-4.93-5.705-8.664-5.553c-3.802,0.155-7.14,2.754-8.255,6.382
		c-1.093,3.554,0.211,7.545,3.178,9.781c2.979,2.246,7.13,2.416,10.275,0.405C208.302,375.275,209.749,370.583,208.125,366.59
		C207.894,366.041,208.344,367.13,208.125,366.59z"/>
	<path d="M264.804,393.55c-3.166-2.177-7.565-1.947-10.563,0.412c-2.819,2.218-4.074,6.058-3.088,9.511
		c1.061,3.715,4.445,6.387,8.307,6.551c3.853,0.163,7.457-2.276,8.791-5.88C269.662,400.335,268.261,395.764,264.804,393.55
		C264.324,393.22,265.304,393.871,264.804,393.55z"/>
	<path d="M208.125,397.59c-1.439-3.433-4.93-5.705-8.664-5.553c-3.802,0.155-7.14,2.754-8.255,6.382
		c-1.093,3.554,0.211,7.545,3.178,9.781c2.979,2.246,7.13,2.416,10.275,0.405C208.302,406.275,209.749,401.583,208.125,397.59
		C207.894,397.041,208.344,398.13,208.125,397.59z"/>
</g>
<g>
</g>
<g>
</g>
<g>
</g>
<g>
</g>
<g>
</g>
<g>
</g>
<g>
</g>
<g>
</g>
<g>
</g>
<g>
</g>
<g>
</g>
<g>
</g>
<g>
</g>
<g>
</g>
<g>
</g>
</svg>
