<?xml version="1.0" encoding="iso-8859-1"?>
<!-- Generator: Adobe Illustrator 18.0.0, SVG Export Plug-In . SVG Version: 6.00 Build 0)  -->
<!DOCTYPE svg PUBLIC "-//W3C//DTD SVG 1.1//EN" "http://www.w3.org/Graphics/SVG/1.1/DTD/svg11.dtd">
<svg version="1.1" id="Capa_1" xmlns="http://www.w3.org/2000/svg" xmlns:xlink="http://www.w3.org/1999/xlink" x="0px" y="0px"
	 viewBox="0 0 444.755 444.755" style="enable-background:new 0 0 444.755 444.755;" xml:space="preserve">
<path d="M430.842,145.571c-0.012-0.012-1.149-1.204-2.934-3.329c-13.365-15.894-21.382-36.235-22.573-57.273l-2.07-36.821
	c-1.157-20.534-13.856-37.73-33.142-44.879s-40.125-2.383-54.387,12.433l-24.389,25.333c-18.57-15.892-42.665-25.505-68.966-25.505
	c-26.302,0-50.398,9.614-68.968,25.507l-24.39-25.333C114.764,0.886,93.925-3.879,74.645,3.268
	c-19.284,7.148-31.982,24.345-33.14,44.878l-2.08,36.819c-1.191,21.039-9.205,41.38-22.568,57.283
	c-1.765,2.103-2.903,3.286-2.904,3.288c-2.804,2.889-3.348,7.288-1.333,10.773c1.636,2.828,4.633,4.496,7.791,4.496
	c0.733,0,1.476-0.09,2.211-0.277c0.652-0.165,16.169-4.135,33.773-11.948c24.653-10.941,40.808-23.738,48.013-38.035
	c5.617-11.14,7.546-22.815,8.038-31.917l10.594,5.547c-4.433,11.685-6.868,24.345-6.868,37.566v0.877
	c-18.966,2.371-33.691,18.583-33.691,38.18c0,12.645,4.923,24.538,13.871,33.499c6.903,6.892,15.629,11.417,25.104,13.11
	c4.257,15.774,11.007,30.739,19.901,44.333c-33.437,25.315-53.327,65.158-53.327,107.151v76.86c0,4.971,4.029,9,9,9h106.314
	c0.013,0,0.026,0.002,0.039,0.002h38c0.013,0,0.026-0.002,0.039-0.002h106.318c4.971,0,9-4.029,9-9v-76.86
	c0-35.893-13.974-69.632-39.346-95.003c-4.367-4.367-9.07-8.43-13.981-12.149c8.892-13.592,15.641-28.555,19.899-44.327
	c9.467-1.689,18.202-6.218,25.103-13.12c8.949-8.948,13.877-20.843,13.877-33.494c0-19.599-14.727-35.811-33.694-38.181v-0.877
	c0-13.221-2.435-25.882-6.869-37.567l10.596-5.548c0.493,9.102,2.424,20.776,8.04,31.917c7.202,14.298,23.354,27.096,48.006,38.038
	c17.604,7.813,33.12,11.783,33.772,11.948c0.734,0.187,1.475,0.276,2.207,0.276c3.147,0,6.135-1.66,7.774-4.474
	C434.143,152.863,433.619,148.471,430.842,145.571z M310.594,121.742v31.992c-11.308-12.684-25.404-23.136-41.326-30.406
	c-12.021-5.488-22.3-14.03-29.385-24.008c-5.632-7.931-8.503-17.494-8.503-27.222V33.985
	C275.811,38.507,310.594,76.138,310.594,121.742z M212.38,426.753V307.54c3.309,0.561,6.655,0.845,10.002,0.845
	c3.345,0,6.69-0.284,9.998-0.844v119.212H212.38z M243.417,284.701L243.417,284.701c-12.975,7.583-29.094,7.583-42.069,0
	c-36.917-21.576-61.357-59.539-66.254-101.503c10.624-19.003,27.119-34.02,47.874-43.497c16.508-7.537,30.452-19.873,39.413-34.282
	c8.96,14.409,22.903,26.745,39.411,34.282c20.477,9.35,37.397,24.775,47.878,43.503
	C304.771,225.166,280.331,263.127,243.417,284.701z M213.38,33.985v38.113c0,9.728-2.871,19.291-8.503,27.222
	c-7.085,9.978-17.365,18.519-29.386,24.007c-15.92,7.269-30.015,17.72-41.322,30.402v-31.987
	C134.17,76.14,168.952,38.509,213.38,33.985z M107.135,55.531c-3.015-1.579-6.666-1.322-9.429,0.667
	c-2.764,1.987-4.17,5.365-3.633,8.727c0.032,0.198,3.069,20.048-5.74,37.519c-6.851,13.593-26.826,24.66-44.569,31.969
	c7.94-14.83,12.67-31.444,13.632-48.43l2.08-36.821C60.371,33.292,71.13,23.768,80.9,20.146c9.77-3.621,24.135-3.411,35.156,8.041
	l24.709,25.665c-3.674,4.41-6.996,9.122-9.927,14.091L107.135,55.531z M109.077,181.57c-5.545-5.553-8.599-12.929-8.599-20.771
	c0-9.643,6.705-17.731,15.691-19.899v26.73c0,6.666,0.444,13.277,1.3,19.799C114.384,185.997,111.54,184.029,109.077,181.57z
	 M152.074,266.198c10.764,12.888,23.684,24.082,38.406,32.96l-15.65,14.555l-37.145-34.552
	C142.084,274.478,146.889,270.136,152.074,266.198z M106.027,358.892c0-23.656,7.296-46.522,20.36-65.656l42.313,39.358
	c1.728,1.607,3.929,2.41,6.13,2.41c2.201,0,4.402-0.803,6.129-2.41l13.421-12.482v106.64h-88.353V358.892z M338.737,426.753H250.38
	V320.118l13.422,12.478c1.728,1.606,3.928,2.409,6.128,2.409c2.201,0,4.402-0.803,6.13-2.41l42.377-39.417
	c13.195,19.201,20.3,41.909,20.3,65.715V426.753z M304.663,276.617c0.829,0.829,1.639,1.671,2.439,2.52l-37.174,34.577
	l-15.652-14.552c14.726-8.879,27.649-20.075,38.415-32.966C296.894,269.39,300.92,272.874,304.663,276.617z M344.289,160.8
	c0,7.843-3.056,15.218-8.604,20.766c-2.464,2.464-5.307,4.433-8.39,5.866c0.856-6.523,1.3-13.135,1.3-19.802v-26.731
	C337.583,143.067,344.289,151.155,344.289,160.8z M356.436,102.443c-8.721-17.297-5.774-37.346-5.748-37.522
	c0.536-3.361-0.871-6.737-3.635-8.724c-2.765-1.987-6.412-2.245-9.428-0.665l-23.7,12.409c-2.932-4.969-6.254-9.681-9.928-14.091
	l24.708-25.664c11.021-11.451,25.387-11.662,35.163-8.039c9.771,3.623,20.532,13.146,21.427,29.013l2.07,36.823
	c0.962,16.989,5.692,33.602,13.635,48.43C383.255,127.104,363.285,116.038,356.436,102.443z"/>
<g>
</g>
<g>
</g>
<g>
</g>
<g>
</g>
<g>
</g>
<g>
</g>
<g>
</g>
<g>
</g>
<g>
</g>
<g>
</g>
<g>
</g>
<g>
</g>
<g>
</g>
<g>
</g>
<g>
</g>
</svg>
