<?xml version="1.0" encoding="iso-8859-1"?>
<!-- Generator: Adobe Illustrator 18.0.0, SVG Export Plug-In . SVG Version: 6.00 Build 0)  -->
<!DOCTYPE svg PUBLIC "-//W3C//DTD SVG 1.1//EN" "http://www.w3.org/Graphics/SVG/1.1/DTD/svg11.dtd">
<svg version="1.1" id="Capa_1" xmlns="http://www.w3.org/2000/svg" xmlns:xlink="http://www.w3.org/1999/xlink" x="0px" y="0px"
	 viewBox="0 0 450.815 450.815" style="enable-background:new 0 0 450.815 450.815;" xml:space="preserve">
<path d="M303.657,257.8c8.89-13.591,15.638-28.551,19.895-44.32c9.469-1.688,18.206-6.218,25.107-13.12
	c8.949-8.948,13.877-20.843,13.877-33.494c0-19.6-14.729-35.813-33.698-38.181v-0.879c0-24.436-8.465-48.129-23.846-67.02
	c-1.822-7.905-4.899-15.609-9.239-22.848C281.507,14.182,256.467,0,228.77,0h-6.141C150.739,0,92.251,58.487,92.251,130.378
	c0,49.05,12.154,97.191,34.861,140.103c-24.762,25.049-38.833,59.09-38.833,94.473v76.86c0,4.971,4.029,9,9,9h250.71
	c4.971,0,9-4.029,9-9v-76.86c0-35.891-13.974-69.631-39.346-95.003C313.278,265.586,308.573,261.522,303.657,257.8z
	 M344.536,166.865c0,7.843-3.056,15.218-8.604,20.766c-2.465,2.465-5.31,4.435-8.394,5.868c0.856-6.524,1.3-13.137,1.3-19.804
	v-26.731C337.829,149.13,344.536,157.219,344.536,166.865z M310.838,173.695c0,47.992-25.738,92.851-67.174,117.071
	c-12.971,7.587-29.088,7.587-42.064-0.001c-3.016-1.762-5.975-3.66-8.848-5.655l0.003-25.555
	c0.003-21.804,6.063-43.133,17.528-61.681c11.464-18.547,27.832-33.505,47.334-43.256c16.818-8.408,30.388-21.618,39.245-38.206
	l0.806-1.508c3.255-6.095,5.652-12.46,7.198-18.95c3.903,10.084,5.972,20.875,5.972,31.851V173.695z M222.629,18h6.141
	c21.314,0,40.584,10.914,51.546,29.194c10.964,18.284,11.515,40.426,1.476,59.228l-0.81,1.515
	c-7.088,13.275-17.95,23.85-31.414,30.581c-22.493,11.247-41.372,28.5-54.596,49.892c-13.223,21.393-20.214,45.993-20.217,71.143
	l-0.006,50.072c-41.6-50.324-64.498-113.935-64.498-179.247C110.251,68.413,160.663,18,222.629,18z M161.626,321.998l15.206,18.247
	c1.744,2.093,4.295,3.239,6.916,3.239c1.024,0,2.06-0.175,3.062-0.538c3.563-1.29,5.937-4.672,5.937-8.461l0.003-28.049
	c9.231,5.343,19.555,8.017,29.884,8.016c10.413,0,20.829-2.716,30.116-8.147c15.469-9.042,28.99-20.636,40.189-34.047
	c4.207,3.195,8.234,6.68,11.975,10.421c10.126,10.126,18.15,21.793,23.865,34.47c-29.201,26.168-66.598,40.515-106.014,40.515
	c-39.467,0-76.91-14.385-106.13-40.62c4.962-10.979,11.623-21.191,19.794-30.216C143.941,299.093,152.344,310.859,161.626,321.998z
	 M338.989,432.815h-232.71v-67.86c0-10.117,1.332-20.106,3.883-29.73c31.655,26.168,71.126,40.44,112.604,40.44
	c41.407,0,80.813-14.224,112.44-40.307c2.491,9.544,3.784,19.47,3.784,29.597V432.815z"/>
<g>
</g>
<g>
</g>
<g>
</g>
<g>
</g>
<g>
</g>
<g>
</g>
<g>
</g>
<g>
</g>
<g>
</g>
<g>
</g>
<g>
</g>
<g>
</g>
<g>
</g>
<g>
</g>
<g>
</g>
</svg>
