<?xml version="1.0" encoding="iso-8859-1"?>
<!-- Generator: Adobe Illustrator 18.0.0, SVG Export Plug-In . SVG Version: 6.00 Build 0)  -->
<!DOCTYPE svg PUBLIC "-//W3C//DTD SVG 1.1//EN" "http://www.w3.org/Graphics/SVG/1.1/DTD/svg11.dtd">
<svg version="1.1" id="Capa_1" xmlns="http://www.w3.org/2000/svg" xmlns:xlink="http://www.w3.org/1999/xlink" x="0px" y="0px"
	 viewBox="0 0 464.062 464.062" style="enable-background:new 0 0 464.062 464.062;" xml:space="preserve">
<path d="M391.031,58c0-31.981-26.019-58-58-58c-27.388,0-50.386,19.087-56.433,44.653c-13.56-6.293-28.657-9.814-44.563-9.814
	c-15.909,0-31.009,3.522-44.571,9.818C181.419,19.089,158.42,0,131.031,0c-31.981,0-58,26.019-58,58
	c0,31.243,24.835,56.781,55.798,57.944c-1.959,8.053-3.006,16.459-3.006,25.107v0.878c-18.966,2.371-33.691,18.583-33.691,38.18
	c0,12.644,4.923,24.537,13.871,33.499c6.908,6.898,15.644,11.425,25.106,13.114c4.258,15.772,11.007,30.736,19.9,44.329
	c-33.437,25.314-53.327,65.158-53.327,107.151v76.86c0,4.971,4.029,9,9,9h250.71c4.971,0,9-4.029,9-9v-76.86
	c0-35.891-13.973-69.631-39.346-95.004c-4.366-4.365-9.068-8.428-13.981-12.148c8.892-13.592,15.641-28.555,19.899-44.327
	c9.467-1.689,18.202-6.218,25.104-13.12c8.948-8.948,13.875-20.843,13.875-33.494c0-19.599-14.728-35.812-33.694-38.181v-0.877
	c0-8.647-1.046-17.054-3.006-25.107C366.201,114.776,391.031,89.24,391.031,58z M232.036,52.839
	c48.64,0,88.212,39.572,88.212,88.212v10.703c-6.256-1.862-12.576-3.555-18.933-5.02l-7.898-39.499
	c-0.779-3.896-4.021-6.821-7.978-7.195c-3.96-0.374-7.689,1.89-9.186,5.572l-14.113,34.728
	c-39.631-3.853-80.152,0.087-118.317,11.421v-10.709C143.823,92.411,183.395,52.839,232.036,52.839z M131.031,98
	c-22.056,0-40-17.944-40-40s17.944-40,40-40c20.801,0,37.938,15.962,39.821,36.28c-15.515,10.972-27.969,25.995-35.813,43.516
	C133.706,97.928,132.368,98,131.031,98z M118.73,200.879c-5.545-5.553-8.599-12.93-8.599-20.771c0-9.643,6.705-17.731,15.691-19.899
	v26.73c0,6.666,0.444,13.277,1.3,19.799C124.037,205.307,121.194,203.339,118.73,200.879z M277.472,309.281
	c-8.949,15.871-25.959,26.619-45.441,26.619c-19.487,0-36.501-10.753-45.448-26.631c4.874,3.708,9.983,7.154,15.336,10.283
	c9.288,5.428,19.703,8.143,30.117,8.143s20.828-2.714,30.117-8.143v0C267.5,316.427,272.603,312.984,277.472,309.281z
	 M298.429,326.92c3.439,10.051,0.697,21.285-6.987,28.62c-5.407,5.161-12.497,7.832-19.969,7.539c-7.47-0.3-14.324-3.539-19.3-9.118
	l-2.151-2.412c19.423-5.159,35.549-18.465,44.509-36.02L298.429,326.92z M165.633,326.92l3.898-11.39
	c8.96,17.555,25.086,30.86,44.509,36.02l-2.151,2.411c-4.976,5.579-11.83,8.817-19.3,9.117c-7.461,0.303-14.562-2.377-19.969-7.539
	C164.936,348.205,162.193,336.971,165.633,326.92z M115.681,378.202c0-35.767,16.662-69.737,44.762-91.707l-11.84,34.598
	c-5.705,16.67-1.156,35.302,11.589,47.469c8.515,8.128,19.547,12.542,31.244,12.542c0.623,0,1.25-0.013,1.876-0.038
	c11.283-0.454,21.711-4.959,29.719-12.748v77.745h-107.35V378.202z M348.391,378.202v67.86h-107.36v-77.745
	c8.008,7.789,18.436,12.295,29.719,12.749c12.388,0.488,24.151-3.943,33.121-12.504c12.745-12.166,17.294-30.798,11.589-47.468
	l-11.851-34.63c3.748,2.929,7.341,6.096,10.708,9.463C336.29,317.899,348.391,347.119,348.391,378.202z M253.07,304.011
	C253.069,304.011,253.069,304.011,253.07,304.011c-12.974,7.583-29.094,7.583-42.069,0c-41.437-24.217-67.178-69.076-67.178-117.071
	v-16.372c39.491-12.536,81.881-16.558,123.023-11.613c4.033,0.484,7.884-1.788,9.412-5.547l5.384-13.25l3.173,15.866
	c0.706,3.532,3.45,6.303,6.976,7.043c9.578,2.011,19.121,4.533,28.456,7.5v16.373C320.248,234.935,294.506,279.793,253.07,304.011z
	 M353.942,180.109c0,7.842-3.056,15.217-8.604,20.766c-2.463,2.463-5.307,4.432-8.391,5.865c0.856-6.523,1.3-13.134,1.3-19.801
	v-26.731C347.236,162.376,353.942,170.464,353.942,180.109z M333.031,98c-1.333,0-2.669-0.072-3.999-0.204
	c-7.846-17.524-20.303-32.549-35.822-43.522C295.097,33.959,312.232,18,333.031,18c22.056,0,40,17.944,40,40S355.087,98,333.031,98z
	"/>
<g>
</g>
<g>
</g>
<g>
</g>
<g>
</g>
<g>
</g>
<g>
</g>
<g>
</g>
<g>
</g>
<g>
</g>
<g>
</g>
<g>
</g>
<g>
</g>
<g>
</g>
<g>
</g>
<g>
</g>
</svg>
