<?xml version="1.0" encoding="iso-8859-1"?>
<!-- Generator: Adobe Illustrator 18.0.0, SVG Export Plug-In . SVG Version: 6.00 Build 0)  -->
<!DOCTYPE svg PUBLIC "-//W3C//DTD SVG 1.1//EN" "http://www.w3.org/Graphics/SVG/1.1/DTD/svg11.dtd">
<svg version="1.1" id="Capa_1" xmlns="http://www.w3.org/2000/svg" xmlns:xlink="http://www.w3.org/1999/xlink" x="0px" y="0px"
	 viewBox="0 0 482.433 482.433" style="enable-background:new 0 0 482.433 482.433;" xml:space="preserve">
<path d="M419.603,373.734c-1.175-3.756-4.654-6.314-8.59-6.314h-13.76c-22.447,0-40.71-18.263-40.71-40.71v-215.9
	C356.544,49.709,306.839,0,245.744,0c-18.375,0-36.369,6.323-50.666,17.805c-12.614,10.13-21.945,23.922-26.698,39.265
	c-44.823,12.45-77.818,53.618-77.818,102.352v2.582c-15.374,5.147-26.189,19.628-26.189,36.476c0,12.645,4.923,24.538,13.873,33.501
	c4.863,4.853,10.682,8.547,17.042,10.898c4.213,16.583,11.152,32.317,20.459,46.542c-33.437,25.314-53.328,65.158-53.328,107.152
	v76.86c0,4.971,4.029,9,9,9h250.71c4.971,0,9-4.029,9-9V410.41c3.279,0.284,6.566,0.429,9.851,0.429
	c23.252-0.001,46.362-7.068,65.61-20.401l9.55-6.62C419.376,381.575,420.778,377.491,419.603,373.734z M196.775,71.21
	c48.64,0,88.212,39.572,88.212,88.212v18.288c-1.399,0.077-2.804,0.13-4.214,0.13c-41.355,0-75-33.645-75-75c0-4.971-4.029-9-9-9
	s-9,4.029-9,9c0,41.355-33.645,75-75,75c-1.409,0-2.813-0.053-4.211-0.13v-18.288C108.562,110.782,148.134,71.21,196.775,71.21z
	 M217.129,55.175c4.079-2.668,9.168-3.477,13.906-2.14c4.371,1.233,7.999,4.095,10.216,8.057c0.435,0.777,0.786,1.583,1.091,2.402
	C234.425,59.719,225.971,56.899,217.129,55.175z M302.987,182.086c5.002,3.75,8.196,9.719,8.196,16.394
	c0,7.843-3.056,15.218-8.604,20.767c-0.087,0.087-0.18,0.165-0.268,0.25c0.439-4.693,0.676-9.424,0.676-14.185V182.086z
	 M90.972,219.251c-5.545-5.553-8.599-12.93-8.599-20.771c0-6.674,3.192-12.642,8.189-16.393v23.224
	c0,4.762,0.237,9.494,0.677,14.188C91.151,219.415,91.058,219.337,90.972,219.251z M108.562,195.738
	c1.401,0.063,2.804,0.103,4.211,0.103c37.008,0,69.038-21.732,84-53.102c14.962,31.369,46.992,53.102,84,53.102
	c1.407,0,2.812-0.04,4.214-0.103v9.574c0,47.995-25.741,92.854-67.178,117.071l0,0c-12.974,7.583-29.094,7.583-42.068,0
	c-41.437-24.217-67.178-69.076-67.178-117.071V195.738z M274.548,464.433h-155.54c-4.42-5.522-6.825-12.118-6.825-18.906
	c0-18.218,16.953-33.04,37.79-33.04c20.843,0,37.8,14.822,37.8,33.04c0,4.971,4.029,9,9,9s9-4.029,9-9
	c0-18.218,16.957-33.04,37.8-33.04c20.844,0,37.801,14.822,37.801,33.04C281.374,452.315,278.968,458.911,274.548,464.433z
	 M243.573,394.487c-19.581,0-36.839,9.273-46.8,23.271c-9.961-13.998-27.219-23.271-46.8-23.271c-5.417,0-10.65,0.723-15.606,2.047
	v-83.887c9.48,9.728,20.301,18.268,32.29,25.275c9.289,5.429,19.703,8.143,30.117,8.143c10.415,0,20.829-2.714,30.117-8.143l0,0
	c11.99-7.007,22.811-15.548,32.291-25.276v83.886C254.224,395.211,248.991,394.487,243.573,394.487z M80.419,396.573
	c0-31.848,13.216-62.268,35.948-84.064v92.309c-13.465,9.327-22.184,24.102-22.184,40.709c0,6.547,1.371,12.949,3.964,18.906H80.419
	V396.573z M313.129,464.433h-17.72c2.593-5.957,3.964-12.358,3.964-18.906c0-16.609-8.722-31.386-22.192-40.712v-92.32
	c0.626,0.599,1.262,1.189,1.874,1.801c21.974,21.974,34.074,51.193,34.074,82.276V464.433z M331.056,392.323
	c-1.058-34.297-14.905-66.385-39.272-90.754c-4.364-4.364-9.067-8.427-13.981-12.148c9.307-14.225,16.246-29.959,20.459-46.542
	c6.37-2.354,12.191-6.05,17.046-10.905c8.948-8.948,13.876-20.843,13.876-33.494c0-16.846-10.818-31.327-26.196-36.475v-2.583
	c0-34.458-16.499-65.132-42.007-84.549c1.243-7.743-0.133-15.625-4.022-22.572c-4.566-8.158-12.036-14.049-21.033-16.589
	c-10.786-3.045-22.462-0.706-31.203,6.231c-3.894,3.063-7.062,6.909-9.339,11.285c-2.131,0.028-4.247,0.114-6.346,0.266
	C199.341,32.069,221.062,18,245.744,18c51.17,0,92.8,41.634,92.8,92.81v215.9c0,27.307,18.74,50.319,44.033,56.854
	C366.596,391.076,348.66,394.158,331.056,392.323z"/>
<g>
</g>
<g>
</g>
<g>
</g>
<g>
</g>
<g>
</g>
<g>
</g>
<g>
</g>
<g>
</g>
<g>
</g>
<g>
</g>
<g>
</g>
<g>
</g>
<g>
</g>
<g>
</g>
<g>
</g>
</svg>
