<?xml version="1.0" encoding="iso-8859-1"?>
<!-- Generator: Adobe Illustrator 18.0.0, SVG Export Plug-In . SVG Version: 6.00 Build 0)  -->
<!DOCTYPE svg PUBLIC "-//W3C//DTD SVG 1.1//EN" "http://www.w3.org/Graphics/SVG/1.1/DTD/svg11.dtd">
<svg version="1.1" id="Capa_1" xmlns="http://www.w3.org/2000/svg" xmlns:xlink="http://www.w3.org/1999/xlink" x="0px" y="0px"
	 viewBox="0 0 465.1 465.1" style="enable-background:new 0 0 465.1 465.1;" xml:space="preserve">
<g>
	<path d="M346.039,275.254v-49.621c6.434-2.348,12.292-6.074,17.205-10.996c8.951-8.938,13.881-20.831,13.881-33.489
		c0-21.181-17.199-38.418-38.364-38.487v-0.572c0-2.416-0.094-4.857-0.26-7.295c16.425-17.414,25.77-40.786,25.77-64.805V9
		c0-4.97-4.029-9-9-9H233.16c-15.347,0-29.774,5.976-40.624,16.826c-7.582,7.582-12.784,16.91-15.229,27.079l-9.203-4.424
		c-12.923-6.221-27.978-5.522-40.271,1.869c-12.299,7.395-19.979,20.373-20.546,34.718l-2.88,73.539
		c-10.252,7.131-16.432,18.78-16.432,31.542c0,12.645,4.928,24.536,13.87,33.478c4.92,4.93,10.781,8.659,17.217,11.007v49.621
		c0,8.731,1.597,17.219,4.676,25.172C107.013,323.43,98.2,350.561,98.2,379.24v76.86c0,4.97,4.029,9,9,9h250.71c4.971,0,9-4.03,9-9
		v-76.86c0-28.684-8.816-55.816-25.546-78.814C344.442,292.473,346.039,283.985,346.039,275.254z M205.391,334.225l-31.229-9.266
		c-21.844-6.48-37.1-26.92-37.1-49.705v-79.787c0-2.195,1.234-3.511,1.97-4.101c0.594-0.476,1.72-1.164,3.241-1.164
		c0.204,0,0.415,0.012,0.633,0.039c2.685,1.138,5.073,2.774,7.11,4.87c2.217,2.281,3.878,4.96,4.939,7.967
		c5.62,15.905,20.724,26.591,37.585,26.591h80.021c8.304,0,16.267-2.534,23.016-7.322c6.77-4.787,11.808-11.45,14.572-19.276
		c2.043-5.796,6.409-10.432,12.044-12.826c1.862-0.223,3.207,0.585,3.877,1.122c0.735,0.589,1.97,1.905,1.97,4.101v79.785
		c0,22.785-15.256,43.224-37.1,49.705l-31.229,9.265C241.944,339.496,223.159,339.497,205.391,334.225z M144.34,142
		c0.009-8.437,1.189-16.702,3.52-24.667c12.964,2.936,26.106-0.282,37.01-5.016c1.393,2.674,2.907,5.279,4.536,7.798
		c8.542,13.258,20.332,24.367,34.093,32.124c14.103,7.956,30.131,12.161,46.353,12.161c16.157,0,32.141-4.178,46.233-12.087
		c1.589-0.894,3.146-1.839,4.677-2.82v22.816c-1.02,0.091-2.041,0.241-3.058,0.469c-0.43,0.096-0.852,0.224-1.262,0.382
		c-10.904,4.191-19.386,12.913-23.268,23.923c-1.515,4.29-4.278,7.944-8.001,10.577c-3.699,2.624-8.061,4.011-12.612,4.011H192.54
		c-9.246,0-17.53-5.863-20.612-14.585c-1.932-5.473-4.961-10.357-9.002-14.516c-4.04-4.158-8.836-7.323-14.253-9.408
		c-0.412-0.159-0.848-0.289-1.278-0.386c-0.804-0.18-1.611-0.312-2.418-0.406L144.34,142z M359.125,181.149
		c0,7.844-3.054,15.214-8.61,20.762c-1.378,1.38-2.883,2.593-4.476,3.66v-10.102c0-6.455-2.635-12.505-7.278-16.886v-17.917
		C350.001,160.734,359.125,169.893,359.125,181.149z M137.109,56.776c7.184-4.32,15.637-4.712,23.192-1.075l20.51,9.86
		c2.79,1.342,6.072,1.154,8.69-0.492c2.619-1.647,4.209-4.525,4.209-7.619c0-10.539,4.104-20.446,11.555-27.896
		C212.715,22.103,222.621,18,233.16,18h113.11v51.99c0,20.62-8.507,40.654-23.347,54.971c-4.675,4.521-9.946,8.446-15.659,11.661
		c-11.398,6.397-24.336,9.779-37.414,9.779c-13.129,0-26.099-3.402-37.511-9.84c-11.226-6.328-20.84-15.385-27.811-26.206
		c-2.752-4.258-5.104-8.811-6.991-13.533c-0.958-2.398-2.9-4.27-5.333-5.138c-2.43-0.867-5.119-0.65-7.38,0.601
		c-10.688,5.912-26.051,11.671-38.544,5.529c-2.247-1.105-4.854-1.223-7.189-0.328c-2.338,0.896-4.197,2.724-5.132,5.047
		c-5.057,12.574-7.62,25.883-7.62,39.558c0,0.063,0.001,0.126,0.002,0.188l0.008,0.384c-1.225,0.004-2.448,0.077-3.665,0.198
		l2.588-66.085C125.605,68.389,129.918,61.099,137.109,56.776z M114.578,201.905c-5.548-5.548-8.604-12.919-8.604-20.756
		c0-7.789,4.323-14.801,11.313-18.315c2.844-1.443,5.932-2.175,9.177-2.175h0.262l0.361,17.243
		c-5.108,4.423-8.027,10.77-8.027,17.565v10.104C117.467,204.503,115.959,203.288,114.578,201.905z M116.2,379.24
		c0-22.007,6.008-42.95,17.446-61.292c9.012,11.677,21.222,20.063,35.396,24.268l31.229,9.265
		c7.641,2.267,15.441,3.702,23.284,4.328V447.1H116.2V379.24z M348.91,447.1H241.556v-91.292c7.839-0.627,15.636-2.061,23.273-4.327
		l31.229-9.265c14.176-4.206,26.386-12.593,35.399-24.271c11.442,18.341,17.453,39.285,17.453,61.296V447.1z"/>
	<path d="M270.625,255.879c-2.321-10.464-11.053-17.494-21.727-17.494h-32.696c-10.674,0-19.405,7.03-21.727,17.494
		c-2.297,10.352,2.588,20.308,12.156,24.773c8.146,3.803,16.867,5.731,25.919,5.731c9.051,0,17.771-1.928,25.918-5.731
		C268.037,276.187,272.922,266.231,270.625,255.879z M250.856,264.342c-5.745,2.682-11.904,4.042-18.305,4.042
		c-6.401,0-12.561-1.36-18.306-4.042c-2.53-1.181-2.463-3.366-2.197-4.564c0.227-1.02,1.085-3.393,4.154-3.393h32.696
		c3.069,0,3.928,2.373,4.154,3.393C253.319,260.976,253.386,263.161,250.856,264.342z"/>
</g>
<g>
</g>
<g>
</g>
<g>
</g>
<g>
</g>
<g>
</g>
<g>
</g>
<g>
</g>
<g>
</g>
<g>
</g>
<g>
</g>
<g>
</g>
<g>
</g>
<g>
</g>
<g>
</g>
<g>
</g>
</svg>
