<?xml version="1.0" encoding="iso-8859-1"?>
<!-- Generator: Adobe Illustrator 18.0.0, SVG Export Plug-In . SVG Version: 6.00 Build 0)  -->
<!DOCTYPE svg PUBLIC "-//W3C//DTD SVG 1.1//EN" "http://www.w3.org/Graphics/SVG/1.1/DTD/svg11.dtd">
<svg version="1.1" id="Capa_1" xmlns="http://www.w3.org/2000/svg" xmlns:xlink="http://www.w3.org/1999/xlink" x="0px" y="0px"
	 viewBox="0 0 429.223 429.223" style="enable-background:new 0 0 429.223 429.223;" xml:space="preserve">
<g>
	<path d="M309.621,248.359c-2.279-2.279-4.657-4.471-7.098-6.585c11.441-11.274,18.301-26.876,18.301-43.611v-8.189
		c5.764-2.13,11.016-5.483,15.448-9.916c8.11-8.11,12.576-18.89,12.576-30.354c0-18.266-11.412-34.158-28.024-40.271v-3.221
		C320.824,47.647,273.177,0,214.611,0c-58.565,0-106.212,47.647-106.212,106.212v3.219c-16.611,6.107-28.021,21.999-28.021,40.273
		c0,11.464,4.466,22.244,12.569,30.347c4.427,4.436,9.68,7.792,15.452,9.923v8.189c0,16.737,6.862,32.34,18.305,43.615
		c-29.27,25.378-46.449,62.555-46.449,101.585v76.86c0,4.97,4.029,9,9,9h250.71c4.971,0,9-4.03,9-9v-76.86
		C348.967,307.472,334.993,273.732,309.621,248.359z M293.261,257.619l-41.977,33.029l-17.779-18.741
		c2.424-0.601,4.827-1.307,7.194-2.143l39.323-13.9c2.575-0.91,5.055-1.992,7.443-3.213
		C289.446,254.243,291.384,255.897,293.261,257.619z M330.848,149.704c0,6.656-2.594,12.916-7.304,17.626
		c-0.856,0.856-1.767,1.636-2.72,2.35v-39.957C326.96,134.299,330.848,141.591,330.848,149.704z M214.612,18
		c39.996,0,73.854,26.759,84.628,63.312c-10.39,4.467-21.698,6.812-33.092,6.812c-27.567,0-53.364-13.574-69.008-36.315
		c-2.604-3.781-4.909-7.796-6.849-11.936c-2.109-4.5-7.468-6.437-11.969-4.329c-4.5,2.11-6.438,7.469-4.329,11.969
		c1.234,2.632,2.595,5.22,4.059,7.749c-12.993,10.64-28.74,17.055-45.477,18.523C145.523,41.143,177.415,18,214.612,18z
		 M105.682,167.33c-4.71-4.71-7.304-10.97-7.304-17.626c0-8.119,3.886-15.412,10.021-19.985v39.963
		C107.447,168.967,106.536,168.187,105.682,167.33z M126.399,106.212c0-4.805,0.392-9.519,1.135-14.117
		c22.363-0.514,43.59-8.245,60.908-22.065c19.229,22.761,47.594,36.094,77.706,36.094c12.462,0,24.848-2.308,36.414-6.733
		c0.173,2.251,0.262,4.526,0.262,6.821v91.951c0,18.271-11.574,34.639-28.801,40.729l-39.323,13.9
		c-12.954,4.579-27.223,4.579-40.176,0l-39.323-13.9c-17.227-6.09-28.801-22.457-28.801-40.729V106.212z M149.201,255.863
		l39.323,13.901c2.373,0.839,4.783,1.546,7.215,2.148l-17.774,18.736l-41.978-33.03c1.865-1.714,3.795-3.367,5.779-4.964
		C144.151,253.873,146.629,254.953,149.201,255.863z M98.256,343.363c0-26.558,9.188-52.126,25.421-72.527l49.605,39.031
		c3.653,2.874,8.895,2.494,12.095-0.879l20.248-21.344v123.578H98.256V343.363z M330.967,411.223H223.625V287.645l20.248,21.344
		c1.761,1.856,4.14,2.806,6.532,2.806c1.955,0,3.919-0.635,5.563-1.927l49.629-39.05c16.438,20.536,25.371,45.851,25.371,72.546
		V411.223z"/>
	<path d="M156.733,224.357c2.569,1.658,5.805,1.897,8.589,0.636l9.545-4.32l9.546,4.32c2.36,1.068,5.065,1.068,7.424-0.001
		l9.535-4.318l9.54,4.319c2.36,1.069,5.066,1.068,7.425,0l9.534-4.318l9.53,4.318c2.36,1.069,5.067,1.069,7.427,0l9.535-4.318
		l9.535,4.318c1.185,0.536,2.451,0.802,3.712,0.802c1.705,0,3.401-0.484,4.878-1.436c2.57-1.657,4.123-4.506,4.123-7.564v-17.813
		c0-18.851-15.336-34.188-34.188-34.188h-55.625c-18.851,0-34.188,15.336-34.188,34.188v17.813
		C152.612,219.852,154.164,222.7,156.733,224.357z M170.612,198.982c0-8.926,7.262-16.188,16.188-16.188h55.625
		c8.926,0,16.188,7.262,16.188,16.188v3.856l-0.535-0.242c-2.359-1.069-5.066-1.069-7.426,0l-9.535,4.318l-9.53-4.318
		c-2.359-1.069-5.066-1.069-7.427,0l-9.535,4.318l-9.54-4.319c-2.359-1.068-5.065-1.068-7.425,0l-9.536,4.319l-9.544-4.32
		c-1.179-0.534-2.445-0.801-3.711-0.801s-2.532,0.267-3.711,0.801l-0.545,0.247V198.982z"/>
	<path d="M302.848,339.794h-45c-4.971,0-9,4.03-9,9s4.029,9,9,9h45c4.971,0,9-4.03,9-9S307.818,339.794,302.848,339.794z"/>
</g>
<g>
</g>
<g>
</g>
<g>
</g>
<g>
</g>
<g>
</g>
<g>
</g>
<g>
</g>
<g>
</g>
<g>
</g>
<g>
</g>
<g>
</g>
<g>
</g>
<g>
</g>
<g>
</g>
<g>
</g>
</svg>
