<?xml version="1.0" encoding="iso-8859-1"?>
<!-- Generator: Adobe Illustrator 18.0.0, SVG Export Plug-In . SVG Version: 6.00 Build 0)  -->
<!DOCTYPE svg PUBLIC "-//W3C//DTD SVG 1.1//EN" "http://www.w3.org/Graphics/SVG/1.1/DTD/svg11.dtd">
<svg version="1.1" id="Capa_1" xmlns="http://www.w3.org/2000/svg" xmlns:xlink="http://www.w3.org/1999/xlink" x="0px" y="0px"
	 viewBox="0 0 429.223 429.223" style="enable-background:new 0 0 429.223 429.223;" xml:space="preserve">
<path d="M304.032,243.115c10.431-9.496,16.756-23.116,16.79-37.784c21.825-4.216,38.362-23.454,38.362-46.491
	c0-21.179-17.197-38.414-38.36-38.483v-14.145C320.824,47.647,273.177,0,214.611,0c-58.565,0-106.212,47.647-106.212,106.212v14.145
	c-21.163,0.069-38.36,17.304-38.36,38.483c0,23.037,16.538,42.275,38.362,46.491c0.034,14.669,6.361,28.291,16.793,37.787
	c-28.346,25.337-44.939,61.894-44.939,100.245v76.86c0,4.971,4.029,9,9,9h250.71c4.971,0,9-4.029,9-9v-76.86
	c0-35.892-13.974-69.631-39.347-95.004C307.816,246.555,305.939,244.818,304.032,243.115z M126.399,175.624
	c8.704,7.284,19.904,11.679,32.115,11.679c24.56,0,45.035-17.764,49.289-41.115h13.616c4.254,23.351,24.73,41.115,49.289,41.115
	c12.211,0,23.411-4.395,32.115-11.679v29.591c0,14.054-8.902,26.643-22.153,31.327l-45.971,16.25
	c-12.955,4.578-27.223,4.579-40.176,0l-45.971-16.25c-13.25-4.684-22.153-17.273-22.153-31.327V175.624z M126.399,137.189
	c0-4.083,3.321-7.404,7.404-7.404h49.422c4.083,0,7.404,3.321,7.404,7.404c0,17.708-14.407,32.115-32.115,32.115
	S126.399,154.897,126.399,137.189z M238.594,137.189c0-4.083,3.321-7.404,7.404-7.404h49.422c4.083,0,7.404,3.321,7.404,7.404
	c0,17.708-14.407,32.115-32.115,32.115S238.594,154.897,238.594,137.189z M141.286,253.036c0.421,0.161,0.84,0.325,1.267,0.476
	l45.971,16.25c8.411,2.974,17.249,4.46,26.087,4.46c8.838,0,17.676-1.486,26.087-4.46l45.971-16.25
	c0.426-0.151,0.846-0.315,1.266-0.476c0.007,0.006,0.014,0.012,0.021,0.017c-11.059,30.56-40.413,51.437-73.345,51.437
	c-32.934,0-62.291-20.878-73.349-51.436C141.271,253.049,141.279,253.042,141.286,253.036z M341.183,158.84
	c0,13.05-8.561,24.133-20.36,27.943V138.36C332.061,138.429,341.183,147.586,341.183,158.84z M214.612,18
	c42.011,0,77.252,29.523,86.079,68.91l-36.048-26.385c-2.436-1.783-5.604-2.227-8.435-1.18c-2.832,1.046-4.95,3.442-5.642,6.381
	l-3.368,14.315l-54.269-27.765c-2.79-1.428-6.122-1.301-8.795,0.334c-2.673,1.635-4.304,4.544-4.304,7.678v12.276l-32.282-23.588
	C163.74,30.031,187.796,18,214.612,18z M137.297,63.778l46.223,33.775c2.736,2,6.364,2.292,9.385,0.758
	c3.021-1.534,4.925-4.636,4.925-8.025V75.002l51.397,26.296c2.463,1.26,5.368,1.317,7.879,0.156c2.51-1.162,4.347-3.414,4.981-6.106
	l2.888-12.272l37.849,27.703v2.11c-2.344-0.715-4.829-1.104-7.404-1.104h-49.422c-10.839,0-20.11,6.826-23.751,16.404h-15.27
	c-3.641-9.578-12.912-16.404-23.751-16.404h-49.422c-2.575,0-5.06,0.388-7.404,1.104v-6.676
	C126.399,90.84,130.356,76.376,137.297,63.778z M88.039,158.84c0-11.254,9.122-20.411,20.36-20.48v48.423
	C96.6,182.973,88.039,171.89,88.039,158.84z M127.33,266.48c15.422,33.598,49.433,56.011,87.282,56.011
	c37.863,0,71.884-22.432,87.298-56.056c3.846,4.352,7.334,8.946,10.45,13.746c-21.371,32.92-58.336,53.169-97.744,53.169
	c-39.379,0-76.318-20.214-97.698-53.083C120.035,275.434,123.513,270.823,127.33,266.48z M330.967,411.223H98.256v-67.86
	c0-15.719,3.228-31.087,9.22-45.247c10.657,14.034,24.012,25.936,39.272,34.875c20.506,12.011,43.974,18.36,67.867,18.36
	c23.888,0,47.353-6.349,67.858-18.36c15.299-8.962,28.682-20.903,39.353-34.984c5.991,14.161,9.141,29.515,9.141,45.357V411.223z"/>
<g>
</g>
<g>
</g>
<g>
</g>
<g>
</g>
<g>
</g>
<g>
</g>
<g>
</g>
<g>
</g>
<g>
</g>
<g>
</g>
<g>
</g>
<g>
</g>
<g>
</g>
<g>
</g>
<g>
</g>
</svg>
