<?xml version="1.0" encoding="iso-8859-1"?>
<!-- Generator: Adobe Illustrator 18.0.0, SVG Export Plug-In . SVG Version: 6.00 Build 0)  -->
<!DOCTYPE svg PUBLIC "-//W3C//DTD SVG 1.1//EN" "http://www.w3.org/Graphics/SVG/1.1/DTD/svg11.dtd">
<svg version="1.1" id="Capa_1" xmlns="http://www.w3.org/2000/svg" xmlns:xlink="http://www.w3.org/1999/xlink" x="0px" y="0px"
	 viewBox="0 0 440.636 440.636" style="enable-background:new 0 0 440.636 440.636;" xml:space="preserve">
<path d="M326.531,216.628v-13.453c21.823-4.217,38.359-23.455,38.359-46.491v-9.717c0-15.864-12.905-28.769-28.769-28.769h-9.591
	V35.493C326.531,15.922,310.609,0,291.038,0H149.599c-19.571,0-35.493,15.922-35.493,35.493v82.704h-9.59
	c-15.863,0-28.77,12.906-28.77,28.769v9.717c0,23.036,16.536,42.274,38.359,46.491v13.453c0,14.714,6.335,28.382,16.796,37.904
	c-28.345,25.337-44.938,61.894-44.938,100.245v76.86c0,4.97,4.029,9,9,9h250.71c4.971,0,9-4.03,9-9v-76.86
	c0-35.892-13.974-69.632-39.346-95.004c-1.804-1.804-3.681-3.541-5.589-5.244C320.197,245.007,326.531,231.341,326.531,216.628z
	 M240.407,264.205c-12.955,4.579-27.223,4.579-40.176,0l-45.972-16.25c-13.251-4.684-22.153-17.273-22.153-31.327v-61.48
	c15.857-8.668,26.516-24.599,28.299-42.871l1.181-12.119c0.761-7.792,7.237-13.667,15.065-13.667h87.336
	c7.828,0,14.304,5.875,15.064,13.667l1.183,12.12c1.782,18.271,12.441,34.202,28.297,42.87v61.48
	c0,14.054-8.902,26.643-22.152,31.327c-0.001,0-0.001,0-0.001,0L240.407,264.205z M268.006,273.54
	c-1.273,22.561-6.587,43.365-15.297,59.433c-8.984,16.575-20.79,26.081-32.388,26.081c-11.6,0-23.406-9.507-32.394-26.082
	c-8.712-16.069-14.028-36.874-15.301-59.434l21.605,7.637c8.411,2.973,17.249,4.46,26.087,4.46c8.837,0,17.675-1.487,26.086-4.46
	L268.006,273.54z M336.121,136.197c5.938,0,10.769,4.831,10.769,10.769v9.717c0,13.05-8.561,24.133-20.359,27.943v-48.429H336.121z
	 M149.599,18h141.439c9.646,0,17.492,7.847,17.492,17.493v97.333c-5.805-5.918-9.547-13.724-10.383-22.296l-1.183-12.12
	c-1.663-17.056-15.841-29.919-32.979-29.919h-87.336c-17.137,0-31.314,12.862-32.98,29.919l-1.181,12.12
	c-0.836,8.572-4.578,16.379-10.384,22.296V35.493C132.106,25.847,139.953,18,149.599,18z M93.746,156.683v-9.717
	c0-5.938,4.831-10.769,10.77-10.769h9.59v48.429C102.307,180.817,93.746,169.733,93.746,156.683z M302.599,272.5
	c21.974,21.972,34.074,51.192,34.074,82.276v67.86h-232.71v-67.86c0-35.026,15.978-68.329,43.03-90.326
	c0.42,0.161,0.839,0.325,1.266,0.476l6.109,2.159c1.226,61.996,29.75,109.97,65.954,109.97c36.198,0,64.718-47.974,65.944-109.969
	l6.112-2.16h-0.001c0.427-0.151,0.846-0.315,1.266-0.476C296.757,266.982,299.763,269.664,302.599,272.5z"/>
<g>
</g>
<g>
</g>
<g>
</g>
<g>
</g>
<g>
</g>
<g>
</g>
<g>
</g>
<g>
</g>
<g>
</g>
<g>
</g>
<g>
</g>
<g>
</g>
<g>
</g>
<g>
</g>
<g>
</g>
</svg>
