<?xml version="1.0" encoding="iso-8859-1"?>
<!-- Generator: Adobe Illustrator 18.0.0, SVG Export Plug-In . SVG Version: 6.00 Build 0)  -->
<!DOCTYPE svg PUBLIC "-//W3C//DTD SVG 1.1//EN" "http://www.w3.org/Graphics/SVG/1.1/DTD/svg11.dtd">
<svg version="1.1" id="Capa_1" xmlns="http://www.w3.org/2000/svg" xmlns:xlink="http://www.w3.org/1999/xlink" x="0px" y="0px"
	 viewBox="0 0 429.223 429.223" style="enable-background:new 0 0 429.223 429.223;" xml:space="preserve">
<path d="M300.127,239.76c12.984-13.817,20.697-32.321,20.697-52.1v-8.688c21.823-4.217,38.359-23.454,38.359-46.491
	c0-5.358-1.082-10.546-3.217-15.423c-4.436-10.133-14.09-16.716-25.193-17.18c-3.489-0.146-6.885,0.318-10.071,1.319
	C318.074,44.951,271.496,0,214.611,0c-56.885,0-103.464,44.952-106.09,101.199c-3.186-1.001-6.582-1.465-10.07-1.321
	c-11.104,0.464-20.758,7.047-25.194,17.179c-2.135,4.876-3.217,10.065-3.217,15.423c0,23.037,16.536,42.274,38.36,46.491v8.688
	c0,19.777,7.711,38.279,20.693,52.096c-30.721,25.401-48.836,63.528-48.836,103.607v76.86c0,4.971,4.029,9,9,9h250.709
	c4.971,0,9-4.029,9-9v-76.86c0-35.892-13.974-69.632-39.346-95.004C306.604,245.343,303.418,242.48,300.127,239.76z
	 M249.581,335.475l17.146,23.462l-25.958,52.286h-17.156v-41.416l50.207-111.875c1.409-0.582,2.797-1.2,4.157-1.861l-5.413,65.093
	h-15.716c-3.389,0-6.49,1.904-8.024,4.925S247.582,332.739,249.581,335.475z M180.401,326.09c-1.535-3.021-4.636-4.925-8.025-4.925
	H156.66l-5.412-65.093c1.36,0.661,2.748,1.278,4.156,1.86l50.207,111.875v41.416h-17.157l-25.958-52.286l17.146-23.462
	C181.642,332.739,181.935,329.112,180.401,326.09z M214.612,345.899l-15.093-33.632l15.093-28.07l15.093,28.07L214.612,345.899z
	 M239.003,291.55l-10.035-18.663c3.971-0.738,7.897-1.768,11.73-3.124l9.606-3.395L239.003,291.55z M190.221,291.55l-11.301-25.182
	l9.605,3.395c3.835,1.356,7.76,2.386,11.731,3.124L190.221,291.55z M330.021,117.863c4.24,0.177,7.776,2.575,9.456,6.414
	c1.132,2.586,1.706,5.346,1.706,8.205c0,13.05-8.561,24.133-20.359,27.943v-38.378C323.01,119.253,326.318,117.703,330.021,117.863z
	 M302.824,106.212v5.12c-14.854-13.613-23.631-33.015-23.631-53.612c0-3.596,0.276-7.157,0.793-10.67
	C294.171,62.71,302.824,83.469,302.824,106.212z M149.231,47.057c0.517,3.511,0.793,7.069,0.793,10.663
	c0,20.59-8.774,39.989-23.624,53.602v-5.11C126.4,83.473,135.05,62.716,149.231,47.057z M88.04,132.481
	c0-2.857,0.574-5.618,1.707-8.204c1.681-3.839,5.216-6.237,9.457-6.414c3.7-0.161,7.01,1.39,9.197,4.183v38.378
	C96.601,156.614,88.04,145.531,88.04,132.481z M126.4,133.969c25.801-16.62,41.624-45.358,41.624-76.249
	c0-8.251-1.117-16.368-3.295-24.22c14.198-9.771,31.383-15.5,49.883-15.5c18.498,0,35.68,5.728,49.877,15.496
	c-2.179,7.854-3.296,15.972-3.296,24.225c0,30.898,15.826,59.638,41.631,76.257v53.682c0,24.554-15.554,46.549-38.704,54.732h0.001
	l-29.422,10.4c-12.953,4.579-27.221,4.579-40.175,0l-29.421-10.4c-23.15-8.184-38.704-30.179-38.704-54.732V133.969z
	 M98.257,343.363c0-31.524,12.944-61.652,35.253-83.4l5.899,70.947c0.388,4.666,4.288,8.254,8.969,8.254h6.274l-9.914,13.567
	c-1.982,2.712-2.289,6.303-0.794,9.312l24.416,49.179H98.257V343.363z M330.966,411.223h-70.102l24.416-49.179
	c1.493-3.009,1.188-6.6-0.795-9.312l-9.914-13.567h6.274c4.682,0,8.581-3.589,8.969-8.254l5.899-70.956
	c0.39,0.38,0.793,0.748,1.178,1.132c21.974,21.972,34.074,51.192,34.074,82.276V411.223z"/>
<g>
</g>
<g>
</g>
<g>
</g>
<g>
</g>
<g>
</g>
<g>
</g>
<g>
</g>
<g>
</g>
<g>
</g>
<g>
</g>
<g>
</g>
<g>
</g>
<g>
</g>
<g>
</g>
<g>
</g>
</svg>
