<?xml version="1.0" encoding="iso-8859-1"?>
<!-- Generator: Adobe Illustrator 18.0.0, SVG Export Plug-In . SVG Version: 6.00 Build 0)  -->
<!DOCTYPE svg PUBLIC "-//W3C//DTD SVG 1.1//EN" "http://www.w3.org/Graphics/SVG/1.1/DTD/svg11.dtd">
<svg version="1.1" id="Capa_1" xmlns="http://www.w3.org/2000/svg" xmlns:xlink="http://www.w3.org/1999/xlink" x="0px" y="0px"
	 viewBox="0 0 477.677 477.677" style="enable-background:new 0 0 477.677 477.677;" xml:space="preserve">
<path d="M345.052,253.668v-13.453c21.823-4.217,38.358-23.455,38.358-46.491v-7.72c0-16.965-13.802-30.766-30.766-30.766h-7.593
	v-0.569c0-7.802-0.847-15.539-2.522-23.084c21.061-13.771,33.603-37.929,32.402-63.42c-0.836-17.707-8.25-34.429-20.877-47.087
	c-12.628-12.66-29.333-20.113-47.039-20.988c-14.545-0.717-28.731,2.9-41.032,10.458c-16.614,10.198-34.622,14.976-52.044,13.823
	c-2.098-0.147-4.229-0.167-6.314-0.061c-39.613,1.927-63.43,19.872-67.064,50.528c-0.082,0.693-0.227,1.88-0.421,3.471
	c-1.51,12.358-6.104,49.966-7.308,69.742c-0.139,2.119-0.209,4.345-0.209,6.618v0.569h-7.589c-16.965,0-30.767,13.802-30.767,30.766
	v7.72c0,23.035,16.534,42.272,38.355,46.49v13.454c0,14.716,6.337,28.384,16.8,37.904c-28.346,25.337-44.938,61.893-44.938,100.245
	v76.86c0,4.97,4.029,9,9,9h250.709c4.971,0,9-4.03,9-9v-76.86c0-35.892-13.974-69.632-39.346-95.004
	c-1.804-1.804-3.68-3.541-5.587-5.243C338.718,282.05,345.052,268.383,345.052,253.668z M112.267,193.724v-7.72
	c0-7.039,5.727-12.766,12.767-12.766h7.589v48.428C120.825,217.855,112.267,206.772,112.267,193.724z M352.645,173.238
	c7.039,0,12.766,5.727,12.766,12.766v7.72c0,13.05-8.56,24.133-20.358,27.943v-48.429H352.645z M158.006,80.491
	c0.198-1.62,0.345-2.829,0.429-3.535c2.55-21.512,19.394-33.176,50.082-34.669c0.579-0.029,1.161-0.044,1.746-0.044
	c0.813,0,1.632,0.028,2.454,0.086c9.774,0.648,19.65-0.23,29.399-2.538c-3.254,8.088-4.955,17.754-3.159,28.891
	c0.713,4.422,4.534,7.568,8.874,7.568c0.476,0,0.959-0.038,1.443-0.116c4.907-0.792,8.244-5.411,7.452-10.318
	c-3.879-24.055,16.896-38.716,18.774-39.986c9.178-5.613,19.774-8.296,30.628-7.762c27.214,1.345,49.538,23.723,50.823,50.944
	c0.985,20.921-10.383,40.642-28.973,50.247c-7.625,3.955-15.895,5.96-24.577,5.96c-5.375,0-10.689-0.795-15.791-2.362
	c-22.916-7.055-48.46-10.106-75.904-9.073c-0.465,0.016-0.931,0.024-1.404,0.024c-9.42,0-18.295-3.623-25.028-10.209
	c-1.526-1.631-3.656-2.697-6.049-2.836c-4.762-0.279-8.909,3.205-9.462,7.94c-1.34,11.468-8.208,21.393-17.892,26.917
	C153.685,115.865,156.815,90.238,158.006,80.491z M150.622,155.725c15.119-4.857,27.331-16.28,33.336-30.786
	c7.957,4.483,16.97,6.869,26.343,6.869c0.687,0,1.361-0.012,2.06-0.036c25.436-0.96,48.975,1.829,69.959,8.29
	c6.821,2.094,13.914,3.156,21.081,3.156c7.609,0,15.189-1.223,22.373-3.578c0.85,4.94,1.277,9.967,1.277,15.029v99
	c0,14.056-8.9,26.644-22.149,31.324l-16.57,5.856v-41.324c0-18.172-14.784-32.957-32.957-32.957h-33.076
	c-18.172,0-32.957,14.784-32.957,32.957v41.322l-16.562-5.855c-13.253-4.682-22.158-17.27-22.158-31.324V155.725z M238.837,380.762
	l-13.651-25.025h27.302L238.837,380.762z M262.306,337.737h-46.939l-12.569-23.043l9.955,3.519c8.413,2.973,17.251,4.46,26.088,4.46
	c8.836,0,17.672-1.487,26.08-4.46l9.954-3.518L262.306,337.737z M270.332,297.21l-11.411,4.033
	c-3.611,1.277-7.325,2.184-11.084,2.749v-22.929c0-4.97-4.029-9-9-9s-9,4.03-9,9v22.928c-3.758-0.565-7.474-1.472-11.085-2.748
	l-11.41-4.033v-47.685c0-8.247,6.709-14.957,14.957-14.957h33.076c8.247,0,14.957,6.709,14.957,14.957V297.21z M166.782,301.963
	l10.614,3.752l52.441,96.137v57.825h-21.035l-38.434-50.325l28.93-28.93c2.526-2.526,3.319-6.306,2.021-9.634
	s-4.441-5.573-8.01-5.722l-28.725-1.197l-9.076-53.217c3.141-3.233,6.479-6.295,10.008-9.164
	C165.937,301.649,166.356,301.813,166.782,301.963z M122.484,391.817c0-22.205,6.424-43.717,18.017-62.097l7.564,44.352
	c0.714,4.185,4.255,7.302,8.498,7.479l15.506,0.646l-19.996,19.996c-3.188,3.188-3.525,8.243-0.789,11.827l34.869,45.658h-63.669
	V391.817z M355.193,459.677h-63.673l34.869-45.658c2.737-3.583,2.399-8.638-0.788-11.826l-19.996-19.996l15.507-0.646
	c4.241-0.177,7.783-3.294,8.497-7.479l7.589-44.497c11.719,18.441,17.995,39.858,17.995,62.243V459.677z M321.119,309.541
	c0.355,0.356,0.701,0.718,1.052,1.077l-9.082,53.251l-28.725,1.197c-3.568,0.149-6.712,2.394-8.01,5.722s-0.505,7.108,2.021,9.634
	l28.93,28.93l-38.432,50.325h-21.036v-57.824l52.439-96.134l10.623-3.754c0.425-0.15,0.844-0.314,1.263-0.474
	C315.276,304.021,318.282,306.704,321.119,309.541z"/>
<g>
</g>
<g>
</g>
<g>
</g>
<g>
</g>
<g>
</g>
<g>
</g>
<g>
</g>
<g>
</g>
<g>
</g>
<g>
</g>
<g>
</g>
<g>
</g>
<g>
</g>
<g>
</g>
<g>
</g>
</svg>
