<?xml version="1.0" encoding="iso-8859-1"?>
<!-- Generator: Adobe Illustrator 18.0.0, SVG Export Plug-In . SVG Version: 6.00 Build 0)  -->
<!DOCTYPE svg PUBLIC "-//W3C//DTD SVG 1.1//EN" "http://www.w3.org/Graphics/SVG/1.1/DTD/svg11.dtd">
<svg version="1.1" id="Capa_1" xmlns="http://www.w3.org/2000/svg" xmlns:xlink="http://www.w3.org/1999/xlink" x="0px" y="0px"
	 viewBox="0 0 443.227 443.227" style="enable-background:new 0 0 443.227 443.227;" xml:space="preserve">
<path d="M327.826,191.761c21.824-4.217,38.36-23.455,38.36-46.491v-8.508c0-16.53-13.448-29.979-29.979-29.979h-8.381v-0.571
	C327.826,47.646,280.179,0,221.613,0c-58.565,0-106.212,47.646-106.212,106.212v0.571h-8.381c-16.53,0-29.979,13.448-29.979,29.979
	v8.508c0,23.036,16.536,42.274,38.36,46.491v4.909c0,16.629,6.545,32.178,17.549,43.716c-5.099,6.675-7.678,14.866-7.447,23.113
	c-24.692,25.224-38.243,58.382-38.243,93.868v76.86c0,4.97,4.029,9,9,9h250.71c4.971,0,9-4.03,9-9v-76.86
	c0-35.359-13.57-68.624-38.233-93.863c0.233-8.252-2.348-16.449-7.453-23.127c10.999-11.537,17.541-27.083,17.541-43.707V191.761z
	 M336.207,124.783c6.605,0,11.979,5.374,11.979,11.979v8.508c0,13.05-8.561,24.133-20.36,27.943v-48.429H336.207z M133.401,106.212
	c0-48.64,39.572-88.212,88.212-88.212c48.64,0,88.212,39.572,88.212,88.212v90.457c0,19.165-12.14,36.333-30.209,42.72
	l-37.915,13.402c-12.954,4.579-27.222,4.579-40.176,0l-37.915-13.402c-18.069-6.387-30.209-23.555-30.209-42.72V106.212z
	 M297.528,271.224l-29.523,54.27l-24.739-18.354c24.893-7.627,44.552-28.075,50.499-54.336c0.799-0.417,1.587-0.848,2.363-1.296
	C300.313,257.137,301.008,264.829,297.528,271.224z M221.616,292.387c-21.705,0-40.958-12.473-50.198-31.147l24.109,8.522
	c8.411,2.973,17.249,4.46,26.087,4.46c8.838,0,17.676-1.487,26.087-4.46l24.108-8.522
	C262.559,279.915,243.308,292.387,221.616,292.387z M147.109,251.514c0.775,0.447,1.562,0.878,2.359,1.293
	c5.937,26.265,25.597,46.714,50.503,54.337l-24.733,18.35l-29.523-54.27C142.237,264.831,142.929,257.143,147.109,251.514z
	 M95.042,145.27v-8.508c0-6.605,5.374-11.979,11.979-11.979h8.381v48.429C103.603,169.403,95.042,158.32,95.042,145.27z
	 M105.261,357.367c0-27.428,9.35-53.249,26.561-74.013l32.553,59.841c1.245,2.289,3.422,3.927,5.967,4.488
	c2.544,0.562,5.208-0.008,7.302-1.561l34.977-25.951v105.056h-107.36V357.367z M337.971,425.227h-107.35V320.171l34.978,25.951
	c1.565,1.161,3.449,1.772,5.363,1.772c0.646,0,1.296-0.07,1.938-0.211c2.545-0.561,4.722-2.198,5.967-4.488l32.55-59.835
	c17.195,20.789,26.554,46.676,26.554,74.007V425.227z"/>
<g>
</g>
<g>
</g>
<g>
</g>
<g>
</g>
<g>
</g>
<g>
</g>
<g>
</g>
<g>
</g>
<g>
</g>
<g>
</g>
<g>
</g>
<g>
</g>
<g>
</g>
<g>
</g>
<g>
</g>
</svg>
