<?xml version="1.0" encoding="iso-8859-1"?>
<!-- Generator: Adobe Illustrator 18.0.0, SVG Export Plug-In . SVG Version: 6.00 Build 0)  -->
<!DOCTYPE svg PUBLIC "-//W3C//DTD SVG 1.1//EN" "http://www.w3.org/Graphics/SVG/1.1/DTD/svg11.dtd">
<svg version="1.1" id="Capa_1" xmlns="http://www.w3.org/2000/svg" xmlns:xlink="http://www.w3.org/1999/xlink" x="0px" y="0px"
	 viewBox="0 0 471.744 471.744" style="enable-background:new 0 0 471.744 471.744;" xml:space="preserve">
<path d="M342.086,246.464v-18.348c21.823-4.217,38.358-23.455,38.358-46.491v-6.877c0-17.429-14.18-31.609-31.609-31.609h-6.842
	c-1.064-26.749-11.976-51.743-31.012-70.779c-10.882-10.882-24.041-19.28-38.389-24.572l2.757-31.254
	c0.333-3.779-1.738-7.36-5.18-8.956c-21.796-10.105-46.797-10.105-68.592,0c-3.441,1.595-5.513,5.177-5.18,8.956l2.758,31.266
	c-18.796,6.953-35.573,19.296-47.794,35.322c-13.324,17.473-20.753,38.141-21.618,60.016h-6.833
	c-17.43,0-31.609,14.18-31.609,31.609v6.877c0,23.035,16.534,42.272,38.356,46.49v18.348c0,15.04,6.622,28.991,17.506,38.538
	c-28.78,25.359-45.646,62.21-45.646,100.882v76.86c0,4.97,4.029,9,9,9h250.71c4.971,0,9-4.03,9-9v-76.86
	c0-35.892-13.973-69.632-39.346-95.004c-2.027-2.027-4.141-3.976-6.298-5.874C335.465,275.46,342.086,261.507,342.086,246.464z
	 M362.444,174.749v6.877c0,13.049-8.56,24.132-20.358,27.942v-48.429h6.749C356.339,161.139,362.444,167.245,362.444,174.749z
	 M109.3,181.626v-6.877c0-7.504,6.105-13.609,13.609-13.609h6.747v48.428C117.859,205.757,109.3,194.674,109.3,181.626z
	 M256.834,21.57l-5.044,57.174h-31.835L214.91,21.57C228.494,16.815,243.251,16.815,256.834,21.57z M147.656,147.464
	c0-35.285,21.378-67.143,53.149-80.953l1.943,22.024c0.41,4.646,4.301,8.209,8.965,8.209h48.318c4.664,0,8.555-3.563,8.965-8.209
	l1.944-22.033c10.137,4.401,19.439,10.713,27.312,18.586c16.659,16.659,25.833,38.811,25.833,62.376v99
	c0,14.054-8.902,26.646-22.149,31.334l-45.981,16.25c-12.947,4.579-27.214,4.578-40.17,0L169.818,277.8
	c-13.256-4.691-22.162-17.284-22.162-31.336V147.464z M197.425,306.65l12.362,4.37c8.413,2.973,17.251,4.46,26.088,4.46
	s17.673-1.487,26.08-4.46l12.36-4.368v22.483c0,21.201-17.244,38.45-38.44,38.45c-21.202,0-38.45-17.249-38.45-38.45V306.65z
	 M318.152,303.608c21.973,21.973,34.074,51.192,34.074,82.276v67.86h-232.71v-67.86c0-35.488,16.406-69.203,44.109-91.186
	c0.064,0.023,0.127,0.049,0.191,0.072l15.609,5.518v28.847c0,31.127,25.323,56.45,56.45,56.45c31.121,0,56.44-25.323,56.44-56.45
	V300.29l15.623-5.521c0.068-0.024,0.134-0.052,0.202-0.076C311.638,297.469,314.995,300.451,318.152,303.608z"/>
<g>
</g>
<g>
</g>
<g>
</g>
<g>
</g>
<g>
</g>
<g>
</g>
<g>
</g>
<g>
</g>
<g>
</g>
<g>
</g>
<g>
</g>
<g>
</g>
<g>
</g>
<g>
</g>
<g>
</g>
</svg>
