<?xml version="1.0" encoding="iso-8859-1"?>
<!-- Generator: Adobe Illustrator 18.0.0, SVG Export Plug-In . SVG Version: 6.00 Build 0)  -->
<!DOCTYPE svg PUBLIC "-//W3C//DTD SVG 1.1//EN" "http://www.w3.org/Graphics/SVG/1.1/DTD/svg11.dtd">
<svg version="1.1" id="Capa_1" xmlns="http://www.w3.org/2000/svg" xmlns:xlink="http://www.w3.org/1999/xlink" x="0px" y="0px"
	 viewBox="0 0 456.285 456.285" style="enable-background:new 0 0 456.285 456.285;" xml:space="preserve">
<path d="M372.505,137.735c1.308-0.34,2.539-0.975,3.59-1.876c2.022-1.734,3.173-4.274,3.142-6.938
	c-0.565-48.692-30.531-83.019-43.512-95.625l6.922-11.682c1.394-2.351,1.644-5.208,0.679-7.766s-3.04-4.537-5.639-5.382
	c-44.16-14.352-73.346-7.805-90.057,0.213c-8.758,4.203-15.119,9.189-19.486,13.435c-4.367-4.246-10.729-9.232-19.487-13.435
	c-16.71-8.019-45.898-14.565-90.057-0.213c-2.599,0.845-4.674,2.825-5.639,5.382s-0.715,5.415,0.679,7.766l6.922,11.682
	c-12.98,12.606-42.945,46.934-43.512,95.625c-0.031,2.664,1.119,5.204,3.142,6.938c1.052,0.901,2.281,1.536,3.59,1.877
	c-10.01,20.54-19.312,59.305,3.176,119.124c1.007,2.678,3.227,4.718,5.98,5.495c2.758,0.778,5.714,0.199,7.97-1.558l1.775-1.38
	c0.063,12.588,2.208,28.487,10.584,41.47c-12.542,20.74-19.475,44.763-19.475,69.539v76.86c0,4.971,4.029,9,9,9h250.71
	c4.971,0,9-4.029,9-9v-76.86c0-24.957-6.762-48.869-19.408-69.654c8.315-12.962,10.447-28.805,10.51-41.355l1.775,1.38
	c2.258,1.756,5.216,2.335,7.97,1.558c2.754-0.777,4.974-2.817,5.98-5.495C391.816,197.041,382.513,158.275,372.505,137.735z
	 M344.502,438.285h-232.71v-67.86c0-34.016,15.073-66.404,40.721-88.393v90.66c0,20.893,16.997,37.89,37.89,37.89h75.49
	c20.893,0,37.89-16.998,37.89-37.89v-90.689c2.293,1.964,4.515,4.016,6.646,6.146c21.974,21.972,34.074,51.191,34.074,82.275
	V438.285z M122.552,192.799c-5.358-5.517-8.31-12.765-8.31-20.467c0-6.406,2.983-12.208,7.69-15.989v22.819
	C121.932,183.712,122.148,188.264,122.552,192.799z M139.932,151.245c16.279-2.131,52.434-9.481,81.702-34.208l9.123,30.563
	c1.415,4.738,6.39,7.446,11.133,6.069c0.729-0.211,13.647-4.084,25.853-15.586c1.019,2.372,2.26,4.832,3.77,7.302
	c6.669,10.915,19.754,23.705,44.84,26.2v7.577c0,9.556-1.016,19.131-3.021,28.463c-7.965,37.137-31.347,69.433-64.152,88.608
	c-12.973,7.587-29.091,7.588-42.065-0.001c-20.407-11.928-37.419-29.073-49.197-49.581c-6.985-12.168-12.021-25.298-14.966-39.029
	c-2.003-9.326-3.019-18.901-3.019-28.46V151.245z M334.352,179.162v-22.83c4.716,3.781,7.7,9.59,7.7,16
	c0,7.702-2.947,14.953-8.308,20.465C334.149,188.263,334.352,183.71,334.352,179.162z M228.147,366.692c-4.971,0-9,4.029-9,9v16.89
	h-28.745c-10.967,0-19.89-8.923-19.89-19.89v-39.604c15.89,13.514,36.209,21.164,57.63,21.164c21.43,0,41.752-7.653,57.64-21.171
	v39.611c0,10.967-8.923,19.89-19.89,19.89h-28.745v-16.89C237.147,370.721,233.118,366.692,228.147,366.692z M285.782,306.705
	c-13.348,18.548-34.697,29.547-57.64,29.547c-22.928,0-44.274-10.992-57.63-29.529v-15.5c8.352,7.829,17.576,14.738,27.516,20.548
	c9.29,5.433,19.703,8.149,30.119,8.148c10.413,0,20.83-2.716,30.117-8.147c9.988-5.838,19.204-12.751,27.518-20.555V306.705z
	 M356.512,238.875l-8.083-6.287c-2.977-2.315-7.082-2.529-10.282-0.536c-3.201,1.993-4.82,5.771-4.057,9.463
	c1.593,7.698,3.381,27.455-2.76,42.85c-2.578-3.081-5.299-6.068-8.174-8.943c-4.352-4.353-9.043-8.407-13.944-12.121
	c9.33-14.236,16.326-30.028,20.528-46.776c6.132-2.363,11.739-6.001,16.436-10.698c8.949-8.948,13.877-20.843,13.877-33.494
	c0-16.555-10.614-30.971-25.7-36.292v-5.681c0-4.971-4.029-9-9-9s-9,4.029-9,9v23.109c-13.28-1.703-23.063-7.363-29.132-16.908
	c-5.726-9.006-6.174-18.418-6.176-18.459c-0.115-4.02-2.883-7.476-6.78-8.465c-3.902-0.987-7.979,0.726-9.999,4.204
	c-5.521,9.507-13.33,15.399-19.199,18.763l-10.394-34.818c-0.927-3.104-3.45-5.471-6.607-6.197c-3.159-0.725-6.461,0.302-8.651,2.69
	c-20.771,22.659-49.598,32.508-68.73,36.734c5.383-9.03,10.365-20.203,10.365-30.653c0-4.971-4.029-9-9-9s-9,4.029-9,9
	c0,11.134-10.864,26.927-16.932,34.462c-17.268,3.948-29.874,19.462-29.874,37.511c0,12.645,4.923,24.539,13.866,33.494
	c4.697,4.697,10.309,8.319,16.443,10.682c3.43,13.703,8.712,26.837,15.756,39.106c1.505,2.621,3.096,5.186,4.749,7.707
	c-8.212,6.225-15.603,13.326-22.084,21.121c-3.052-7.583-4.046-15.927-4.25-22.526c-0.35-11.297,1.457-20.325,1.473-20.401
	c0.764-3.692-0.855-7.47-4.057-9.463c-3.203-1.994-7.308-1.779-10.282,0.536l-8.083,6.287c-7.146-22.594-12.356-51.615-5.238-78.402
	c4.959-18.664,13.735-27.608,13.769-27.643c2.833-2.739,3.556-7.002,1.782-10.521c-1.773-3.518-5.626-5.479-9.517-4.827l-4.801,0.8
	c5.592-46.113,41.562-75.95,41.94-76.258c3.474-2.81,4.36-7.742,2.082-11.586l-4.758-8.029
	c63.065-16.292,84.487,16.824,85.373,18.252c1.622,2.729,4.563,4.402,7.737,4.402s6.115-1.673,7.737-4.402
	c0.22-0.368,21.521-34.716,85.371-18.25l-4.757,8.027c-2.278,3.844-1.392,8.776,2.082,11.586
	c0.391,0.316,36.373,29.942,41.946,76.259l-4.807-0.801c-3.887-0.649-7.771,1.281-9.544,4.8s-1.079,7.755,1.754,10.494
	c0.089,0.088,8.865,9.032,13.824,27.696C368.869,187.259,363.659,216.28,356.512,238.875z"/>
<g>
</g>
<g>
</g>
<g>
</g>
<g>
</g>
<g>
</g>
<g>
</g>
<g>
</g>
<g>
</g>
<g>
</g>
<g>
</g>
<g>
</g>
<g>
</g>
<g>
</g>
<g>
</g>
<g>
</g>
</svg>
