<?xml version="1.0" encoding="iso-8859-1"?>
<!-- Generator: Adobe Illustrator 18.0.0, SVG Export Plug-In . SVG Version: 6.00 Build 0)  -->
<!DOCTYPE svg PUBLIC "-//W3C//DTD SVG 1.1//EN" "http://www.w3.org/Graphics/SVG/1.1/DTD/svg11.dtd">
<svg version="1.1" id="Capa_1" xmlns="http://www.w3.org/2000/svg" xmlns:xlink="http://www.w3.org/1999/xlink" x="0px" y="0px"
	 viewBox="0 0 439.294 439.294" style="enable-background:new 0 0 439.294 439.294;" xml:space="preserve">
<path d="M364.371,247.552l-24.049-54.11c1.882-1.393,3.674-2.927,5.355-4.608c8.948-8.948,13.876-20.843,13.876-33.494
	c0-11.995-5.518-22.724-14.146-29.788l0.253-13.822c0.788-43.381-24.014-83.464-63.188-102.118l-8.307-3.956
	c-17.672-8.417-38.012-7.339-54.519,2.554c-16.511-9.892-36.849-10.969-54.522-2.553l-8.304,3.954
	C117.648,28.266,92.846,68.349,93.634,111.73l0.252,13.824c-8.627,7.064-14.144,17.792-14.144,29.786
	c0,12.645,4.923,24.538,13.871,33.499c1.681,1.679,3.474,3.212,5.356,4.604l-24.048,54.108c-1.159,2.609-1.012,5.614,0.397,8.098
	c0.542,0.955,10.974,18.912,31.134,25.524c-13.608,21.345-21.162,46.394-21.162,72.26v76.86c0,4.971,4.029,9,9,9h250.71
	c4.971,0,9-4.029,9-9v-76.86c0-26.019-7.349-50.904-21.056-72.294c20.091-6.641,30.487-24.537,31.028-25.49
	C365.383,253.166,365.531,250.161,364.371,247.552z M332.949,176.107c-2.462,2.462-5.304,4.431-8.386,5.864
	c0.853-6.569,1.294-13.19,1.294-19.804V135.44c8.99,2.167,15.696,10.255,15.696,19.9
	C341.553,163.183,338.497,170.558,332.949,176.107z M111.631,111.403c-0.66-36.338,20.115-69.915,52.928-85.539l8.304-3.954
	c13.558-6.455,29.39-4.803,41.32,4.313c3.227,2.464,7.702,2.465,10.929-0.001c11.929-9.116,27.758-10.771,41.315-4.313l8.307,3.956
	c32.813,15.625,53.589,49.201,52.929,85.539l-0.109,6.006c-0.685-0.117-1.376-0.217-2.073-0.297
	c-1.152-13.618-9.646-25.544-22.167-31.125c-12.532-5.584-26.504-4.005-37.378,4.226c-13.41,10.152-29.418,15.519-46.294,15.519
	c-16.87,0-32.876-5.366-46.286-15.519c-10.875-8.231-24.849-9.811-37.377-4.225c-12.521,5.581-21.015,17.507-22.166,31.125
	c-0.697,0.08-1.387,0.18-2.072,0.297L111.631,111.403z M219.647,335.507c-4.971,0-9,4.029-9,9v23.292
	c-29.243-28.869-44.131-70.63-50.878-95.724c8.931,8.718,18.912,16.371,29.758,22.712c9.289,5.427,19.703,8.14,30.119,8.14
	c10.415,0,20.832-2.714,30.123-8.141c10.892-6.368,20.865-14.032,29.761-22.736c-6.744,25.093-21.632,66.87-50.883,95.748v-23.292
	C228.647,339.536,224.617,335.507,219.647,335.507z M240.687,279.246c-12.978,7.583-29.104,7.581-42.077,0.002
	c-20.419-11.94-37.428-29.088-49.186-49.587c-6.804-11.869-11.757-24.634-14.726-37.95c-2.164-9.67-3.262-19.61-3.262-29.544
	v-36.126l0.326-7.577c0.659-7.117,4.964-13.103,11.542-16.035c6.451-2.873,13.623-2.076,19.185,2.136
	c16.564,12.539,36.327,19.167,57.151,19.167c20.831,0,40.596-6.628,57.159-19.167c5.563-4.212,12.733-5.011,19.186-2.137
	c6.583,2.934,10.89,8.926,11.546,16.049c0.148,3.223,0.306,6.786,0.325,7.455v36.236c0,9.778-1.064,19.581-3.164,29.143
	c-0.036,0.135-0.07,0.271-0.101,0.409C296.415,228.381,273.121,260.284,240.687,279.246z M113.437,135.441v26.726
	c0,6.621,0.442,13.243,1.296,19.804c-3.085-1.433-5.928-3.4-8.392-5.859c-5.545-5.553-8.599-12.93-8.599-20.771
	C97.742,145.696,104.448,137.608,113.437,135.441z M93.408,250.28l21.819-49.094c1.143,0.295,2.298,0.553,3.466,0.762
	c3.429,12.803,8.493,25.113,15.117,36.667c1.504,2.623,3.095,5.189,4.748,7.712c-7.483,5.672-14.286,12.071-20.338,19.061
	C105.706,263.97,97.283,255.282,93.408,250.28z M336.001,421.294h-27.335c9.688-10.263,15.647-24.084,15.647-39.279v-36.877
	c0-4.971-4.029-9-9-9s-9,4.029-9,9v36.877c0,21.658-17.62,39.279-39.278,39.279h-94.776c-21.658,0-39.278-17.621-39.278-39.279
	v-36.877c0-4.971-4.029-9-9-9s-9,4.029-9,9v36.877c0,15.195,5.958,29.015,15.647,39.279h-27.335v-67.86
	c0-32.298,13.587-63.13,36.914-84.985c6.757,28.875,26.344,91.597,74.181,126.061c1.571,1.132,3.416,1.698,5.261,1.698
	s3.69-0.566,5.261-1.698c47.845-34.471,67.431-97.209,74.184-126.078c0.958,0.896,1.909,1.8,2.835,2.726
	c21.974,21.974,34.074,51.193,34.074,82.276V421.294z M321.135,265.381c-2.07-2.379-4.228-4.7-6.479-6.951
	c-4.353-4.353-9.044-8.407-13.945-12.121c8.881-13.551,15.633-28.517,19.885-44.358c1.169-0.209,2.325-0.468,3.47-0.763
	l21.819,49.091C342.003,255.289,333.608,263.94,321.135,265.381z"/>
<g>
</g>
<g>
</g>
<g>
</g>
<g>
</g>
<g>
</g>
<g>
</g>
<g>
</g>
<g>
</g>
<g>
</g>
<g>
</g>
<g>
</g>
<g>
</g>
<g>
</g>
<g>
</g>
<g>
</g>
</svg>
