<?xml version="1.0" encoding="iso-8859-1"?>
<!-- Generator: Adobe Illustrator 18.0.0, SVG Export Plug-In . SVG Version: 6.00 Build 0)  -->
<!DOCTYPE svg PUBLIC "-//W3C//DTD SVG 1.1//EN" "http://www.w3.org/Graphics/SVG/1.1/DTD/svg11.dtd">
<svg version="1.1" id="Capa_1" xmlns="http://www.w3.org/2000/svg" xmlns:xlink="http://www.w3.org/1999/xlink" x="0px" y="0px"
	 viewBox="0 0 441.223 441.223" style="enable-background:new 0 0 441.223 441.223;" xml:space="preserve">
<path d="M338.827,197.066c2.793-1.805,5.417-3.905,7.813-6.302c8.978-8.978,13.906-20.913,13.876-33.608
	c-0.036-15.089-8.888-28.167-21.69-34.432v-4.514C338.827,53.029,285.793,0,220.606,0c-65.181,0-118.21,53.029-118.21,118.21v4.437
	c-13.048,6.341-21.69,19.724-21.69,34.623c0,12.644,4.923,24.537,13.866,33.494c2.396,2.396,5.012,4.502,7.824,6.315v94.57
	c-10.431,19.356-16.142,41.226-16.142,63.714v76.86c0,4.971,4.029,9,9,9h250.71c4.971,0,9-4.029,9-9v-76.86
	c0-22.711-5.601-44.556-16.138-63.969V197.066z M315.619,260.359c-4.353-4.353-9.043-8.407-13.942-12.12
	c8.385-12.788,14.871-26.838,19.15-41.692v59.326C319.146,263.997,317.414,262.155,315.619,260.359z M220.612,344.066
	c-4.971,0-9,4.029-9,9V367.4h-6.758c-20.902,0-37.907-17.005-37.907-37.907v-49.739c7.277,6.36,15.154,12.052,23.546,16.955
	c9.29,5.433,19.703,8.149,30.119,8.148c10.414-0.001,20.83-2.717,30.117-8.148c8.423-4.924,16.294-10.626,23.547-16.979v49.762
	c0,20.902-17.005,37.907-37.907,37.907h-6.758v-14.333C229.612,348.096,225.582,344.066,220.612,344.066z M132.396,140.938
	c21.687,5.969,46.073,7.593,70.942,4.499c31.627-3.936,61.342-15.047,84.547-31.509l20.94,17.985V164.1
	c0,9.933-1.098,19.873-3.264,29.55c-8.178,36.654-31.475,68.554-63.919,87.521c-12.973,7.587-29.09,7.586-42.066-0.001
	c-20.417-11.93-37.429-29.074-49.192-49.576c-6.805-11.87-11.758-24.635-14.726-37.95c-2.165-9.671-3.263-19.611-3.263-29.543
	V140.938z M333.912,178.036c-2.461,2.461-5.302,4.429-8.381,5.862c0.853-6.561,1.296-13.18,1.296-19.798v-26.679
	c8.978,2.233,15.667,10.241,15.69,19.777C342.535,165.069,339.479,172.469,333.912,178.036z M320.827,118.492L301.59,101.97
	c4.144-4.939,8.848-12.26,11.591-22.138c4.922,11.827,7.646,24.789,7.646,38.377V118.492z M220.606,18
	c30.681,0,58.181,13.862,76.58,35.645l-0.317,0.046c3.503,24.172-8.612,36.922-12.578,40.383c-0.655,0.571-2.239,1.77-2.565,2.022
	c-21.318,16.492-49.888,27.656-80.611,31.479c-28.099,3.495-55.314,0.426-77.72-8.615v-0.181h-0.434
	c-0.858-0.35-1.716-0.699-2.56-1.067C120.672,62.685,165.517,18,220.606,18z M113.809,137.501c0.193-0.054,0.392-0.094,0.588-0.142
	V164.1c0,6.62,0.442,13.242,1.296,19.803c-3.123-1.452-5.941-3.416-8.387-5.862c-5.545-5.553-8.599-12.93-8.599-20.771
	C98.706,148.061,104.901,139.936,113.809,137.501z M120.396,206.51c3.404,11.857,8.204,23.277,14.374,34.039
	c1.505,2.622,3.095,5.188,4.748,7.71c-6.986,5.295-13.379,11.223-19.122,17.674V206.51z M336.965,423.223h-22.831
	c6.959-8.477,11.143-19.315,11.143-31.113v-45.043c0-4.971-4.029-9-9-9s-9,4.029-9,9v45.043c0,17.156-13.958,31.113-31.113,31.113
	H165.057c-17.156,0-31.113-13.958-31.113-31.113v-45.043c0-4.971-4.029-9-9-9c-4.971,0-9,4.029-9,9v45.043
	c0,11.798,4.184,22.636,11.143,31.113h-22.832v-67.86c0-35.736,16.634-69.679,44.692-91.651v65.781
	c0,30.827,25.08,55.907,55.907,55.907h31.516c30.827,0,55.907-25.08,55.907-55.907v-65.798c3.715,2.909,7.276,6.053,10.615,9.393
	c21.973,21.972,34.074,51.191,34.074,82.275V423.223z"/>
<g>
</g>
<g>
</g>
<g>
</g>
<g>
</g>
<g>
</g>
<g>
</g>
<g>
</g>
<g>
</g>
<g>
</g>
<g>
</g>
<g>
</g>
<g>
</g>
<g>
</g>
<g>
</g>
<g>
</g>
</svg>
