<?xml version="1.0" encoding="iso-8859-1"?>
<!-- Generator: Adobe Illustrator 18.0.0, SVG Export Plug-In . SVG Version: 6.00 Build 0)  -->
<!DOCTYPE svg PUBLIC "-//W3C//DTD SVG 1.1//EN" "http://www.w3.org/Graphics/SVG/1.1/DTD/svg11.dtd">
<svg version="1.1" id="Capa_1" xmlns="http://www.w3.org/2000/svg" xmlns:xlink="http://www.w3.org/1999/xlink" x="0px" y="0px"
	 viewBox="0 0 476.36 476.36" style="enable-background:new 0 0 476.36 476.36;" xml:space="preserve">
<g>
	<path d="M333.188,295.496c-4.454-4.454-9.259-8.595-14.282-12.376c1.868-2.557,3.652-5.184,5.34-7.882
		c8.61-13.759,14.549-28.889,17.645-44.651c6.748-2.029,12.881-5.691,17.947-10.757c8.109-8.11,12.576-18.89,12.576-30.354
		c0-18.299-11.453-34.213-28.113-40.302c-1.73-44.511-30.978-82.076-71.174-96.123c6.095-5.56,9.718-12.652,9.718-20.483
		C282.847,14.306,263.226,0,238.18,0s-44.667,14.306-44.667,32.568c0,7.83,3.624,14.923,9.719,20.483
		c-40.195,14.046-69.443,51.609-71.174,96.119c-16.66,6.083-28.113,21.998-28.113,40.306c0,11.463,4.466,22.243,12.569,30.347
		c5.058,5.069,11.193,8.734,17.953,10.764c3.096,15.762,9.035,30.892,17.645,44.65c1.689,2.699,3.473,5.327,5.342,7.885
		c-33.619,25.303-53.63,65.259-53.63,107.378v76.86c0,4.971,4.029,9,9,9h250.71c4.971,0,9-4.029,9-9V390.5
		C372.535,354.608,358.561,320.868,333.188,295.496z M246.183,368.177v90.182h-16v-90.182c0-4.062-2.721-7.621-6.641-8.686
		c-23.06-6.262-39.47-26.681-40.913-50.331c7.341,5.754,15.304,10.745,23.785,14.867l1.898,0.922
		c9.492,4.614,19.679,6.92,29.869,6.92c10.188,0,20.378-2.307,29.867-6.919l1.899-0.923l0.001,0
		c8.478-4.121,16.44-9.112,23.78-14.864c-1.445,23.648-17.85,44.065-40.904,50.329C248.904,360.557,246.183,364.115,246.183,368.177
		z M354.415,189.476c0,6.656-2.594,12.916-7.304,17.626c-0.879,0.879-1.816,1.681-2.797,2.411c0.049-1.478,0.078-2.958,0.078-4.44
		v-35.577C350.528,174.071,354.415,181.363,354.415,189.476z M211.513,32.568C211.513,24.23,225.592,18,238.18,18
		s26.667,6.23,26.667,14.568s-14.079,14.568-26.667,14.568S211.513,40.906,211.513,32.568z M238.18,65.137
		c38.251,0,70.888,24.475,83.088,58.585c-0.558,0.039-1.119,0.066-1.685,0.066c-2.697,0-5.338-0.448-7.848-1.333
		c-10.463-3.687-22.269-2.735-32.394,2.615c-12.589,6.652-26.821,10.168-41.158,10.168c-14.338,0-28.567-3.515-41.149-10.165
		c-10.129-5.354-21.942-6.307-32.408-2.618c-2.508,0.884-5.146,1.332-7.842,1.332c-0.568,0-1.131-0.027-1.691-0.066
		C167.291,89.612,199.929,65.137,238.18,65.137z M129.249,207.102c-4.71-4.71-7.304-10.97-7.304-17.626
		c0-8.119,3.887-15.413,10.023-19.987v35.584c0,1.484,0.028,2.965,0.078,4.443C131.064,208.786,130.128,207.982,129.249,207.102z
		 M149.968,205.073v-51.724c0-4.069,0.283-8.072,0.819-11.996c1.971,0.284,3.971,0.435,5.996,0.435c4.739,0,9.39-0.793,13.826-2.356
		c5.747-2.026,12.312-1.458,18.014,1.555c15.164,8.014,32.301,12.25,49.56,12.25c17.257,0,34.397-4.237,49.567-12.252
		c5.699-3.011,12.261-3.578,18.001-1.554c4.438,1.564,9.091,2.357,13.831,2.357c2.023,0,4.021-0.151,5.99-0.435
		c0.536,3.924,0.819,7.927,0.819,11.996v51.724c0,21.462-6.018,42.422-17.404,60.615c-11.385,18.193-27.606,32.768-46.908,42.149
		l-1.901,0.924c-13.98,6.795-30.019,6.796-44.001-0.001l-1.898-0.922c-19.302-9.382-35.523-23.957-46.909-42.15
		C155.986,247.495,149.968,226.535,149.968,205.073z M121.825,390.5c0-34.97,15.926-68.224,42.899-90.223
		c-0.135,1.823-0.211,3.654-0.211,5.491c0,30.827,19.284,58.252,47.67,68.948v83.644h-90.358V390.5z M354.535,458.36h-90.352
		v-83.645c28.38-10.697,47.66-38.122,47.66-68.947c0-1.836-0.076-3.667-0.211-5.49c3.068,2.502,6.032,5.148,8.829,7.945
		c21.973,21.974,34.074,51.193,34.074,82.276V458.36z"/>
	<path d="M287.323,390.689c-1.379-3.45-4.969-5.703-8.664-5.552c-3.791,0.154-7.155,2.751-8.254,6.382
		c-1.08,3.566,0.204,7.533,3.177,9.781c2.975,2.25,7.14,2.415,10.282,0.405C287.464,399.4,289.008,394.646,287.323,390.689
		C287.103,390.139,287.553,391.229,287.323,390.689z"/>
	<path d="M287.323,426.019c-1.399-3.44-4.958-5.704-8.664-5.553c-3.785,0.154-7.156,2.757-8.254,6.382
		c-1.082,3.574,0.209,7.529,3.177,9.79c2.965,2.259,7.147,2.397,10.282,0.405C287.47,434.751,289.003,429.965,287.323,426.019
		C287.103,425.479,287.553,426.559,287.323,426.019z"/>
	<path d="M189.033,397.569c1.46,3.424,4.918,5.704,8.664,5.552c3.801-0.154,7.14-2.755,8.256-6.382
		c1.091-3.548-0.204-7.56-3.178-9.786c-2.995-2.242-7.115-2.418-10.273-0.401C188.856,388.881,187.408,393.575,189.033,397.569
		C189.263,398.109,188.813,397.029,189.033,397.569z"/>
	<path d="M205.653,426.019c-1.399-3.439-4.95-5.704-8.657-5.553c-3.787,0.155-7.156,2.755-8.253,6.382
		c-1.08,3.569,0.197,7.537,3.177,9.79c2.975,2.248,7.132,2.403,10.275,0.405C205.803,434.748,207.335,429.969,205.653,426.019
		C205.433,425.479,205.883,426.559,205.653,426.019z"/>
</g>
<g>
</g>
<g>
</g>
<g>
</g>
<g>
</g>
<g>
</g>
<g>
</g>
<g>
</g>
<g>
</g>
<g>
</g>
<g>
</g>
<g>
</g>
<g>
</g>
<g>
</g>
<g>
</g>
<g>
</g>
</svg>
