<?xml version="1.0" encoding="iso-8859-1"?>
<!-- Generator: Adobe Illustrator 18.0.0, SVG Export Plug-In . SVG Version: 6.00 Build 0)  -->
<!DOCTYPE svg PUBLIC "-//W3C//DTD SVG 1.1//EN" "http://www.w3.org/Graphics/SVG/1.1/DTD/svg11.dtd">
<svg version="1.1" id="Capa_1" xmlns="http://www.w3.org/2000/svg" xmlns:xlink="http://www.w3.org/1999/xlink" x="0px" y="0px"
	 viewBox="0 0 477.182 477.182" style="enable-background:new 0 0 477.182 477.182;" xml:space="preserve">
<path d="M369.15,294.553c14.392-8.49,22.445-24.698,20.517-41.289l-5.101-43.948c1.833-5.09,2.791-10.513,2.791-16.084
	c0-8.474-2.726-16.473-7.602-22.999c3.16-18.956,12.23-74.481-6.195-100.802c-6.46-9.229-20.12-19.239-33.376-21.979
	c-2.917-6.219-8.754-15.961-19.505-25.037C303.06,7.542,279.307,0,250.081,0c-59.323,0-111.698,38.684-130.328,96.26
	c-1.615,4.992-6.345,17.51-13.677,36.2c-8.063,20.552-9.117,43.551-2.97,64.76c5.644,19.475,3.945,40.279-4.784,58.581L96.1,260.46
	c-7.369,15.451-5.692,33.651,4.376,47.496l14.033,19.295c0.186,0.255,0.377,0.551,0.571,0.88c2.104,3.582,2.561,8.016,1.252,12.166
	c-0.662,2.099-2.257,6.542-4.276,12.168c-7.515,20.936-20.094,55.977-23.686,77.202c-2.721,16.072-0.558,28.415,6.429,36.683
	c6.073,7.187,15.257,10.831,27.297,10.831h250.71c4.971,0,9-4.029,9-9v-76.86c0-28.147-8.597-54.969-24.543-77.471
	C357.807,305.909,362.256,298.621,369.15,294.553z M360.004,279.05c-7.323,4.32-13.053,10.729-16.63,18.203
	c-0.305-0.311-0.604-0.626-0.913-0.935c-4.355-4.355-9.046-8.409-13.946-12.123c8.882-13.55,15.646-28.512,19.896-44.352
	c7.48-1.34,14.498-4.462,20.519-9.12l2.857,24.617C372.894,264.868,368.269,274.174,360.004,279.05z M174.975,263.446
	c1.051-7.445,3.092-14.775,6.133-21.793l0.378-0.873c7.894-18.22,2.75-39.819-12.51-52.527l-0.73-0.608
	c-3.358-2.796-5.284-6.907-5.284-11.277c0-4.391,1.8-8.423,5.07-11.354s7.472-4.283,11.839-3.804l28.631,3.134
	c22.374,2.442,43.108-12.978,47.182-35.125l2.02-10.985c0.533-2.9,2.173-5.391,4.616-7.013c2.33-1.548,5.095-2.076,7.775-1.485
	l23.558,5.466c10.129,2.35,20.314-0.14,28.09-5.955l13.913,55.605v35.21c0,9.933-1.098,19.873-3.264,29.55
	c-8.176,36.656-31.47,68.556-63.909,87.521c-12.973,7.587-29.091,7.587-42.065-0.001c-20.407-11.928-37.418-29.073-49.191-49.573
	C176.46,266.219,175.711,264.839,174.975,263.446z M369.357,193.232c0,7.843-3.056,15.218-8.604,20.766
	c-2.461,2.461-5.298,4.436-8.38,5.869c0.854-6.563,1.284-13.185,1.284-19.805v-26.755c2.115,0.507,4.142,1.351,6.004,2.512
	C365.733,179.586,369.357,186.096,369.357,193.232z M358.814,79.753c10.606,15.152,8.835,48.91,4.674,77.894
	c-3.744-1.54-7.712-2.495-11.778-2.795l-11.272-45.048c-3.56-14.23-3.311-29.147,0.725-43.249v0
	C347.819,69.246,355.154,74.525,358.814,79.753z M108.549,454.734c-3.36-3.977-4.201-11.606-2.431-22.062
	c3.326-19.65,16.046-55.086,22.88-74.124c2.167-6.039,3.734-10.402,4.501-12.837c2.837-9,1.781-18.73-2.897-26.694
	c-0.488-0.832-1.005-1.624-1.535-2.352l-14.033-19.296c-6.176-8.492-7.207-19.683-2.687-29.161l2.222-4.659
	c10.629-22.287,12.698-47.623,5.825-71.339c-5.048-17.416-4.182-36.301,2.438-53.176c7.57-19.296,12.295-31.823,14.046-37.232
	C153.097,51.677,198.59,18,250.081,18c56.919,0,72.294,32.754,74.9,39.654l-8.305,28.871c-0.297,1.031-0.654,2.049-1.156,2.997
	c-3.321,6.276-10.581,9.822-17.796,8.145l-23.411-5.434l-0.341-0.077c-7.5-1.65-15.174-0.204-21.608,4.069
	c-6.452,4.285-10.957,11.12-12.361,18.752l-2.021,10.984c-2.375,12.917-14.458,21.918-27.521,20.487l-28.631-3.134
	c-9.381-1.023-18.787,1.997-25.813,8.295c-7.025,6.298-11.054,15.321-11.054,24.756c0,9.73,4.289,18.883,11.767,25.11l0.73,0.608
	c9.226,7.683,12.283,20.527,7.508,31.543l-0.376,0.867c-10.012,23.11-11.17,49.004-3.261,72.913l4.619,13.972
	c0.309,0.934,0.729,2.151,1.238,3.62c18.771,54.207,20.538,92.581,5.248,114.055c-9.509,13.355-26.445,20.127-50.34,20.127
	C115.601,459.182,111.043,457.686,108.549,454.734z M178.455,459.182c3.208-2.888,6.098-6.111,8.645-9.688
	c11.89-16.701,14.678-38.33,13.334-59.479c6.279,4.923,14.142,10.11,23.768,14.843c25.857,12.713,54.165,17.169,81.15,17.169
	c20.861,0,40.926-2.666,58.456-6.236v43.392H178.455z M363.807,397.396c-51.253,11.068-96.268,8.291-130.528-8.139
	c-22.432-10.757-33.855-24.322-37.043-28.55c-3.8-17.795-9.076-33.041-12.039-41.597c-0.475-1.37-0.868-2.504-1.155-3.375
	l-4.622-13.98c-0.263-0.794-0.493-1.594-0.731-2.393c11.21,13.216,24.606,24.521,39.644,33.311
	c9.29,5.433,19.703,8.149,30.119,8.148c10.413,0,20.83-2.716,30.117-8.148c15.39-8.997,28.959-20.568,40.217-34.025
	c4.195,3.189,8.213,6.667,11.946,10.4c21.973,21.972,34.074,51.191,34.074,82.275V397.396z"/>
<g>
</g>
<g>
</g>
<g>
</g>
<g>
</g>
<g>
</g>
<g>
</g>
<g>
</g>
<g>
</g>
<g>
</g>
<g>
</g>
<g>
</g>
<g>
</g>
<g>
</g>
<g>
</g>
<g>
</g>
</svg>
