<?xml version="1.0" encoding="iso-8859-1"?>
<!-- Generator: Adobe Illustrator 18.0.0, SVG Export Plug-In . SVG Version: 6.00 Build 0)  -->
<!DOCTYPE svg PUBLIC "-//W3C//DTD SVG 1.1//EN" "http://www.w3.org/Graphics/SVG/1.1/DTD/svg11.dtd">
<svg version="1.1" id="Capa_1" xmlns="http://www.w3.org/2000/svg" xmlns:xlink="http://www.w3.org/1999/xlink" x="0px" y="0px"
	 viewBox="0 0 447.223 447.223" style="enable-background:new 0 0 447.223 447.223;" xml:space="preserve">
<path d="M362.647,232.805l-9.522-39.932c6.733-8.375,10.397-18.707,10.397-29.604c0-19.644-14.796-35.887-33.826-38.198
	l-2.022-30.21c7.781-19.155,6.435-37.616-3.942-53.517C307.089,15.843,268.725,0,223.614,0S140.14,15.843,123.498,41.345
	c-10.377,15.901-11.723,34.362-3.942,53.517l-2.023,30.211c-19.028,2.313-33.82,18.555-33.82,38.197
	c0,10.89,3.66,21.217,10.389,29.599l-9.525,39.937c-6.159,25.827,0.125,52.642,16.81,72.943
	c-7.867,17.268-12.125,36.21-12.125,55.615v76.86c0,4.971,4.029,9,9,9h250.71c4.971,0,9-4.029,9-9v-76.86
	c0-19.553-4.156-38.464-12.035-55.735C362.546,285.341,368.794,258.581,362.647,232.805z M336.379,288.247
	c-5.084-7.807-11.012-15.145-17.754-21.887c-4.364-4.365-9.069-8.429-13.984-12.15c8.891-13.592,15.64-28.554,19.897-44.324
	c4.577-0.816,8.979-2.303,13.089-4.395l7.51,31.492C349.387,254.798,346.108,273.217,336.379,288.247z M296.294,401.399
	l8.087,27.824H142.51l8.087-27.824c4.744-16.323,5.024-33.656,0.81-50.125l-16.633-64.991c4.667-5.536,9.869-10.658,15.561-15.282
	c-0.25,2.694-0.391,5.405-0.391,8.119c0,44.211,33.048,80.18,73.67,80.18s73.67-35.968,73.67-80.18c0-2.716-0.141-5.428-0.392-8.122
	c3.132,2.543,6.154,5.239,9.004,8.089c2.206,2.206,4.307,4.488,6.312,6.834l-16.725,65.353
	C291.268,367.742,291.55,385.075,296.294,401.399z M137.227,100.354c56.657-14.686,116.115-14.688,172.774,0l1.003,14.985
	c-57.429-14.288-117.351-14.288-174.781,0L137.227,100.354z M135.404,134.133c57.857-15.345,118.568-15.344,176.42,0V170.1
	c0,47.992-25.738,92.851-67.173,117.071c-12.973,7.586-29.092,7.586-42.064-0.001c-20.407-11.928-37.419-29.073-49.195-49.578
	c-11.768-20.516-17.987-43.854-17.987-67.492V134.133z M193.502,302.709c9.289,5.433,19.702,8.148,30.118,8.148
	c10.413,0,20.829-2.717,30.116-8.147c9.16-5.354,17.632-11.61,25.353-18.598c-2.286,31.958-26.284,57.188-55.475,57.188
	c-29.185,0-53.179-25.219-55.473-57.168C175.918,291.15,184.407,297.393,193.502,302.709z M345.522,163.27
	c0,7.843-3.056,15.217-8.604,20.766c-2.465,2.465-5.31,4.435-8.394,5.868c0.856-6.524,1.3-13.137,1.3-19.804v-26.731
	C338.815,145.535,345.522,153.624,345.522,163.27z M138.571,51.183C151.726,31.025,185.108,18,223.614,18
	c38.507,0,71.889,13.025,85.044,33.183c6.115,9.372,7.526,19.891,4.254,31.347c-58.603-14.905-119.995-14.904-178.596,0
	C131.045,71.074,132.456,60.555,138.571,51.183z M117.404,143.37v26.73c0,6.634,0.435,13.247,1.289,19.796
	c-3.082-1.432-5.922-3.398-8.383-5.855c-5.545-5.553-8.599-12.929-8.599-20.771C101.712,153.626,108.417,145.539,117.404,143.37z
	 M102.086,236.981l7.512-31.498c4.099,2.085,8.489,3.57,13.058,4.389c3.427,12.781,8.497,25.125,15.124,36.679
	c1.505,2.62,3.095,5.185,4.748,7.705c-12.571,9.528-23.22,21.11-31.617,34.09C101.131,273.298,97.826,254.838,102.086,236.981z
	 M107.261,361.363c0-19.498,4.957-38.46,14.012-55.239l12.697,49.613c3.417,13.352,3.189,27.405-0.657,40.638l-9.548,32.848h-16.504
	V361.363z M339.971,429.223h-16.844l-9.548-32.848c-3.847-13.234-4.074-27.287-0.658-40.638l12.844-50.189
	c9.272,16.916,14.205,35.984,14.205,55.815V429.223z"/>
<g>
</g>
<g>
</g>
<g>
</g>
<g>
</g>
<g>
</g>
<g>
</g>
<g>
</g>
<g>
</g>
<g>
</g>
<g>
</g>
<g>
</g>
<g>
</g>
<g>
</g>
<g>
</g>
<g>
</g>
</svg>
