<?xml version="1.0" encoding="iso-8859-1"?>
<!-- Generator: Adobe Illustrator 18.0.0, SVG Export Plug-In . SVG Version: 6.00 Build 0)  -->
<!DOCTYPE svg PUBLIC "-//W3C//DTD SVG 1.1//EN" "http://www.w3.org/Graphics/SVG/1.1/DTD/svg11.dtd">
<svg version="1.1" id="Capa_1" xmlns="http://www.w3.org/2000/svg" xmlns:xlink="http://www.w3.org/1999/xlink" x="0px" y="0px"
	 viewBox="0 0 445.713 445.713" style="enable-background:new 0 0 445.713 445.713;" xml:space="preserve">
<g>
	<path d="M303.883,252.701c8.892-13.592,15.641-28.555,19.899-44.327c9.467-1.689,18.202-6.218,25.103-13.12
		c8.948-8.948,13.876-20.843,13.876-33.494c0-19.599-14.727-35.811-33.694-38.181v-0.877c0-8.758-1.073-17.269-3.081-25.416
		c15.36-9.477,24.928-26.283,24.928-44.726c0-28.982-23.578-52.56-52.56-52.56c-17.087,0-32.77,8.16-42.564,21.724
		c-10.374-3.392-21.443-5.234-32.935-5.234c-11.493,0-22.562,1.842-32.936,5.234C180.125,8.16,164.442,0,147.354,0
		c-28.981,0-52.56,23.578-52.56,52.56c0,18.443,9.569,35.25,24.93,44.727c-2.008,8.146-3.081,16.657-3.081,25.415v0.878
		c-18.966,2.371-33.691,18.583-33.691,38.18c0,12.644,4.923,24.537,13.871,33.499c6.909,6.898,15.644,11.425,25.105,13.114
		c4.258,15.772,11.007,30.736,19.899,44.328C108.39,278.016,88.5,317.86,88.5,359.853v76.86c0,4.971,4.029,9,9,9h250.71
		c4.971,0,9-4.029,9-9v-76.86c0-35.892-13.973-69.631-39.346-95.004C313.499,260.484,308.796,256.421,303.883,252.701z
		 M301.344,273.966l-21.018,50.952l-33.5-20.595c2.093-0.917,4.147-1.952,6.146-3.12c15.47-9.041,28.992-20.634,40.192-34.045
		C295.983,269.299,298.721,271.568,301.344,273.966z M288.855,168.12c0,11.58-9.42,21-21,21s-21-9.42-21-21s9.42-21,21-21
		S288.855,156.541,288.855,168.12z M294.491,139.671c-6.977-6.536-16.344-10.551-26.636-10.551c-13.776,0-25.897,7.186-32.837,18
		h-24.325c-6.94-10.814-19.061-18-32.837-18c-10.292,0-19.659,4.014-26.636,10.551l-10.606-12.918
		c36.26-0.677,67.518-22.199,82.242-53.069c14.724,30.87,45.982,52.392,82.242,53.069L294.491,139.671z M177.855,147.12
		c11.58,0,21,9.42,21,21s-9.42,21-21,21s-21-9.42-21-21S166.275,147.12,177.855,147.12z M306.855,108.785
		c-40.965,0-74.343-33.018-74.97-73.836c39.78,4.063,71.817,34.67,78.07,73.771C308.924,108.762,307.89,108.785,306.855,108.785z
		 M135.755,108.72c6.254-39.1,38.29-69.708,78.07-73.771c-0.627,40.818-34.006,73.836-74.97,73.836
		C137.819,108.785,136.786,108.762,135.755,108.72z M344.761,161.76c0,7.843-3.056,15.217-8.604,20.766
		c-2.463,2.463-5.306,4.432-8.39,5.865c0.856-6.523,1.3-13.134,1.3-19.801V141.86C338.055,144.028,344.761,152.116,344.761,161.76z
		 M298.354,18c19.057,0,34.56,15.503,34.56,34.56c0,10.704-4.913,20.556-13.008,27.011c-9.622-21.567-26.226-39.358-46.925-50.486
		C279.423,22.1,288.536,18,298.354,18z M112.794,52.56c0-19.057,15.503-34.56,34.56-34.56c9.818,0,18.931,4.1,25.373,11.086
		c-20.699,11.128-37.302,28.919-46.924,50.486C117.708,73.117,112.794,63.264,112.794,52.56z M109.55,182.531
		c-5.545-5.553-8.599-12.93-8.599-20.771c0-9.643,6.705-17.731,15.691-19.899v26.73c0,6.666,0.444,13.277,1.3,19.799
		C114.857,186.958,112.013,184.99,109.55,182.531z M134.643,147.848l6.308,7.684c-1.352,3.952-2.097,8.184-2.097,12.588
		c0,21.505,17.495,39,39,39s39-17.495,39-39c0-1.01-0.051-2.009-0.127-3h12.254c-0.076,0.991-0.127,1.99-0.127,3
		c0,21.505,17.495,39,39,39s39-17.495,39-39c0-4.404-0.745-8.636-2.096-12.588l6.309-7.684v20.743
		c0,47.995-25.741,92.854-67.178,117.071c0,0,0,0,0,0c-12.974,7.582-29.094,7.583-42.068,0
		c-41.437-24.217-67.178-69.076-67.178-117.071V147.848z M192.738,301.203c1.999,1.169,4.053,2.204,6.146,3.121l-33.5,20.595
		l-21.012-50.938c2.608-2.389,5.335-4.665,8.175-6.821C163.746,280.569,177.269,292.162,192.738,301.203z M106.5,359.853
		c0-26.01,8.818-51.067,24.431-71.254l21.843,52.954c1.005,2.438,3.03,4.313,5.539,5.127c2.508,0.814,5.248,0.489,7.495-0.893
		l48.047-29.538v111.464H106.5V359.853z M339.21,427.713H231.855V316.249l48.048,29.538c1.434,0.881,3.067,1.333,4.714,1.333
		c0.934,0,1.873-0.146,2.781-0.44c2.508-0.815,4.533-2.689,5.539-5.127l21.874-53.027c15.822,20.314,24.4,45.16,24.4,71.328V427.713
		z"/>
	<path d="M261.17,347.675c-1.462-3.433-4.921-5.692-8.668-5.545c-3.801,0.149-7.139,2.753-8.252,6.38
		c-1.095,3.566,0.215,7.535,3.178,9.785c2.97,2.256,7.133,2.403,10.273,0.405C261.364,356.367,262.766,351.674,261.17,347.675
		C260.94,347.135,261.389,348.226,261.17,347.675z"/>
	<path d="M201.679,349.365c-0.736-3.554-3.53-6.357-7.092-7.065c-3.642-0.725-7.47,0.946-9.405,4.123
		c-2.007,3.295-1.672,7.601,0.831,10.54c2.461,2.89,6.606,3.923,10.132,2.528C200.119,357.919,202.553,353.582,201.679,349.365z"/>
</g>
<g>
</g>
<g>
</g>
<g>
</g>
<g>
</g>
<g>
</g>
<g>
</g>
<g>
</g>
<g>
</g>
<g>
</g>
<g>
</g>
<g>
</g>
<g>
</g>
<g>
</g>
<g>
</g>
<g>
</g>
</svg>
