<?xml version="1.0" encoding="iso-8859-1"?>
<!-- Generator: Adobe Illustrator 18.0.0, SVG Export Plug-In . SVG Version: 6.00 Build 0)  -->
<!DOCTYPE svg PUBLIC "-//W3C//DTD SVG 1.1//EN" "http://www.w3.org/Graphics/SVG/1.1/DTD/svg11.dtd">
<svg version="1.1" id="Capa_1" xmlns="http://www.w3.org/2000/svg" xmlns:xlink="http://www.w3.org/1999/xlink" x="0px" y="0px"
	 viewBox="0 0 446.565 446.565" style="enable-background:new 0 0 446.565 446.565;" xml:space="preserve">
<path d="M318.292,265.701c-1.805-1.805-3.682-3.543-5.59-5.246c10.458-9.524,16.792-23.193,16.792-37.906v-22.226
	c14.845-3.978,25.811-17.541,25.811-33.624v-33.345c0-73.288-59.021-133.11-131.567-133.354C223.584,0,223.433,0,223.28,0
	c-35.187,0-68.271,13.667-93.201,38.513c-25.037,24.953-38.825,58.161-38.825,93.507v34.68c0,16.084,10.967,29.649,25.82,33.625
	v22.225c0,14.713,6.335,28.383,16.795,37.907c-28.348,25.337-44.941,61.895-44.941,100.248v76.86c0,4.97,4.029,9,9,9h250.709
	c4.971,0,9-4.03,9-9v-76.86C357.637,324.813,343.664,291.073,318.292,265.701z M223.283,310.223
	c-21.936,0-41.37-12.738-50.492-31.744l24.404,8.627c8.412,2.973,17.25,4.459,26.089,4.459c8.839,0,17.678-1.487,26.089-4.46
	l24.394-8.623C264.634,297.486,245.203,310.223,223.283,310.223z M243.375,270.135c-12.956,4.579-27.226,4.579-40.181,0
	l-45.967-16.249c-13.25-4.689-22.153-17.282-22.153-31.336v-62.984c0-8.909,7.248-16.156,16.156-16.156h85.554
	c3.914,0,7.379-2.529,8.572-6.257l5.104-15.952l8.21,17.104c1.497,3.121,4.652,5.105,8.113,5.105h28.555
	c8.908,0,16.155,7.248,16.155,16.156v62.984c0,14.054-8.902,26.647-22.148,31.335L243.375,270.135z M117.074,159.566v21.313
	c-4.692-2.985-7.82-8.219-7.82-14.18v-34.68c0-30.526,11.909-59.207,33.532-80.757c21.625-21.552,50.331-33.347,80.891-33.262
	c62.654,0.21,113.628,51.958,113.628,115.354V166.7c0,5.957-3.124,11.188-7.811,14.174v-21.308
	c0-18.834-15.322-34.156-34.155-34.156h-22.892l-15.55-32.395c-1.596-3.324-5.054-5.334-8.733-5.084
	c-3.677,0.254-6.828,2.725-7.952,6.236l-9.997,31.243H151.23C132.396,125.41,117.074,140.732,117.074,159.566z M339.637,428.565
	H106.928v-67.86c0-35.026,15.978-68.329,43.03-90.326c0.405,0.155,0.808,0.313,1.218,0.458
	c6.975,30.477,32.443,53.083,63.107,56.826v37.734c0,4.97,4.029,9,9,9s9-4.03,9-9v-37.734c30.647-3.744,56.116-26.349,63.106-56.824
	c0.411-0.146,0.815-0.303,1.22-0.459c3.113,2.531,6.118,5.213,8.954,8.049c21.974,21.972,34.074,51.192,34.074,82.276V428.565z"/>
<g>
</g>
<g>
</g>
<g>
</g>
<g>
</g>
<g>
</g>
<g>
</g>
<g>
</g>
<g>
</g>
<g>
</g>
<g>
</g>
<g>
</g>
<g>
</g>
<g>
</g>
<g>
</g>
<g>
</g>
</svg>
