<?xml version="1.0" encoding="iso-8859-1"?>
<!-- Generator: Adobe Illustrator 18.0.0, SVG Export Plug-In . SVG Version: 6.00 Build 0)  -->
<!DOCTYPE svg PUBLIC "-//W3C//DTD SVG 1.1//EN" "http://www.w3.org/Graphics/SVG/1.1/DTD/svg11.dtd">
<svg version="1.1" id="Capa_1" xmlns="http://www.w3.org/2000/svg" xmlns:xlink="http://www.w3.org/1999/xlink" x="0px" y="0px"
	 viewBox="0 0 480.786 480.786" style="enable-background:new 0 0 480.786 480.786;" xml:space="preserve">
<g>
	<path d="M376.596,287.306c-0.002-0.017-0.014-0.088-0.016-0.105c-0.005-0.034-0.01-0.067-0.015-0.101
		c-5.906-39.089-5.906-73.951,0-113.044c1.027-6.818,1.548-13.793,1.548-20.732c0-38.649-16.386-75.75-44.957-101.789
		c-1.05-0.957-2.716-2.279-3.897-3.197C309.516,18.037,276.717,0,241.192,0c-18.409,0-36.588,4.764-52.571,13.778
		c-15.016,8.468-27.821,20.497-37.131,34.862c-1.16,0.86-2.665,2.013-3.638,2.898c-28.687,26.11-45.154,63.173-45.179,101.679
		c-0.009,6.982,0.512,13.991,1.549,20.826c5.906,39.101,5.906,73.974,0.003,113.055l-0.035,0.229
		c-1.938,12.918,1.563,26.464,9.606,37.164c0.706,0.939,3.301,4.437,6.974,9.395c-9.596,18.807-14.658,39.781-14.658,61.039v76.86
		c0,4.971,4.029,9,9,9h250.71c4.971,0,9-4.029,9-9v-76.86c0-21.316-5.082-42.325-14.716-61.142c3.641-4.964,6.215-8.464,6.919-9.403
		C375.029,313.705,378.518,300.192,376.596,287.306z M159.968,64.85c0.441-0.402,2.047-1.627,3.437-2.622
		c0.958-0.686,1.773-1.554,2.397-2.553C181.847,33.969,210.735,18,241.192,18c30.289,0,57.162,15.061,73.728,41.321
		c0.577,0.915,1.314,1.718,2.176,2.371c1.156,0.876,3.207,2.483,3.937,3.148c24.837,22.636,39.082,54.887,39.082,88.485
		c0,6.044-0.453,12.117-1.347,18.047c-4.364,28.885-5.635,55.573-3.842,83.161h-17.718c0.236-12.152,1.263-24.291,3.079-36.292
		c0.761-5.021,1.143-10.15,1.133-15.232c-0.016-26.171-10.234-51.095-28.33-69.825c1.747-1.633,3.455-3.308,5.085-5.05
		c5.37-5.733,8.327-13.239,8.327-21.136c0-4.971-4.029-9-9-9s-9,4.029-9,9c0,3.31-1.23,6.446-3.466,8.832
		c-3.367,3.597-7.052,6.934-10.951,9.917c-15.512,11.871-34.085,18.146-53.714,18.146c-19.582,0-38.125-6.25-53.629-18.08
		c-3.933-2.996-7.624-6.315-10.971-9.866c-2.302-2.443-3.57-5.618-3.57-8.941c0-4.971-4.029-9-9-9s-9,4.029-9,9
		c0,7.931,3.009,15.49,8.472,21.287c1.674,1.776,3.434,3.49,5.241,5.16c-17.934,18.699-28.052,43.51-28.068,69.545
		c-0.009,5.093,0.372,10.222,1.132,15.241c1.816,12,2.842,24.136,3.078,36.295h-18.192c1.792-27.594,0.521-54.288-3.843-83.183
		c-0.901-5.942-1.354-12.035-1.346-18.114C120.694,119.775,135.017,87.56,159.968,64.85z M358.767,289.789l0.026,0.173
		c1.217,8.159-1.032,16.769-6.171,23.622c-2.42,3.228-25.421,34.65-39.794,54.294c-1.372-14.798,2.352-29.823,10.88-42.44
		c9.313-13.779,14.234-29.889,14.234-46.588c0-1.001-0.43-5.123-0.484-6.316h19.055
		C357.144,278.214,357.885,283.953,358.767,289.789z M219.433,320.735c-20.407-11.927-37.419-29.072-49.191-49.571
		c-3.13-5.467-5.873-11.17-8.202-16.964c-0.251-12.942-1.332-25.872-3.267-38.658c-0.625-4.121-0.938-8.331-0.93-12.524
		c0.013-21.982,8.806-42.906,24.337-58.414c17.286,11.324,37.243,17.287,58.189,17.287c21.082,0,41.151-6.037,58.504-17.496
		c15.661,15.529,24.532,36.543,24.546,58.635c0.008,4.182-0.305,8.392-0.93,12.516c-1.891,12.494-2.958,25.127-3.241,37.77
		c-11.103,28.202-31.56,52.108-57.75,67.421C248.525,328.324,232.408,328.323,219.433,320.735z M128.184,313.676
		c-5.163-6.869-7.421-15.5-6.19-23.705l0.025-0.166c0.882-5.842,1.624-11.586,2.255-17.273h19.528
		c-0.054,1.195-0.483,5.316-0.483,6.316c0,16.7,4.922,32.81,14.234,46.588c8.557,12.66,12.277,27.742,10.866,42.587
		C153.926,348.425,130.604,316.896,128.184,313.676z M124.111,394.925c0-15.343,3.041-30.51,8.857-44.56
		c14.585,19.711,32.125,43.436,32.416,43.829c1.71,2.313,4.405,3.65,7.235,3.65c0.393,0,0.789-0.025,1.185-0.078
		c3.248-0.431,6.005-2.592,7.198-5.643c9.951-25.437,6.76-54.134-8.536-76.766c-4.635-6.859-7.873-14.461-9.623-22.452
		c12.572,17.592,28.775,32.422,47.505,43.369c6.606,3.863,13.78,6.345,21.118,7.461v119.05H124.111V394.925z M356.822,394.925v67.86
		H249.466V343.735c7.339-1.116,14.515-3.598,21.118-7.46c19.037-11.131,35.399-26.273,48.006-44.134
		c-1.708,8.271-5.012,16.138-9.796,23.217c-15.295,22.631-18.486,51.329-8.535,76.766c1.197,3.059,3.965,5.223,7.222,5.646
		c3.264,0.426,6.486-0.962,8.425-3.612c0.288-0.394,17.616-24.084,32.055-43.801C353.779,364.397,356.822,379.567,356.822,394.925z"
		/>
	<path d="M277.016,363.751c-1.508-3.535-5.14-5.829-8.995-5.523c-3.608,0.286-6.743,2.742-7.873,6.184
		c-1.165,3.547,0.075,7.612,3.037,9.891c2.987,2.298,7.177,2.497,10.362,0.473C277.201,372.453,278.64,367.742,277.016,363.751
		C276.785,363.211,277.236,364.292,277.016,363.751z"/>
	<path d="M273.696,397.711c-3.01-1.963-6.925-1.997-9.943-0.028c-3.012,1.964-4.6,5.74-3.878,9.268
		c0.77,3.767,3.891,6.679,7.705,7.166c3.91,0.5,7.78-1.711,9.363-5.316C278.685,404.838,277.273,400.12,273.696,397.711
		C273.205,397.392,274.186,398.042,273.696,397.711z"/>
	<path d="M277.016,439.751c-1.487-3.486-5.037-5.77-8.843-5.533c-3.545,0.221-6.667,2.532-7.908,5.86
		c-1.328,3.561-0.189,7.753,2.792,10.126c2.902,2.31,6.979,2.611,10.189,0.752C277.102,448.724,278.684,443.852,277.016,439.751
		C276.785,439.211,277.236,440.292,277.016,439.751z"/>
</g>
<g>
</g>
<g>
</g>
<g>
</g>
<g>
</g>
<g>
</g>
<g>
</g>
<g>
</g>
<g>
</g>
<g>
</g>
<g>
</g>
<g>
</g>
<g>
</g>
<g>
</g>
<g>
</g>
<g>
</g>
</svg>
