<?xml version="1.0" encoding="utf-8"?>
<!-- Generator: Adobe Illustrator 19.0.0, SVG Export Plug-In . SVG Version: 6.00 Build 0)  -->
<svg version="1.1" id="Capa_1" xmlns="http://www.w3.org/2000/svg" xmlns:xlink="http://www.w3.org/1999/xlink" x="0px" y="0px"
	 viewBox="-134 93.8 429.2 374.1" style="enable-background:new -134 93.8 429.2 374.1;" xml:space="preserve">
<g>
	<g>
		<path d="M36.9,154.9c3.6-4.9,3.5-12.8-0.6-17.2C18.6,119-30.4,77.6-88.2,116.2c0,0-81.4,50.5-27.1,177.1
			C-75.1,374,28,382,72.1,464.1c3,5.5,5.2,4.9,5.5-1.6l2.7-68.2c0.3-6.6-2.8-15-6.9-18.9c-4.1-3.9-4.6-11.2-1.2-16.3l17.3-26
			c3.4-5.1,2.2-11.6-2.7-14.6L52.3,298c-4.9-2.9-5.5-8.7-1.3-12.9L88,247.3c4.2-4.2,3.4-9.7-1.6-12.1L15.9,201
			c-5.1-2.4-6.3-8.4-2.7-13.4L36.9,154.9z"/>
		<path d="M119.1,138c-3,5.5-8.4,13.4-12.9,17.1l-30,25.1c-4.5,3.7-4.5,9.8,0.1,13.4l64.5,52.7c4.5,3.7,4.3,9.3-0.4,12.5l-40.8,27.7
			c-4.7,3.2-5,9-0.6,12.8l27.9,24.6c4.4,3.9,4.6,10.4,0.4,14.6l-24,24.1c-4.2,4.2-4.8,11.8-1.4,16.9l1,1.5
			c3.4,5.1,4.8,14.3,3.1,20.6c-3.9,15.1-10.8,42.2-14.2,61.1c-1.2,6.4,0.3,7,3.2,1.4C144.2,366,202.4,399.6,270.5,302
			c17-21.9,46.1-105.6,0-166.9C227,77.1,149,82.3,119.1,138z"/>
	</g>
</g>
</svg>
