<?xml version="1.0" encoding="utf-8"?>
<!-- Generator: Adobe Illustrator 19.0.0, SVG Export Plug-In . SVG Version: 6.00 Build 0)  -->
<svg version="1.1" id="圖層_1" xmlns="http://www.w3.org/2000/svg" xmlns:xlink="http://www.w3.org/1999/xlink" x="0px" y="0px"
	 viewBox="0 0 79.4 79.4" style="enable-background:new 0 0 79.4 79.4;" xml:space="preserve">
<path d="M74.3,77.8c-4,1.1-7.9,2.2-12,3.4c-0.4-1.4-0.7-2.6-1-3.8c-0.2,0-0.3,0-0.5,0c0,4.9,0,9.9,0,15c-14.4,0-28.5,0-42.9,0
	c0-11.1,0-22.1,0-33c-4.9-1.8-9.4-3.5-14.5-5.3c3.1-3.8,5.7-6.9,8.2-9.9c5.6,1.3,10.8,2.5,16.4,3.8c0.3-2.2,0.4-3.4,0.7-5.4
	c3.4,1.6,6.3,3.1,9.4,4.5c0.7,0.3,1.7,0.4,2.4,0.1c3.1-1.4,6.1-2.9,9.4-4.6c0.2,1.9,0.4,3,0.6,4.4c0.5,0.1,1,0.4,1.6,0.4
	C60,47,65,51.2,68.5,57.7C71.9,63.8,73.5,70.5,74.3,77.8z"/>
<path d="M22.6,30.8c5-2.8,12-3.7,11-12.5c3.3,0,6.3-0.2,9.2,0.1c2.8,0.3,5.6,1.1,8.4,1.8c6.6,1.6,7.2,2.7,5.6,9.4
	c-1.9,7.7-8.7,13.2-16.6,13.6C32.2,43.5,25.4,38.7,22.6,30.8z"/>
<path d="M6.4,39.9c1.1,1.2,1.8,2,2.6,2.9c-2.6,3.2-5.2,6.3-7.8,9.3C-6.2,47.6-8.3,40-3.7,33.2c2.3-3.4,5.5-6.5,8.9-8.7
	c5.5-3.6,11.4-6.5,17.3-9.4c4-2,7.5-0.6,9.1,2.8c1.6,3.4,0,6.8-3.9,8.7c-4.7,2.4-9.4,4.7-13.9,7.3C11.1,35.6,9,37.8,6.4,39.9z"/>
<path d="M22.2,12.7c0-2.2-0.4-4.6,0.1-6.7c0.3-1.4,1.7-3.1,2.9-3.5C34.6-0.8,44-0.8,53.4,2.4c2.1,0.7,3.2,2.2,3.2,4.6
	c-0.1,3.9,0,7.9,0,12.2c-2.9-1-5.5-1.8-8.1-2.7c-1-0.3-2-0.7-3.1-0.9C38,13.8,30.1,16.3,23,11.9C22.7,12.2,22.5,12.4,22.2,12.7z
	 M45.8,6.2c-0.1,0.6,0,0.5-0.1,0.3c0-0.1-0.1-0.2-0.2-0.3c-1.3-0.5-2.5-1.2-3.9-1.4c-1.5-0.3-3.1-0.4-4.5,0c-1.4,0.4-2.7,1.4-3.8,2
	C37.2,11.6,41.4,11.9,45.8,6.2z"/>
</svg>
