<?xml version="1.0" encoding="utf-8"?>
<!-- Generator: Adobe Illustrator 19.0.0, SVG Export Plug-In . SVG Version: 6.00 Build 0)  -->
<svg version="1.1" id="圖層_1" xmlns="http://www.w3.org/2000/svg" xmlns:xlink="http://www.w3.org/1999/xlink" x="0px" y="0px"
	 viewBox="0 0 99.2 99.2" style="enable-background:new 0 0 99.2 99.2;" xml:space="preserve">
<path d="M84.4,21.8c-3.9,0.4-7.8-3.7-7.7-7.7c0.2-4.5,3.8-7.4,7.6-7.7c4-0.3,8.2,3.8,7.9,7.8C92,17.9,89,22,84.4,21.8z"/>
<g>
	<path d="M27.1,97.3c2.3-3.9,4.6-7.8,6.9-11.7c1.6-2.7,3.1-5.3,4.7-7.9c1.8-3,3.6-6,5.4-9c1.7-2.8,3.5-5.6,5.2-8.5
		c1.7-2.8,3.3-5.8,4.9-8.7c0.7-1.2,1.3-2.3,2-3.4c0.2-0.3,0.2-0.7,0.4-1c-0.3-0.2-0.6-0.5-0.9-0.5c-2.2-0.5-3.8,0.6-5.3,2.8
		c-3.8,5.7-7.7,11.1-11.5,16.7c-2.5,3.6-17.8,27.5-20.3,31.1c-3.3,0.4-10.2,0.4-11,0.2c1.4-1.8,9.5-12.7,11.7-15.5
		c2.6-3.4,5.3-6.8,7.9-10.1c5-6.3,10.1-12.5,15.1-18.8c1.3-1.7,2.6-3.4,3.9-5.2c0.1-0.1-0.1-1-0.3-1.1c-0.4-0.2-0.9-0.1-1.4-0.1
		c-13.5,0-27,0-40.6,0c-0.5,0-1,0-1.4,0c-0.7-0.1-1.2-0.5-1.2-1.6c0-4.3,0-8.6,0-12.9c0-0.4,0.1-0.9,0.3-1.1c1.4-1.7,2.9-3.5,4.4-5
		c0.7-0.7,1.7-0.8,2.5-1c3.2-0.8,6.3-2.5,9.6-1.2c2.1,0.8,4.1,2.4,5.8,4.4c0.4,0.5,1.1,0.8,1.6,0.8c1.4,0.1,2.9-0.2,4.3,0
		c1.1,0.2,2,0.9,3.5,1.6c0.8-0.9,1.8-2.5,3.1-3.6c1.2-1,2.7-1.6,4.1-2.2c1.7-0.6,3.5-1.1,5.2-1.4c2.9-0.5,5.6,0.4,7.9,2.9
		c1.1,1.2,2.6,2.2,3.2,3.8c0.9,2.5,2.3,2,3.7,2c3.2,0,5.6,2.3,7.6,5.5c0.6,1,1.3,1.9,2,2.9c0,0,0.1,0,0.1,0.1
		c0.6,2.8,2.2,2.1,3.6,2.1c7,0,14.1,0,21.1,0c0.6,0,1.2,0,1.7,0c0.5,3.4,0.2,4-2.2,4c-1.2,0-1.7,0.4-1.6,2.2c0.4,4.2,0.6,8.4,1,12.6
		c0.2,2.6,0.5,5.2,0.7,7.8c0.5,5.5,1.1,11,1.6,16.5c0.2,2.6,0.5,5.2,0.8,7.8c0.2,1.7,0.5,3.4,0.9,5.4c-1.4,0-2.4,0-3.4,0
		c-2,0-4.1-0.1-6.1,0c-1.1,0-1.6-0.5-1.6-2.1c0.1-10.1,0.3-20.1,0.4-30.2c0.1-6.1,0.1-12.1,0.2-18.2c0-0.4-0.1-1.1-0.1-1.1
		c-1.3-0.2-2.7-0.6-4-0.5c-0.9,0.1-1,1.4-1.1,2.5c-0.3,4.2-0.6,8.4-0.9,12.6c-0.5,5.1-1,10.3-1.5,15.4c-0.5,5.4-1,10.8-1.6,16.1
		c-0.2,1.5-0.4,3-0.7,4.4c-0.1,0.4-0.6,1-0.9,1c-2.7,0.1-5.4,0-8,0c-0.9,0-1.3-0.7-1.1-1.8c0.4-2.4,0.9-4.7,1.3-7
		c0.3-1.5,0.7-3,0.9-4.5c0.3-1.9,0.6-3.9,0.9-5.8c0.4-1.9,0.9-3.7,1.3-5.5c0.3-1.3,0.6-2.7,0.8-4c0.3-1.8,0.6-3.7,0.9-5.6
		c0.4-1.9,0.8-3.8,1.2-5.8c0.3-1.6,0.7-3.2,1-4.8c0.4-2.2,0.8-4.5,1.1-6.7c-0.9-0.9-4-1.2-4.5-0.2c-0.6,1.1-0.8,2.5-1.2,3.7
		c-0.7,2.3-1.4,4.6-2.1,6.9c-0.3,1.1-0.6,2.1-0.9,3.2c-1,3.5-2.1,6.9-3.1,10.4c-0.6,2.2-1.1,4.4-1.8,6.6c-0.6,2.1-1.4,4.2-2.1,6.3
		c-0.3,1.1-0.6,2.2-0.9,3.2c-0.7,2.5-1.5,5-2.3,7.5c-0.1,0.4-1.1,2.9-1.7,3c-3,0.1-6,0-8.9-0.1c-0.1,0-0.2-0.1-0.5-0.2
		c0.3-0.9,0.5-1.9,0.9-2.8c1.8-4.6,3.6-9.1,5.4-13.7c1.7-4.2,3.5-8.4,5.2-12.6c1.7-4.3,3.2-8.6,4.9-12.9c0.9-2.4,2-4.6,2.9-6.9
		c0.5-1.2,0.2-2-0.8-2.1c-0.5,0-0.9,0-1.4,0c-1.1,0-1.9,0.2-2.6,1.8c-1.6,3.7-3.4,7.2-5.2,10.7c-2.3,4.5-4.6,9-6.8,13.5
		c-1.3,2.7-2.6,5.4-3.9,8.1c-2,4.1-4,8.2-6,12.3c-0.7,1.4-1.3,2.8-2,4.1c-0.1,0.3-0.4,0.7-0.6,0.7c-3.2,0-6.5,0-9.7-0.1
		C27.3,97.6,27.2,97.4,27.1,97.3z"/>
	<path d="M38.9,50.2c-1.8,3-3.6,4.6-6.4,4.6c-9-0.3-18-0.1-27.1-0.1c-0.6,0-1.1,0-1.7,0c-2.2,0.2-2.4-0.1-2.4-3.1
		c0-1.4,0.5-1.6,1.3-1.6c11.7,0,23.4,0,35.1,0C38,50,38.3,50.1,38.9,50.2z"/>
	<path d="M1.3,59.7c9.9,0,19.7,0,29.5,0c0,0.1,0.1,0.2,0.1,0.4c-1.4,1.5-2.7,3.1-4.1,4.5c-0.2,0.2-0.7,0.2-1,0.2
		c-7.6,0-15.2,0-22.8,0c-1.6,0-1.7-0.1-1.7-2.3C1.3,61.6,1.3,60.7,1.3,59.7z"/>
	<path d="M1.3,70.1c0.8-0.1,1.4-0.3,2-0.3c5.6,0,11.1,0,16.7,0c0.3,0,0.6,0,0.9,0.1c0.2,0.1,0.5,0.3,0.6,0.5
		c0.1,0.2-0.1,0.6-0.3,0.8c-0.7,0.9-1.4,1.9-2.2,2.7c-0.8,0.9-1.7,1.6-2.9,1.6c-4.5-0.1-9-0.1-13.5,0c-1,0-1.5-0.4-1.4-1.9
		C1.4,72.5,1.3,71.3,1.3,70.1z"/>
	<path d="M1.3,87.1c0-1.9-0.1-3.4,0-4.9c0-0.5,0.6-1.3,0.9-1.3c3.2-0.1,6.4,0,9.6,0c0.1,0,0.2,0.2,0.5,0.5c-1.5,1.9-3,3.7-4.5,5.5
		c-0.1,0.1-0.3,0.2-0.5,0.3C5.4,87.1,3.4,87.1,1.3,87.1z"/>
</g>
<path d="M84.3,1.3C85,2.5,85.5,3.4,86,4.4c0.1,0.2,0,0.7-0.1,0.7c-0.8,0.1-1.7,0.2-2.5,0.1c-0.2,0-0.4-1-0.2-1.5
	C83.4,3,83.8,2.4,84.3,1.3z"/>
<path d="M91.8,7.8c1,0,2,0,3.1,0c0.2,0,0.4,0.2,0.6,0.3c-0.1,0.2-0.2,0.4-0.3,0.6c-0.4,0.6-0.8,1.2-1.3,1.7
	c-0.2,0.2-0.9,0.4-0.9,0.3c-0.6-0.8-1-1.6-1.5-2.4C91.5,8.1,91.7,7.9,91.8,7.8z"/>
<path d="M97.3,14.3c-1,0.5-1.7,0.9-2.3,1.2c-1,0.4-1.6,0-1.5-1.1c0-0.3-0.1-0.7,0-1c0.1-0.3,0.6-0.7,0.8-0.7
	C95.2,13.2,96.2,13.7,97.3,14.3z"/>
<path d="M77.2,7.9c-0.5,1.2-0.9,2.1-1.5,3.4c-0.9-1.2-1.6-2.2-2.5-3.4C74.7,7.9,75.7,7.9,77.2,7.9z"/>
<path d="M87.3,22.9c1.3-0.6,2.2-1,3.4-1.5c0,1.4,0,2.4,0,3.9C89.5,24.5,88.6,23.8,87.3,22.9z"/>
<path d="M90.8,4.2c0,0.8,0,1.4,0,1.9c0,0.1,0,0.2,0,0.3C90.6,6.6,90.2,7,90,7c-0.8-0.4-1.5-0.9-2.3-1.3c0.2-0.3,0.4-0.9,0.7-1
	C89.2,4.4,89.9,4.4,90.8,4.2z"/>
<path d="M84.1,26.7c-0.4-1-0.8-2-1.3-3.2c1.2,0,2.2,0,3.5,0c-0.7,1.2-1.2,2.3-1.8,3.4C84.3,26.8,84.2,26.7,84.1,26.7z"/>
<path d="M91.6,20.1c0.3-0.7,0.5-1.3,0.9-1.7c0.2-0.3,1-0.5,1.1-0.4c0.7,0.8,1.3,1.8,1.9,2.7c-0.1,0.1-0.2,0.2-0.3,0.2
	C94,20.6,92.8,20.3,91.6,20.1z"/>
<path d="M78.5,7c-0.2-1.3-0.4-2.4-0.6-3.6c0.8-0.1,2.6,0.9,2.9,1.6C81,5.8,80.5,6.2,78.5,7z"/>
<path d="M73.8,20.8c-0.3-1.6,1.2-2.2,1.7-3.4c0.7,0.9,1.2,1.7,1.8,2.6C76.2,20.3,75.1,20.5,73.8,20.8z"/>
<path d="M71.9,14.2c1-0.5,2-1.1,3.2-1.8c0,1.1,0,2.1,0,3.3c-1-0.4-2-0.7-3.1-1.1C72,14.5,72,14.3,71.9,14.2z"/>
<path d="M78.5,21.2c1,0.6,1.8,1.2,2.7,1.7c-1,0.8-1.7,1.8-3.2,1.9C78.2,23.6,78.3,22.5,78.5,21.2z"/>
</svg>
