<?xml version="1.0" encoding="utf-8"?>
<!-- Generator: Adobe Illustrator 19.0.0, SVG Export Plug-In . SVG Version: 6.00 Build 0)  -->
<svg version="1.1" id="圖層_1" xmlns="http://www.w3.org/2000/svg" xmlns:xlink="http://www.w3.org/1999/xlink" x="0px" y="0px"
	 viewBox="0 0 524.4 524.4" style="enable-background:new 0 0 524.4 524.4;" xml:space="preserve">
<style type="text/css">
	.st0{fill:#FFFFFF;}
</style>
<path d="M441.7,474.2c-35,0-70,0-105,0c0-27.3,0.2-54.6,0-81.9c-0.4-41.9-34.7-74.7-76.6-73.3c-38.2,1.2-70.4,32-71.3,69.4
	c-0.7,28.6-0.1,57.3-0.1,85.9c-35,0-70,0-105,0c0-0.7-0.1-1.3-0.1-2c0-58.3-0.1-116.6,0.1-174.9c0-2,1.7-4.6,3.3-6
	c55.2-47.9,110.6-95.7,165.9-143.5c3.1-2.7,6.3-5.3,9.6-8.1c1.8,1.6,3.3,2.9,4.8,4.2c56.7,50.6,113.3,101.2,170.1,151.6
	c3,2.7,4.2,5.3,4.2,9.4C441.6,361.3,441.7,417.7,441.7,474.2z"/>
<path d="M518.7,290.2c-0.4,0.9-0.8,1.8-1.1,2.7c-5.6,17.1-25.1,22.6-38.6,10.7C415.6,248.1,352.3,192.6,288.9,137
	c-8.6-7.6-17.3-15.1-26.3-23c-7.9,6.9-15.7,13.6-23.4,20.4C177,188.9,114.7,243.5,52.5,298.1c-2.1,1.9-4.1,3.9-6.2,5.8
	c-12.4,11.1-31.4,6.7-37.7-8.7c-0.6-1.3-1.2-2.6-1.9-3.9c0-3,0-6,0-9c2.4-7.8,7.8-13.2,13.8-18.4c79.4-69.4,158.6-138.9,237.9-208.4
	c1.2-1.1,2.5-2.1,4.3-3.6c34.3,30,68.6,60,104,91c0-3.9,0.2-6.5,0-9c-0.4-4,1.3-7.1,4.9-8.4c21.8-7.7,43.6-7.8,65.4,0.1
	c3.6,1.3,4.9,4.4,4.9,8.4c-0.1,23.3,0,46.6-0.1,70c0,3.2,0.9,5.5,3.4,7.7c21.9,19,43.8,37.9,65.4,57.3c3.7,3.4,5.6,8.8,8.4,13.2
	C518.7,284.9,518.7,287.5,518.7,290.2z"/>
<path class="st0" d="M188.7,474.2c0-28.6-0.6-57.3,0.1-85.9c0.9-37.3,33-68.2,71.3-69.4c41.9-1.3,76.2,31.4,76.6,73.3
	c0.2,27.3,0,54.6,0,81.9C287.4,474.2,238,474.2,188.7,474.2z"/>
</svg>
