<?xml version="1.0" encoding="utf-8"?>
<!-- Generator: Adobe Illustrator 19.0.0, SVG Export Plug-In . SVG Version: 6.00 Build 0)  -->
<svg version="1.1" id="圖層_1" xmlns="http://www.w3.org/2000/svg" xmlns:xlink="http://www.w3.org/1999/xlink" x="0px" y="0px"
	 viewBox="0 0 496.8 496.8" style="enable-background:new 0 0 496.8 496.8;" xml:space="preserve">
<path d="M414.7,408.5c0,13.2-0.2,26.3,0.1,39.5c0.1,4.8-1.7,7.4-5.9,8.3c-7.3,1.7-14.7,2.9-22,4.5c-48,10.9-96,22.1-144.1,32.5
	c-14,3.1-28.1,3-42.1-3.2c-21-9.3-42.5-17.4-63.8-25.8c-10.4-4.1-18.4-10.2-24.8-19.8C88.2,408.5,63.6,372.8,39.3,337
	c-4.1-6.1-6.6-12.7-6.5-20.1c0-6.1,3.7-10.3,9.7-9.4c5.7,0.9,12.2,2.5,16.5,6c10.7,8.6,21.3,17.8,30.3,28.1
	c11.6,13.2,21.6,27.9,32.4,41.9c8.4,10.8,18.7,19.6,30.7,25.9c4.5,2.3,10.3,2.4,15.5,3c35.3,3.6,70.6,7.1,105.9,10.7
	c6.1,0.6,11.2-1.5,15.7-5.1c4.4-3.5,3-11-2.6-13c-4-1.5-8.4-2.1-12.6-2.7c-29.7-3.6-59.5-7-89.3-10.5c-4-0.5-7.9-1.1-11.9-1.7
	c-8.7-1.2-15.6-8.2-15.4-15.7c0.2-8.2,6.2-14.6,15.7-14.9c12.3-0.4,24.6,0.1,36.9,0.4c15.5,0.5,30.9,1.6,46.4,1.6
	c4.6,0,9.5-1.9,13.7-3.9c13.4-6.4,26.7-12.9,39.7-20c15.4-8.4,31.2-8.9,47.4-3.8c13.8,4.4,27.3,9.5,40.8,14.8
	c3.8,1.5,7.2,4.2,10.5,6.7c4.2,3.2,6,7.6,6,13.1C414.6,381.8,414.7,395.1,414.7,408.5z"/>
<path d="M257.8,66c0,22-0.1,43.7,0.2,65.3c0,1.4,2.2,3.4,3.8,3.9c8,2.7,16.3,4.8,24.3,7.6c26.4,9.3,43.6,27,46.6,55.5
	c3.3,31.7-9,56.3-37.1,72c-5.6,3.1-11.8,5.3-18,7.2c-6.2,1.8-12.7,2.7-19.7,4.1c0,5.4,0.1,11,0,16.6c-0.1,3.6-0.3,7.3-0.9,10.9
	c-1,5.8-3.7,7.9-9,7.9c-5.7,0-9.3-2.6-9.8-8.4c-0.7-7.6-0.6-15.3-0.8-22.9c0-1.3-0.2-2.6-0.3-3.8c-7.2-1.6-14.3-2.7-21.1-4.9
	c-24.6-7.8-43.2-22.6-52.1-47.7c-1.9-5.2-2.6-11-2.9-16.6c-0.5-10.5,7-19,17.6-20.9c10.9-2,19.7,3.3,23.4,13.8
	c2.2,6.3,4.4,12.6,7,18.7c4.9,11.6,14.9,19.7,27.9,22.8c0.1-1.4,0.4-2.8,0.4-4.2c0-22.5-0.1-45,0.1-67.5c0-3.6-1-5.1-4.5-6.3
	c-9.9-3.3-20-6.5-29.4-10.8c-28.3-12.9-38.4-36.8-35.9-65.6c2.6-29.5,22.6-52.3,58.2-58.4c11.5-2,11.5-1.9,11.6-13.6
	c0-3.8,0.2-7.7,0.8-11.4c0.8-4.9,4.1-7.5,9-7.8c5-0.3,9.1,2.1,9.9,7.2c0.9,6.2,0.9,12.6,0.8,18.9c0,3.8,0.8,5.5,5.1,5.9
	c26.4,2.8,46.5,15.1,58.3,39.5c2,4.1,3.4,8.7,4.2,13.3c1.9,10.3-4.3,20-14.1,22.9c-10.7,3.2-20.7-1.3-25.1-11.6
	c-1.3-3-2.1-6.3-3.3-9.4C278.5,76.8,269.1,68.3,257.8,66z M258,248.9c22-3.1,36.1-19.5,34.9-39.7c-1-15.3-18.4-31.1-34.9-31.5
	C258,201.4,258,225,258,248.9z M236.9,127.6c0-20.9,0-41.5,0-62.1c-15.9,1.9-28.3,13.6-29.1,27.1
	C206.7,111.1,216.2,122.6,236.9,127.6z"/>
<path d="M473,413.4c0,21.8,0,43.6,0,65.4c0,7.5-2,9.5-9.4,9.6c-8.2,0.1-16.3,0.1-24.5,0c-6.5-0.1-9-2.6-9-9.2c0-44.4,0-88.9,0-133.3
	c0-6.3,2.5-8.8,8.8-8.9c8.5-0.1,17-0.1,25.5,0c6.4,0.1,8.6,2.3,8.6,8.9C473,368.4,473,390.9,473,413.4z"/>
<path d="M78,295c5.4,2.6,11.9,4.2,16.1,8.1c12,11,23.2,22.8,34.3,34.7c6.1,6.6,11.5,13.8,16.8,21c1.2,1.7,1.7,4.5,1.4,6.6
	c-0.6,4.6-1.8,9.1-2.9,13.6c-0.9,3.8-3.1,4.2-5.7,1.6c-2.4-2.3-4.4-5-6.6-7.5C113.4,352.6,95.2,331.8,77,311
	c-1.4-1.6-3.4-2.8-4.7-4.4c-1.3-1.6-3.4-4.5-2.9-5.3c1.3-2.1,3.9-3.4,6.1-4.9c0.5-0.3,1.3,0,2,0C77.6,295.9,77.8,295.5,78,295z"/>
<path d="M178.9,344c-7.4,2.6-14.2,5-19.6,6.9c-16.1-15.5-32.4-31.1-48.7-46.7c3.8-5.9,8.1-7.8,14.1-6.1c2.4,0.7,4.8,1.5,6.8,2.9
	C149.4,313.2,163.9,329.1,178.9,344z"/>
</svg>
