<?xml version="1.0" encoding="utf-8"?>
<!-- Generator: Adobe Illustrator 19.0.0, SVG Export Plug-In . SVG Version: 6.00 Build 0)  -->
<svg version="1.1" id="圖層_1" xmlns="http://www.w3.org/2000/svg" xmlns:xlink="http://www.w3.org/1999/xlink" x="0px" y="0px"
	 viewBox="0 0 524.4 524.4" style="enable-background:new 0 0 524.4 524.4;" xml:space="preserve">
<style type="text/css">
	.st0{fill:#FFFFFF;}
</style>
<path d="M243.7,7.2c9,1.3,18.1,2.3,27.1,3.9c50.4,9.4,92.6,33.6,126.6,71.8c29.4,33.1,47.4,71.8,53.7,115.6
	c1.8,12.8,1.7,25.9,2.4,38.8c0.1,2.1-0.4,4.2-0.7,6.8c-20.3-8.5-41-12.7-62.8-13c-1.7-53-22.6-96.3-64.9-128.2
	C293.7,79.2,257.8,69,218.6,71.6C134.8,77.3,69.8,147,69.7,231.2c-0.1,87.7,70.9,159.8,159.8,160.3c0.3,21.5,4.4,42.4,13.4,63.5
	c-8.9,0-17.1,0.4-25.1-0.1C170,452,127,436.2,89.8,406c-46.7-37.9-74.2-86.8-82.2-146.5c-0.6-4.7-1.3-9.5-1.9-14.2
	c0-9.3,0-18.7,0-28c0.3-1.4,0.7-2.8,0.8-4.3c3-38,14.8-73,36-104.6C77.9,55.7,126.7,23,189.1,11.1c8.8-1.7,17.7-2.6,26.6-3.9
	C225,7.2,234.4,7.2,243.7,7.2z"/>
<path d="M378.7,519.2c-10-2.3-20.3-3.7-30-6.9c-54.9-18.2-91.2-72.7-86.8-129.5c4.7-60,48-107.9,106.4-117.7
	c72.4-12.2,140.2,38.7,148.4,111.3c0.1,1.3,0.6,2.6,0.9,3.8c0,7.3,0,14.7,0,22c-0.3,1.3-0.8,2.5-0.9,3.9
	c-5.9,51.3-42.4,94.3-92.2,108.2c-7.8,2.2-15.9,3.3-23.9,5C393.4,519.2,386,519.2,378.7,519.2z M446.9,337.3
	c-10.3-14.4-24.7-21-41.2-24.7c0-5.7,0-11.3,0-17.1c-10.9,0-21.2,0-32.1,0c0,5.7,0,11.1,0,16.5c-2.2,0.4-4.1,0.6-5.8,1.2
	c-5.7,1.7-11.7,3-17,5.5c-16.2,7.5-24.3,20.7-24.9,38.4c-0.6,18.1,7.6,31.3,23.2,40c12.5,7,26.3,9.1,40.3,10.1
	c9,0.7,17.9,1.8,25.9,6.4c4.4,2.5,6.8,6.2,6.4,11.5c-0.4,5-3,8.3-7.5,10.3c-1.2,0.5-2.4,1.2-3.7,1.5c-18.4,3.8-36.4,4.8-51.9-9.2
	c-4.3,2.9-8.6,5.7-12.9,8.6c-4.4,2.9-8.7,5.8-14.5,9.7c7.1,5.6,12.9,11.3,19.6,15.2c6.9,4,14.8,6.3,23,9.6c0,4.9,0,10.4,0,16
	c10.9,0,21.2,0,31.9,0c0-5.7,0-11,0-16.1c6.4-1.8,12.6-3,18.5-5.2c18.2-6.8,28.4-20,29.3-39.5c1-19.6-8.3-33.4-25.6-42
	c-11.8-5.9-24.7-7.4-37.6-9c-8.5-1-16.9-3.2-25.1-5.8c-5-1.6-7.9-5.9-7.6-11.7c0.3-5.8,3.5-9.6,8.6-11c19.1-5.3,37.8-6.2,54.6,8.1
	C429.2,349.1,437.8,343.4,446.9,337.3z"/>
<path class="st0" d="M215.7,7.2c-8.9,1.3-17.8,2.2-26.6,3.9C126.7,23,77.9,55.7,42.6,108.3c-21.2,31.6-33,66.6-36,104.6
	c-0.1,1.4-0.6,2.9-0.8,4.3c0-69.9,0-139.8,0-210C75.7,7.2,145.7,7.2,215.7,7.2z"/>
<path class="st0" d="M400.7,519.2c8-1.6,16-2.8,23.9-5c49.8-13.8,86.4-56.9,92.2-108.2c0.1-1.3,0.6-2.6,0.9-3.9c0,39,0,78,0,117
	C478.7,519.2,439.7,519.2,400.7,519.2z"/>
<path d="M261.7,103.6c0,22.3,0,44.3,0,66.3c0,23.5,0,47-0.1,70.4c0,2.1-0.7,4.8-2.1,6.2c-23.1,23.3-46.3,46.5-69.5,69.7
	c-0.5,0.5-1,0.8-1.3,1.1c-15-15.1-29.8-30-45.7-46.1c1.1-0.7,2.9-1.4,4.2-2.7c15.8-15.7,31.5-31.6,47.4-47.3
	c2.3-2.3,3.2-4.6,3.2-7.9c-0.1-34.6-0.1-69.3-0.1-103.9c0-1.8,0-3.6,0-5.8C219,103.6,240,103.6,261.7,103.6z"/>
</svg>
