<?xml version="1.0" encoding="utf-8"?>
<!-- Generator: Adobe Illustrator 19.0.0, SVG Export Plug-In . SVG Version: 6.00 Build 0)  -->
<svg version="1.1" id="圖層_1" xmlns="http://www.w3.org/2000/svg" xmlns:xlink="http://www.w3.org/1999/xlink" x="0px" y="0px"
	 viewBox="0 0 502.2 502.2" style="enable-background:new 0 0 502.2 502.2;" xml:space="preserve">
<path d="M233,91c19,6.7,38,13.4,57,20c19.5,6.8,39,13.4,58.5,20.2c1.4,0.5,2.7,1.1,4.8,1.9c-65.2,63.8-130,127.3-194.8,190.8
	c-17.1-8.5-34-16.8-50.8-25.2c-33.5-16.7-67.1-33.3-100.6-50C5.8,248,4.4,247.5,3,247c0-0.3,0-0.7,0-1c0.9-0.4,1.8-0.7,2.6-1.2
	C79.8,194.4,154,144,228.1,93.6c1.1-0.7,1.9-1.7,2.9-2.6C231.7,91,232.3,91,233,91z"/>
<path d="M370,352.3c-40.9-32.8-81.4-65.2-122.2-98c0.9-1.1,1.6-2.2,2.5-3c36.7-37.5,73.5-74.9,110.3-112.3c1.6-1.7,2.9-3.1,5.9-2.1
	c45.4,16,90.8,31.8,137.1,47.9C458.9,240.7,414.6,296.4,370,352.3z"/>
<path d="M363.5,362.7c-12.1,14.2-23.8,27.8-35.4,41.6c-2.2,2.6-3.9,1.5-6,0.4c-25.8-12.8-51.5-25.6-77.3-38.5
	c-22.9-11.4-45.9-22.8-68.8-34.2c-1.6-0.8-3.2-1.7-5.3-2.8c23.3-22.6,46.4-44.9,69.9-67.7C281.4,295.2,322.3,328.8,363.5,362.7z"/>
</svg>
