<?xml version="1.0" encoding="utf-8"?>
<!-- Generator: Adobe Illustrator 19.0.0, SVG Export Plug-In . SVG Version: 6.00 Build 0)  -->
<svg version="1.1" id="Layer_1" xmlns="http://www.w3.org/2000/svg" xmlns:xlink="http://www.w3.org/1999/xlink" x="0px" y="0px"
	 viewBox="-173 104.5 612 351" style="enable-background:new -173 104.5 612 351;" xml:space="preserve">
<polygon points="167.7,176.8 237.9,176.8 237.9,125.1 45.9,125.1 45.9,176.8 116.1,176.8 116.1,428.7 167.7,428.7 "/>
<path d="M438.5,347.4c0-41.7-27.2-77.2-66.4-88.2v-74.3c10.3,7.2,15.3,18.3,15.3,31.1H439c0-42.7-27.7-77.4-66.9-88.1v-23.4h-51.6
	v23.9c-37.2,11.4-64.8,46.2-64.8,87.4c0,41.3,27.7,76.2,64.8,87.6v73.8c-8.3-7.4-12.7-17.9-12.7-29h-51.6c0,40.5,27.2,75.6,64.4,87
	v20.4h51.6v-20C411.3,424.5,438.5,389,438.5,347.4z M320.5,245.6c-8.3-7.3-13.2-17.9-13.2-29.7c0-11.8,5-22.3,13.2-29.6
	 M372.1,378.4v-61.8c10.3,7.4,14.8,18.5,14.8,30.8C386.9,359.8,382.4,371,372.1,378.4z"/>
<polygon points="19,125.1 -32.6,125.1 -32.6,311.4 -118.1,125.1 -173,125.1 -173,428.7 -121.4,428.7 -121.4,242.4 -34.5,428.7 
	19,428.7 "/>
</svg>
