<?xml version="1.0" encoding="utf-8"?>
<!-- Generator: Adobe Illustrator 19.0.0, SVG Export Plug-In . SVG Version: 6.00 Build 0)  -->
<svg version="1.1" id="圖層_1" xmlns="http://www.w3.org/2000/svg" xmlns:xlink="http://www.w3.org/1999/xlink" x="0px" y="0px"
	 viewBox="0 0 524.4 524.4" style="enable-background:new 0 0 524.4 524.4;" xml:space="preserve">
<path d="M398.7,187.9c-10-14.7-19.7-29-29.4-43.4c-0.8-1.2-2.1-2.4-2.4-3.8c-0.6-2.9-1.7-6.5-0.5-8.6c1-1.8,5.2-2.8,7.8-2.4
	c10,1.5,19.9,3.7,29.9,5.6c30.5,5.9,61.1,11.8,91.6,17.8c6.4,1.3,7.9,3.7,6.6,10.2c-7.7,40-15.4,80-23.1,120
	c-0.7,3.5-1.6,6.6-5.4,7.5c-4.2,1-6.3-1.8-8.4-4.9c-8.2-12.1-16.5-24.2-24.8-36.3c-0.8-1.2-1.8-2.4-2.9-3.8
	c-1.7,1.2-3.2,2.2-4.7,3.2c-47.8,34-95.6,68-143.3,101.9c-7.1,5-8.9,4.8-14.7-1.4c-27.6-29.9-55.2-59.7-82.7-89.7
	c-2.7-2.9-4.4-2.8-7.4-0.8c-49.2,32.7-98.6,65.3-147.9,97.9c-1.4,0.9-2.8,2.6-4.2,2.5c-2.7-0.1-6.1-0.4-8-2
	c-2.6-2.1-1.8-5.5,0.3-8.1c1-1.1,2.1-2.2,3.1-3.2C86.5,288.6,144.5,231,202.6,173.4c6.2-6.1,8.7-6.1,14.7,0.3
	c23.7,25.3,47.4,50.6,71,76c2,2.2,3.5,3.4,6.6,1.5c33.7-20.6,67.4-41,101.2-61.4C396.8,189.3,397.5,188.7,398.7,187.9z"/>
<path d="M293.6,237.1c-13.6-14.8-26.8-29.1-39.9-43.6c-1.1-1.2-1.5-3.3-1.5-5c-0.2-7.3-0.3-14.7,0-22c0.1-3.9-1-5.8-5-7
	c-6.8-2.1-13.6-4.6-20-7.7c-20.6-10-29.6-26.9-28.7-49.4c0.9-21.3,10.3-37.3,30.2-46.1c6.2-2.7,12.9-4.3,19.5-5.8
	c3.3-0.7,4.1-2,4-4.9c-0.1-3.8-0.1-7.7,0.1-11.5c0.3-6.1,5.2-10.7,11-10.8c5.9,0,10.7,4.5,11,10.7c0.2,3.7,0.2,7.3,0.1,11
	c-0.2,3.4,0.7,4.9,4.6,5.4c22,2.9,37.5,14.7,45.8,35.3c1.8,4.4,2.5,9.8,1.8,14.6c-1.2,8.9-8.8,14.9-17.8,15.5
	c-8.7,0.6-15.9-4.3-19.3-12.9c-1.7-4.3-3.2-8.8-5.7-12.6c-1.9-2.9-5.1-4.8-7.8-7.2c-0.4,0.2-0.9,0.5-1.3,0.7
	c-0.1,1.9-0.2,3.8-0.3,5.7c0,11.2,0.1,22.3-0.1,33.5c-0.1,3.5,1.2,5,4.5,5.9c5.8,1.5,11.5,3.4,17.1,5.4
	c37.1,13.1,45.8,53.3,28.8,82.4c-0.7,1.2-1.8,2.5-3,3.3C312.4,225.7,303.2,231.3,293.6,237.1z M274.7,213.5
	c11.7-1.9,20-11.8,20-23.2c0-11-7.9-19.5-20-21.3C274.7,183.7,274.7,198.4,274.7,213.5z M251.8,82.9c-10.9,3-15.3,9.1-14.9,19.9
	c0.3,8.7,5.8,15,14.9,16.7C251.8,107.4,251.8,95.4,251.8,82.9z"/>
<path d="M494.2,404.2c0,29.3,0,58.6,0,88c0,8.7-2.2,10.8-11,10.8c-12.8,0-25.7,0-38.5,0c-7.1,0-9.7-2.6-9.7-9.6
	c0-59.1,0-118.3,0-177.4c0-8,2.4-10.4,10.5-10.4c13,0,26,0,39,0c7,0,9.7,2.6,9.7,9.7C494.2,344.9,494.2,374.5,494.2,404.2z"/>
<path d="M165.1,417.4c0,25.2,0,50.3,0,75.5c0,7.6-2.6,10.1-10.2,10.1c-12.8,0-25.7,0-38.5,0c-8.1,0-10.7-2.5-10.7-10.8
	c0-35.3,0-70.6,0-106c0-14.5,0-29,0-43.5c0-8.5,2.2-10.7,10.6-10.8c13,0,26-0.1,39,0c7.5,0,9.8,2.4,9.8,9.9
	C165.1,367.1,165.1,392.2,165.1,417.4z"/>
<path d="M412,420.4c0,24.2,0,48.3,0,72.5c0,7.5-2.7,10.1-10.3,10.1c-13,0-26,0-39,0c-7.5,0-10.2-2.8-10.2-10.3c0-48.3,0-96.6,0-145
	c0-7.3,2.7-10.1,9.9-10.1c13.3-0.1,26.7-0.1,40,0c6.9,0,9.6,2.9,9.6,9.8C412,371.7,412,396,412,420.4z"/>
<path d="M188.2,420.4c0-24,0-48,0-72c0-8.5,2.4-10.9,11-10.9c12.7,0,25.3,0,38,0c7.6,0,10.2,2.6,10.2,10.2c0,48,0,95.9,0,143.9
	c0,9.3-2.1,11.3-11.5,11.3c-12.7,0-25.3,0-38,0c-7.1,0-9.6-2.6-9.6-9.7C188.2,469,188.2,444.7,188.2,420.4
	C188.2,420.4,188.2,420.4,188.2,420.4z"/>
<path d="M329.9,436.9c0,18.5,0,37,0,55.5c0,7.9-2.7,10.6-10.4,10.6c-13,0-26,0-39,0c-7.3,0-10-2.7-10.1-9.8c0-37.3,0-74.7,0-112
	c0-7.5,2.3-9.9,9.8-9.9c13.3-0.1,26.7,0,40,0c6.9,0,9.7,2.6,9.7,9.6C329.9,399.6,329.9,418.2,329.9,436.9z"/>
<path d="M23.4,446.7c0-15,0-30,0-45c0-7.6,2.7-10.3,10.2-10.3c13.2,0,26.3,0,39.5,0c7.1,0,9.9,2.8,9.9,10c0,30.3,0,60.6,0,90.9
	c0,7.9-2.7,10.6-10.4,10.6c-13.2,0-26.3,0-39.5,0c-6.7,0-9.6-3-9.7-9.8C23.4,477.7,23.4,462.2,23.4,446.7
	C23.4,446.7,23.4,446.7,23.4,446.7z"/>
</svg>
