<?xml version="1.0" encoding="utf-8"?>
<!-- Generator: Adobe Illustrator 19.0.0, SVG Export Plug-In . SVG Version: 6.00 Build 0)  -->
<svg version="1.1" id="圖層_1" xmlns="http://www.w3.org/2000/svg" xmlns:xlink="http://www.w3.org/1999/xlink" x="0px" y="0px"
	 viewBox="-229 99.7 500 279" style="enable-background:new -229 99.7 500 279;" xml:space="preserve">
<style type="text/css">
	.st0{fill:#FFFFFF;}
</style>
<g>
	<path class="st0" d="M-132.8,358.9h73c0,0,60.7-59.3,163-34.8C103.2,324.1-1.2,267.5-132.8,358.9z"/>
	<path class="st0" d="M28.8,99.7c0,0,53.2,118.7,242.2,173.3H143.4c0,0,0,51.8,108.5,105.7c0,0-130.3-22.5-166.4-123.5h61.4
		C146.9,255.2,41.8,187,28.8,99.7z"/>
	<path class="st0" d="M-29.1,170c0,0,16.4,16.4,23.2,20.5c0,0,29.3-28,34.1-58.7C28.2,131.8,2.2,174.1-29.1,170z"/>
	<path class="st0" d="M-52.3,159.7c0,0,47.1,66.2,103.7,79.1H-8C-8,238.9-46.2,217.7-52.3,159.7z"/>
	<path class="st0" d="M-61.9,150.9c0,0-36.2,91.4-167.1,142.6l111.2-16.4c0,0-6.8,49.8-83.2,81.9c0,0,101-8.2,129.6-88.7l109.8-15
		h-152.8C-114.4,255.2-66,209.5-61.9,150.9z"/>
</g>
</svg>
