<?xml version="1.0" encoding="utf-8"?>
<!-- Generator: Adobe Illustrator 19.0.0, SVG Export Plug-In . SVG Version: 6.00 Build 0)  -->
<svg version="1.1" id="圖層_1" xmlns="http://www.w3.org/2000/svg" xmlns:xlink="http://www.w3.org/1999/xlink" x="0px" y="0px"
	 viewBox="0 0 500 362.3" style="enable-background:new 0 0 500 362.3;" xml:space="preserve">
<style type="text/css">
	.st0{fill:#FFFFFF;}
</style>
<g>
	<g>
		<path class="st0" d="M61.1,348.4h-6.9c-0.1,0-0.2,0-0.2,0c-0.1,0-0.2,0.1-0.3,0.2l-0.5,0.3l-0.1-0.1l1.5-2.6h17.2l-1.6,2.6h-0.1
			v-0.2c0-0.1,0-0.2-0.1-0.2c-0.1-0.1-0.2-0.1-0.3-0.1h-6.1V361c0,0.1,0,0.2,0,0.2c0,0.1,0.1,0.1,0.1,0.2l0.3,0.3v0.2h-3.5v-0.2
			l0.3-0.3c0.1,0,0.1-0.1,0.1-0.2c0-0.1,0-0.1,0-0.2V348.4z"/>
		<path class="st0" d="M75.1,361.8h-3.7l10.8-16l10.8,16h-3.7v-0.2c0.2,0,0.3,0,0.4-0.1c0.1-0.1,0.1-0.1,0.1-0.2c0-0.1,0-0.1,0-0.2
			c0-0.1,0-0.1-0.1-0.1l-3.6-5.4h-5.3c-0.2,0-0.4,0-0.5,0c-0.1,0-0.1,0-0.2,0.1l-0.4,0.3l-0.1-0.1l1.5-2.4h3.4l-2.4-3.5l-7.6,11
			c0,0-0.1,0.1-0.1,0.1c0,0.1,0,0.1,0,0.2c0,0.1,0,0.2,0.1,0.2c0.1,0.1,0.2,0.1,0.4,0.1V361.8z"/>
		<path class="st0" d="M94.9,361v-13.8c0-0.1,0-0.1,0-0.2c0-0.1-0.1-0.1-0.1-0.2l-0.3-0.3v-0.2h3.5v0.2l-0.3,0.3
			c-0.1,0.1-0.1,0.1-0.1,0.2c0,0.1,0,0.1,0,0.2V361c0,0.1,0,0.2,0,0.2c0,0.1,0.1,0.1,0.1,0.2l0.3,0.3v0.2h-3.5v-0.2l0.3-0.3
			c0.1,0,0.1-0.1,0.1-0.2C94.9,361.1,94.9,361.1,94.9,361z"/>
		<path class="st0" d="M109.9,348.4c-1,0-1.9,0.1-2.5,0.3c-0.7,0.2-1.2,0.4-1.7,0.8c-0.7,0.6-1.3,1.2-1.7,2
			c-0.4,0.8-0.6,1.6-0.6,2.6c0,1,0.2,1.9,0.6,2.7c0.4,0.8,0.9,1.4,1.7,1.9c0.5,0.4,1.1,0.6,1.7,0.8c0.6,0.2,1.5,0.2,2.6,0.2h7.4
			c0.1,0,0.2,0,0.3,0c0.1,0,0.2-0.1,0.3-0.2l0.5-0.4h0.2l-1.6,2.7h-7c-1.6,0-2.9-0.1-3.8-0.4c-0.9-0.3-1.7-0.7-2.5-1.3
			c-1-0.7-1.7-1.6-2.2-2.6c-0.5-1-0.7-2.1-0.7-3.3c0-0.9,0.1-1.8,0.4-2.7c0.3-0.8,0.7-1.6,1.3-2.3c0.4-0.5,0.8-0.9,1.4-1.3
			c0.5-0.4,1.1-0.7,1.7-1c0.5-0.2,1.1-0.4,1.7-0.5c0.6-0.1,1.5-0.2,2.7-0.2h8.5l-1.6,2.6h-0.1l0-0.2v0c0-0.1,0-0.2-0.1-0.2
			c-0.1-0.1-0.2-0.1-0.3-0.1H109.9z"/>
		<path class="st0" d="M121.3,361v-13.8c0-0.1,0-0.1,0-0.2c0-0.1-0.1-0.1-0.1-0.2l-0.3-0.3v-0.2h3.5v0.2l-0.3,0.3
			c-0.1,0.1-0.1,0.1-0.1,0.2c0,0.1,0,0.1,0,0.2V361c0,0.1,0,0.2,0,0.2c0,0.1,0.1,0.1,0.1,0.2l0.3,0.3v0.2h-3.5v-0.2l0.3-0.3
			c0.1,0,0.1-0.1,0.1-0.2C121.3,361.1,121.3,361.1,121.3,361z M133.3,361v-6.7h-8.1c-0.1,0-0.2,0-0.3,0c-0.1,0-0.2,0.1-0.3,0.2
			l-0.5,0.4l-0.1-0.1l1.5-2.6h7.7v-5c0-0.1,0-0.1,0-0.2c0-0.1-0.1-0.1-0.1-0.2l-0.3-0.3v-0.2h3.5v0.2l-0.3,0.3
			c-0.1,0-0.1,0.1-0.1,0.2c0,0.1,0,0.1,0,0.2V361c0,0.1,0,0.2,0,0.2c0,0.1,0.1,0.1,0.1,0.2l0.3,0.3v0.2h-3.5v-0.2l0.3-0.3
			c0.1,0,0.1-0.1,0.1-0.2C133.3,361.1,133.3,361.1,133.3,361z"/>
		<path class="st0" d="M152.3,357.7v-10.5c0-0.1,0-0.1,0-0.2c0-0.1-0.1-0.1-0.1-0.2l-0.3-0.3v-0.2h3.5v0.2l-0.3,0.3
			c-0.1,0.1-0.1,0.1-0.1,0.2c0,0.1,0,0.1,0,0.2v11.2c0,1.2-0.6,2.2-1.8,2.8c-1.2,0.6-3,0.9-5.4,0.9c-2.4,0-4.2-0.3-5.4-0.9
			c-1.2-0.6-1.8-1.6-1.8-2.8v-11.2c0-0.1,0-0.1,0-0.2c0-0.1-0.1-0.1-0.1-0.2l-0.3-0.3v-0.2h3.5v0.2l-0.3,0.3
			c-0.1,0.1-0.1,0.1-0.1,0.2c0,0.1,0,0.1,0,0.2v10.5c0,0.9,0.3,1.5,1,1.8c0.7,0.3,1.9,0.5,3.6,0.5c1.8,0,3-0.2,3.7-0.5
			C151.9,359.1,152.3,358.5,152.3,357.7z"/>
		<path class="st0" d="M171.3,357.1v-9.9c0-0.1,0-0.1,0-0.2c0-0.1-0.1-0.1-0.1-0.2l-0.3-0.3v-0.2h3.2v0.2l-0.3,0.3
			c-0.1,0.1-0.1,0.1-0.1,0.2c0,0.1,0,0.1,0,0.2v15.2l-12-11.1v9.7c0,0.1,0,0.2,0,0.2c0,0.1,0.1,0.1,0.1,0.2l0.3,0.3v0.2h-3.2v-0.2
			l0.3-0.3c0.1,0,0.1-0.1,0.1-0.2c0-0.1,0-0.1,0-0.2v-15.2L171.3,357.1z"/>
		<path class="st0" d="M185.6,348.4c-1,0-1.9,0.1-2.5,0.3c-0.7,0.2-1.2,0.4-1.7,0.8c-0.7,0.6-1.3,1.2-1.7,2
			c-0.4,0.8-0.6,1.6-0.6,2.6c0,1,0.2,1.9,0.6,2.7c0.4,0.8,0.9,1.4,1.7,1.9c0.5,0.4,1.1,0.6,1.7,0.8c0.6,0.2,1.5,0.2,2.6,0.2h4.1
			v-5.4h-5.4c-0.1,0-0.2,0-0.3,0c-0.1,0-0.2,0.1-0.3,0.2l-0.5,0.4l-0.1-0.1l1.6-2.6h7.5v8.8c0,0.1,0,0.2,0,0.2
			c0,0.1,0.1,0.1,0.1,0.2l0.3,0.3v0.2h-7c-1.6,0-2.9-0.1-3.8-0.4c-0.9-0.3-1.7-0.7-2.5-1.3c-1-0.7-1.7-1.6-2.2-2.6
			c-0.5-1-0.7-2.1-0.7-3.3c0-0.9,0.1-1.8,0.4-2.7c0.3-0.8,0.7-1.6,1.3-2.3c0.4-0.5,0.8-0.9,1.4-1.3c0.5-0.4,1.1-0.7,1.7-1
			c0.5-0.2,1.1-0.4,1.7-0.5c0.6-0.1,1.5-0.2,2.7-0.2h6.5l-1.6,2.6h-0.1l0-0.2v0c0-0.1,0-0.2-0.1-0.2c-0.1-0.1-0.2-0.1-0.3-0.1H185.6
			z"/>
		<path class="st0" d="M212,348.4c-1,0-1.9,0.1-2.5,0.3c-0.7,0.2-1.2,0.4-1.7,0.8c-0.7,0.6-1.3,1.2-1.7,2c-0.4,0.8-0.6,1.6-0.6,2.6
			c0,1,0.2,1.9,0.6,2.7c0.4,0.8,0.9,1.4,1.7,1.9c0.5,0.4,1.1,0.6,1.7,0.8c0.6,0.2,1.5,0.2,2.6,0.2h7.4c0.1,0,0.2,0,0.3,0
			c0.1,0,0.2-0.1,0.3-0.2l0.5-0.4h0.2l-1.6,2.7h-7c-1.6,0-2.9-0.1-3.8-0.4c-0.9-0.3-1.7-0.7-2.5-1.3c-1-0.7-1.7-1.6-2.2-2.6
			c-0.5-1-0.7-2.1-0.7-3.3c0-0.9,0.1-1.8,0.4-2.7c0.3-0.8,0.7-1.6,1.3-2.3c0.4-0.5,0.8-0.9,1.4-1.3c0.5-0.4,1.1-0.7,1.7-1
			c0.5-0.2,1.1-0.4,1.7-0.5c0.6-0.1,1.5-0.2,2.7-0.2h8.5L219,349h-0.1l0-0.2v0c0-0.1,0-0.2-0.1-0.2c-0.1-0.1-0.2-0.1-0.3-0.1H212z"
			/>
		<path class="st0" d="M223.5,361v-13.8c0-0.1,0-0.1,0-0.2c0-0.1-0.1-0.1-0.1-0.2l-0.3-0.3v-0.2h3.5v0.2l-0.3,0.3
			c-0.1,0.1-0.1,0.1-0.1,0.2c0,0.1,0,0.1,0,0.2V361c0,0.1,0,0.2,0,0.2c0,0.1,0.1,0.1,0.1,0.2l0.3,0.3v0.2h-3.5v-0.2l0.3-0.3
			c0.1,0,0.1-0.1,0.1-0.2C223.5,361.1,223.5,361.1,223.5,361z"/>
		<path class="st0" d="M236.5,348.4h-6.9c-0.1,0-0.2,0-0.2,0c-0.1,0-0.2,0.1-0.3,0.2l-0.5,0.3l-0.1-0.1l1.5-2.6h17.3l-1.6,2.6h-0.1
			v-0.2c0-0.1,0-0.2-0.1-0.2c-0.1-0.1-0.2-0.1-0.3-0.1H239V361c0,0.1,0,0.2,0,0.2c0,0.1,0.1,0.1,0.1,0.2l0.3,0.3v0.2H236v-0.2
			l0.3-0.3c0.1,0,0.1-0.1,0.1-0.2c0-0.1,0-0.1,0-0.2V348.4z"/>
		<path class="st0" d="M254.3,361v-5.9l-7.5-8.7h4v0.2l-0.3,0.2c0,0-0.1,0.1-0.1,0.1c0,0,0,0.1,0,0.1c0,0.1,0.1,0.3,0.4,0.6
			c0,0,0.1,0.1,0.1,0.1l4.5,5.3l4.3-5.3c0,0,0-0.1,0.1-0.1c0.3-0.3,0.4-0.5,0.4-0.6c0,0,0-0.1,0-0.1c0,0-0.1-0.1-0.1-0.1l-0.2-0.2
			v-0.2h3.9l-7,8.5v6.1c0,0.1,0,0.2,0,0.2c0,0.1,0.1,0.1,0.1,0.2l0.3,0.3v0.2h-3.5v-0.2l0.3-0.3c0.1,0,0.1-0.1,0.1-0.2
			C254.3,361.1,254.3,361.1,254.3,361z"/>
		<path class="st0" d="M280.9,348.4c-1,0-1.9,0.1-2.5,0.3c-0.7,0.2-1.2,0.4-1.7,0.8c-0.7,0.6-1.3,1.2-1.7,2
			c-0.4,0.8-0.6,1.6-0.6,2.6c0,1,0.2,1.9,0.6,2.7c0.4,0.8,0.9,1.4,1.7,1.9c0.5,0.4,1.1,0.6,1.7,0.8c0.6,0.2,1.5,0.2,2.6,0.2h4.1
			v-5.4h-5.4c-0.1,0-0.2,0-0.3,0c-0.1,0-0.2,0.1-0.3,0.2l-0.5,0.4l-0.1-0.1l1.6-2.6h7.5v8.8c0,0.1,0,0.2,0,0.2
			c0,0.1,0.1,0.1,0.1,0.2l0.3,0.3v0.2h-7c-1.6,0-2.9-0.1-3.8-0.4c-0.9-0.3-1.7-0.7-2.5-1.3c-1-0.7-1.7-1.6-2.2-2.6
			c-0.5-1-0.7-2.1-0.7-3.3c0-0.9,0.1-1.8,0.4-2.7c0.3-0.8,0.7-1.6,1.3-2.3c0.4-0.5,0.8-0.9,1.4-1.3c0.5-0.4,1.1-0.7,1.7-1
			c0.5-0.2,1.1-0.4,1.7-0.5c0.6-0.1,1.5-0.2,2.7-0.2h6.5l-1.6,2.6h-0.1l0-0.2v0c0-0.1,0-0.2-0.1-0.2c-0.1-0.1-0.2-0.1-0.3-0.1H280.9
			z"/>
		<path class="st0" d="M300.1,346.1c1.3,0,2.5,0.2,3.6,0.5c1.1,0.3,2.1,0.8,2.9,1.4c1,0.8,1.8,1.7,2.3,2.7c0.5,1,0.8,2.1,0.8,3.3
			c0,1.2-0.3,2.3-0.8,3.3c-0.5,1-1.3,1.9-2.3,2.7c-0.8,0.6-1.8,1.1-2.9,1.4c-1.1,0.3-2.3,0.5-3.6,0.5c-1.3,0-2.5-0.2-3.6-0.5
			c-1.1-0.3-2.1-0.8-2.9-1.4c-1-0.8-1.8-1.7-2.3-2.7c-0.5-1-0.8-2.1-0.8-3.3c0-1.2,0.3-2.3,0.8-3.3c0.5-1,1.3-1.9,2.3-2.7
			c0.8-0.6,1.8-1.1,2.9-1.4C297.7,346.2,298.9,346.1,300.1,346.1z M300.1,348.2c-2.1,0-3.7,0.6-5,1.7c-1.3,1.1-1.9,2.5-1.9,4.3
			c0,1.7,0.6,3.2,1.9,4.3c1.3,1.1,3,1.7,5,1.7s3.7-0.6,5-1.7c1.3-1.1,2-2.5,2-4.3c0-1.7-0.6-3.2-2-4.3
			C303.9,348.7,302.2,348.2,300.1,348.2z"/>
		<path class="st0" d="M319.3,357.6l5.7-9.9c0.1-0.2,0.2-0.3,0.2-0.4c0-0.1,0.1-0.2,0.1-0.3c0,0,0-0.1,0-0.1c0,0,0-0.1-0.1-0.1
			l-0.2-0.2v-0.2h3.6l-9.2,16l-9.2-16h3.7v0.2l-0.2,0.2c0,0-0.1,0.1-0.1,0.1c0,0.1,0,0.1,0,0.1c0,0.1,0,0.2,0.1,0.3
			c0,0.1,0.1,0.3,0.2,0.4L319.3,357.6z"/>
		<path class="st0" d="M337.9,348.4c-1,0-1.9,0.1-2.5,0.3c-0.7,0.2-1.2,0.4-1.7,0.8c-0.7,0.6-1.3,1.2-1.7,2
			c-0.4,0.8-0.6,1.6-0.6,2.6c0,1,0.2,1.9,0.6,2.7c0.4,0.8,0.9,1.4,1.7,1.9c0.5,0.4,1.1,0.6,1.7,0.8c0.6,0.2,1.5,0.2,2.6,0.2h7.4
			c0.1,0,0.2,0,0.3,0c0.1,0,0.2-0.1,0.3-0.2l0.5-0.4h0.2l-1.6,2.7h-7c-1.6,0-2.9-0.1-3.8-0.4c-0.9-0.3-1.7-0.7-2.5-1.3
			c-1-0.7-1.7-1.6-2.2-2.6c-0.5-1-0.7-2.1-0.7-3.3c0-0.9,0.1-1.8,0.4-2.7c0.3-0.8,0.7-1.6,1.3-2.3c0.4-0.5,0.8-0.9,1.4-1.3
			c0.5-0.4,1.1-0.7,1.7-1c0.5-0.2,1.1-0.4,1.7-0.5c0.6-0.1,1.5-0.2,2.7-0.2h8.5l-1.6,2.6h-0.1l0-0.2v0c0-0.1,0-0.2-0.1-0.2
			c-0.1-0.1-0.2-0.1-0.3-0.1H337.9z M332,354.4l1-2.1h11.8l-1.6,2.7h-0.1l0-0.2v0c0-0.1,0-0.2-0.1-0.2c-0.1-0.1-0.2-0.1-0.3-0.1H332
			z"/>
		<path class="st0" d="M358.5,346.4c1.2,0,2.2,0.3,3,0.9c0.8,0.6,1.3,1.4,1.5,2.4l-4.3,2.9c2.1,0.3,3.7,1.2,5,2.7
			c1.2,1.5,1.8,3.4,1.8,5.7v0.9h-3v-0.2l0.3-0.3c0.1,0,0.1-0.1,0.1-0.2c0-0.1,0-0.1,0-0.2v-0.5c0-1.8-0.6-3.3-1.9-4.5
			c-1.2-1.2-2.8-1.8-4.7-1.8c-0.2,0-0.5,0-0.8,0c-0.3,0-0.6,0-0.9,0.1l4.6-3.2c0.3-0.2,0.6-0.5,0.7-0.6c0.1-0.2,0.2-0.4,0.2-0.6
			c0-0.4-0.2-0.8-0.6-1c-0.4-0.3-1-0.4-1.7-0.4h-6V361c0,0.1,0,0.2,0,0.2c0,0.1,0.1,0.1,0.1,0.2l0.3,0.3v0.2h-3.5v-0.2l0.3-0.3
			c0.1,0,0.1-0.1,0.1-0.2c0-0.1,0-0.1,0-0.2v-13.8c0-0.1,0-0.1,0-0.2c0-0.1-0.1-0.1-0.1-0.2l-0.3-0.3v-0.2H358.5z"/>
		<path class="st0" d="M380.2,357.1v-9.9c0-0.1,0-0.1,0-0.2c0-0.1-0.1-0.1-0.1-0.2l-0.3-0.3v-0.2h3.2v0.2l-0.3,0.3
			c-0.1,0.1-0.1,0.1-0.1,0.2c0,0.1,0,0.1,0,0.2v15.2l-12-11.1v9.7c0,0.1,0,0.2,0,0.2c0,0.1,0.1,0.1,0.1,0.2l0.3,0.3v0.2h-3.2v-0.2
			l0.3-0.3c0.1,0,0.1-0.1,0.1-0.2c0-0.1,0-0.1,0-0.2v-15.2L380.2,357.1z"/>
		<path class="st0" d="M395.9,357.7l6.1-11.9l4.7,16h-3.1v-0.2l0.3-0.3c0,0,0.1-0.1,0.1-0.2c0-0.1,0-0.1,0-0.2c0,0,0-0.1,0-0.2
			c0-0.1,0-0.2-0.1-0.3l-2.6-9.1l-5.5,10.8l-5.8-10.7l-2.4,9c0,0.1,0,0.2-0.1,0.2c0,0.1,0,0.1,0,0.2c0,0.1,0,0.2,0,0.2
			c0,0.1,0.1,0.1,0.1,0.2l0.3,0.3v0.2h-3.1l4.8-16L395.9,357.7z"/>
		<path class="st0" d="M417.1,348.4c-1,0-1.9,0.1-2.5,0.3c-0.7,0.2-1.2,0.4-1.7,0.8c-0.7,0.6-1.3,1.2-1.7,2
			c-0.4,0.8-0.6,1.6-0.6,2.6c0,1,0.2,1.9,0.6,2.7c0.4,0.8,0.9,1.4,1.7,1.9c0.5,0.4,1.1,0.6,1.7,0.8c0.6,0.2,1.5,0.2,2.6,0.2h7.4
			c0.1,0,0.2,0,0.3,0c0.1,0,0.2-0.1,0.3-0.2l0.5-0.4h0.2l-1.6,2.7h-7c-1.6,0-2.9-0.1-3.8-0.4c-0.9-0.3-1.7-0.7-2.5-1.3
			c-1-0.7-1.7-1.6-2.2-2.6c-0.5-1-0.7-2.1-0.7-3.3c0-0.9,0.1-1.8,0.4-2.7c0.3-0.8,0.7-1.6,1.3-2.3c0.4-0.5,0.8-0.9,1.4-1.3
			c0.5-0.4,1.1-0.7,1.7-1c0.5-0.2,1.1-0.4,1.7-0.5c0.6-0.1,1.5-0.2,2.7-0.2h8.5l-1.6,2.6h-0.1l0-0.2v0c0-0.1,0-0.2-0.1-0.2
			c-0.1-0.1-0.2-0.1-0.3-0.1H417.1z M411.2,354.4l1-2.1h11.8l-1.6,2.7h-0.1l0-0.2v0c0-0.1,0-0.2-0.1-0.2c-0.1-0.1-0.2-0.1-0.3-0.1
			H411.2z"/>
		<path class="st0" d="M440.4,357.1v-9.9c0-0.1,0-0.1,0-0.2c0-0.1-0.1-0.1-0.1-0.2l-0.3-0.3v-0.2h3.2v0.2l-0.3,0.3
			c-0.1,0.1-0.1,0.1-0.1,0.2c0,0.1,0,0.1,0,0.2v15.2l-12-11.1v9.7c0,0.1,0,0.2,0,0.2c0,0.1,0.1,0.1,0.1,0.2l0.3,0.3v0.2h-3.2v-0.2
			l0.3-0.3c0.1,0,0.1-0.1,0.1-0.2c0-0.1,0-0.1,0-0.2v-15.2L440.4,357.1z"/>
		<path class="st0" d="M452.7,348.4h-6.9c-0.1,0-0.2,0-0.2,0c-0.1,0-0.2,0.1-0.3,0.2l-0.5,0.3l-0.1-0.1l1.5-2.6h17.3l-1.6,2.6h-0.1
			v-0.2c0-0.1,0-0.2-0.1-0.2c-0.1-0.1-0.2-0.1-0.3-0.1h-6.1V361c0,0.1,0,0.2,0,0.2c0,0.1,0.1,0.1,0.1,0.2l0.3,0.3v0.2h-3.5v-0.2
			l0.3-0.3c0.1,0,0.1-0.1,0.1-0.2c0-0.1,0-0.1,0-0.2V348.4z"/>
	</g>
</g>
<g>
	<path class="st0" d="M96.2,259.2h73c0,0,60.7-59.3,163-34.8C332.2,224.4,227.8,167.8,96.2,259.2z"/>
	<path class="st0" d="M257.8,0c0,0,53.2,118.7,242.2,173.3H372.4c0,0,0,51.8,108.5,105.7c0,0-130.3-22.5-166.4-123.5h61.4
		C375.9,155.5,270.8,87.3,257.8,0z"/>
	<path class="st0" d="M199.9,70.3c0,0,16.4,16.4,23.2,20.5c0,0,29.3-28,34.1-58.7C257.2,32.1,231.2,74.4,199.9,70.3z"/>
	<path class="st0" d="M176.7,60c0,0,47.1,66.2,103.7,79.1H221C221,139.2,182.8,118,176.7,60z"/>
	<path class="st0" d="M167.1,51.2c0,0-36.2,91.4-167.1,142.6l111.2-16.4c0,0-6.8,49.8-83.2,81.9c0,0,101-8.2,129.6-88.7l109.8-15
		H114.6C114.6,155.5,163,109.8,167.1,51.2z"/>
</g>
<g>
	<path class="st0" d="M211.6,290.4c-3.5-2.4-5.6-3.6-6.3-3.6c-0.5,0-1.6,0.8-3.3,2.4c-4.3,0-8.6,0.2-12.6,0.7v-7.8
		c0-0.1,0.5-0.5,1.6-1.1c0.3-0.2,0.5-0.4,0.5-0.7c0-0.6-3.5-1.3-10.4-2c0.3,2,0.4,4.9,0.4,8.7l0,4c-5.2,1-9.5,2.4-12,4.3v-5.5
		c-2.7-0.7-5.4-1.4-8.3-2c0.3,2.3,0.5,5.1,0.5,8.6v3.5c0,0.9-0.1,4.8-0.3,11.6v0.1c0,0.7,1,1,2.8,1c3.5,0,5.2-0.6,5.2-1.7v-2.6h12
		v9.1c0,0.6-0.1,4-0.2,10.1v0.1c0,0.7,0.7,1,2.2,1c4.1,0,6.2-0.5,6.2-1.6c-0.2-5.1-0.2-7.9-0.2-8.6v-10.1h12.5v3.2
		c0,0.7,0.9,1.1,2.6,1.1c3.7,0,5.6-0.6,5.6-1.7c-0.2-6.7-0.2-10.4-0.2-11.1v-6c0-0.1,0.6-0.7,1.7-1.8c0.3-0.2,0.5-0.5,0.5-0.7
		C212,290.8,211.9,290.6,211.6,290.4z M169.4,306.9v-9.9c1.8-1.7,6-3.3,12-4.5l0,14.4H169.4z M189.3,306.9v-15.6h0v0
		c3.8-0.4,8-0.7,12.5-0.7v16.3H189.3z"/>
	<path class="st0" d="M100.7,303.1c0.1,0.4,0.1,0.9,0.1,1.4c0,3.7-1.6,5.6-4.8,5.6c-2.3,0-3.5-1-3.5-2.9c0-1.3,0.7-2.3,2.1-2.9
		c2.5-1.1,3.9-3,4.1-5.6l1-0.1c0.4,1.4,0.7,2.5,0.8,3.2h36.9c2.1-1.9,3.4-2.9,4-2.9c0.6,0,2.4,1.2,5.4,3.6c0.1,0,0.1,0.1,0.2,0.1
		c0.2,0.2,0.3,0.4,0.3,0.7c0,0.5-0.3,0.8-0.8,0.9c-1.2,0.1-1.9,0.2-2,0.3c-1.8,1.9-3.7,3.5-5.8,4.9l-1-0.5c0.1-1,0.2-1.9,0.2-2.9
		c0-0.3,0-0.6,0-1c0-0.7,0-1.4-0.1-2H100.7z M136.3,326.1c2.7-3.1,4.2-4.7,4.5-4.7c0.4,0,1.6,0.8,3.5,2.5c1.9,1.6,2.8,2.6,2.8,2.9
		c0,0.4-0.1,0.6-0.4,0.6h-42c-4.5,0-7.8,0.1-9.8,0.4l-1.2-2.2c2.5,0.4,6.5,0.6,11.9,0.6h10.2v-5h-6.5c-4.5,0-7.8,0.1-9.8,0.4
		l-1.2-2.2c2.5,0.4,6.5,0.5,11.9,0.5h5.6v-3.8c-3.5,0.6-7.3,0.9-11.4,1.1c-0.1,0-0.3,0.4-0.5,1.1c-0.2,0.4-0.4,0.5-0.7,0.5
		c-0.5,0-1.3-2.6-2.4-7.8c2.8,0.5,5.6,0.8,8.4,1c0.7-1,1.3-2.4,1.6-4.1c-3.8,0-6.4,0.1-7.8,0.3l-1-2.1c2.3,0.3,5.4,0.5,9.3,0.5H127
		c2.4-2.2,3.7-3.4,4-3.4c0.4,0,1.5,0.6,3.2,1.8c1.7,1.2,2.6,2,2.6,2.2c0,0.4-0.2,0.6-0.6,0.6h-16.3c-1.3,1-2.9,1.9-4.9,2.8
		c-2,0.9-3.2,1.3-3.5,1.3c0.5,0.1,3.1,0.2,7.9,0.2c3.8,0,8.3-0.1,13.4-0.4c-1.6-1.2-2.8-2-3.8-2.4l0.3-0.5c0,0,0.1,0,0.2,0
		c7.5,0,11.3,1.6,11.3,4.9c0,2-0.9,3-2.8,3c-0.9,0-1.6-0.5-2.3-1.6c-0.9-1.6-1.6-2.5-1.9-2.5c-2.9,0.9-6.2,1.7-9.8,2.5v4.5h5.5
		c2.6-2.9,4-4.3,4.4-4.3c0.4,0,1.5,0.7,3.3,2.2c1.8,1.5,2.7,2.4,2.7,2.7c0,0.4-0.1,0.6-0.4,0.6h-15.6v4.9L136.3,326.1z M109.9,290.1
		c-4.5,0-7.8,0.1-9.8,0.4l-1.2-2.2c2.4,0.4,6.4,0.5,11.9,0.5h4.9v-3.7h-10c-4.5,0-7.7,0.1-9.8,0.4l-1.2-2.2
		c2.4,0.4,6.4,0.5,11.9,0.5h9.1c0-0.1,0-0.2,0-0.4c0-1.4-0.1-2.8-0.3-4.3c6.6,0.6,9.9,1.2,9.9,1.8c0,0.3-0.2,0.5-0.6,0.6
		c-1,0.3-1.5,0.6-1.5,0.7v1.5h12c2.6-2.8,4.1-4.2,4.3-4.2c0.3,0,1.5,0.7,3.3,2.2c1.9,1.5,2.8,2.4,2.8,2.6c0,0.4-0.2,0.6-0.6,0.6
		h-21.9v3.7h7.9c2.6-2.4,4-3.6,4.2-3.6c0.3,0,1.4,0.7,3.3,2c1.8,1.3,2.7,2,2.7,2.3c0,0.4-0.2,0.6-0.6,0.6H109.9z M138.2,295.6
		c0,0.8,0,1.6,0.1,2.5v1c0,0.8-1.8,1.2-5.4,1.2c-1.4,0-2.1-0.3-2.1-0.9v-0.8h-21.7v0.8c0,0.7-1.6,1.1-4.9,1.1
		c-1.7,0-2.6-0.4-2.6-1.1c0-1.1,0.1-2.5,0.1-4.3c0-1.1-0.1-2.6-0.3-4.3c2.1,0.3,4.7,0.9,8,1.8h21c2-1.6,3.2-2.4,3.5-2.4
		c0.4,0,1.5,0.5,3.3,1.4c1.8,0.9,2.7,1.5,2.7,1.8c0,0.3-0.2,0.6-0.6,0.9c-0.7,0.4-1,0.7-1,0.7L138.2,295.6z M130.9,294h-21.7v3.5
		h21.7V294z"/>
	<path class="st0" d="M236.5,288.8c-4.6,0-7.8,0.1-9.5,0.3l-1.1-2.3c2.8,0.4,7,0.5,12.5,0.5h30.4c2.2-2.5,3.7-4.2,4.4-5
		c0.1-0.1,0.3-0.2,0.6-0.2c0.3,0,1.6,0.9,3.8,2.7c2.1,1.8,3.2,2.9,3.2,3.2c0,0.5-0.2,0.7-0.7,0.7L236.5,288.8z M275.2,314.1
		c0,3.4-2.7,5.5-8.1,6.6l-0.1,0.1c-0.5,0.1-0.9,0.1-1.1,0.1c-0.7,0-1-0.3-1-0.9c-0.2-2.4-0.7-3.9-1.5-4.4c-0.8-0.5-1.9-1-3.4-1.4
		l0.2-1.1c1.5,0.1,3.2,0.2,4.9,0.2c0.3,0,0.6,0,1,0c0.8,0,1.2-0.4,1.2-1.1v-12.4h-9.7v16.7c0,2.5,0,6.1,0.1,10.7
		c0,0.7-1.5,1.1-4.4,1.3h-0.1c-0.9,0.1-1.6,0.1-2,0.1c-1.5,0-2.2-0.3-2.2-1c0.1-5.4,0.1-9.5,0.1-12.2v-15.6h-9.1v12.9
		c0,0.9,0,3.7,0.1,8.3c0,0.9-2,1.4-6,1.4c-1.4,0-2.2-0.3-2.2-1c0.1-5.4,0.1-8.6,0.1-9.5v-6.5c0-5-0.1-8.2-0.3-9.7
		c1.9,0.5,3.4,0.9,4.5,1.3c1.4,0.5,2.8,1,4.2,1.4h8.6c0-0.1,0-0.3,0-0.5c0-3.4-0.2-6.1-0.5-8c3.1,0.5,5.7,0.9,7.8,1.2
		c2.2,0.3,3.3,0.7,3.3,1.1c0,0.3-0.3,0.6-0.8,0.8c-1,0.5-1.4,0.8-1.4,1v4.4h8.9c2.7-2.2,4.2-3.4,4.5-3.4c0.3,0,1.5,0.7,3.5,2
		c2,1.3,3,2.1,3,2.5c0,0.3-0.2,0.5-0.5,0.7c-1.3,0.9-1.9,1.4-1.9,1.7V314.1z M244.5,279.1l0.3-0.9c0.7,0,1.5-0.1,2.4-0.1
		c7.3,0,11,1.8,11,5.3c0,2.5-1.4,3.8-4.1,3.8c-1.9,0-3.1-0.8-3.7-2.4C249,281.9,247,279.9,244.5,279.1z"/>
	<path class="st0" d="M320.6,300.4h-6.3v15.7c2.6-0.4,5.4-1.1,8.2-1.9l0.4,1c-7.8,5.2-16,8.9-24.8,10.9c-0.1,0-0.2,0.5-0.3,1.4
		c-0.1,0.5-0.3,0.8-0.7,0.8c-0.6,0-2-3.2-4.2-9.6c1.6,0,3-0.1,4.1-0.2v-14.8c0-4.2-0.2-7.5-0.6-10.1c5.8,0.8,8.7,1.5,8.7,1.9
		c0,0.3-0.2,0.5-0.6,0.6c-0.7,0.3-1.1,0.6-1.1,0.7v20.8c1.7-0.2,2.9-0.4,3.8-0.5v-32.1h-3.8c-1.1,0-2.2,0-3.4,0.1
		c-0.3,0-0.5,0-0.6,0c-1.9,0-3.4,0.1-4.3,0.3l-1.2-2.2c2.6,0.4,6.2,0.5,10.8,0.5h6.7c2.6-3.4,4.2-5,4.6-5c0.5,0,1.7,0.9,3.7,2.6
		c1.9,1.8,2.9,2.9,2.9,3.2c0,0.4-0.2,0.6-0.5,0.6h-7.9v13.9c1.4-3.6,2.3-5.3,2.6-5.3c0.5,0,1.9,1.8,4.1,5.4
		c2.1-6.6,3.1-13.6,3.1-20.9c3,0.6,5.5,1.1,7.5,1.5c1.9,0.4,2.9,0.8,2.9,1.2c0,0.3-0.3,0.6-0.8,0.7c-0.9,0.3-1.3,0.5-1.3,0.6
		c-0.8,3.2-1.7,6.1-2.8,8.8h6c2.4-3.2,3.7-4.9,4.1-4.9c0.4,0,1.7,0.9,3.7,2.6c2.1,1.7,3.1,2.7,3.1,3c0,0.4-0.2,0.5-0.6,0.5h-3.1
		c-0.3,3.9-1.3,8-2.8,12.2c-1.5,4.3-3.2,7.6-5,9.8c0,0.3,1.3,1.2,3.8,2.7c2.5,1.5,5.4,2.8,8.5,3.8l-0.1,0.7
		c-1.5,0.1-2.6,1.9-3.3,5.2c-0.3,1.1-0.7,1.7-1.2,1.7c-0.9,0-2.8-1.1-5.7-3.3c-2.9-2.2-5.1-4.3-6.5-6.3c-5,4.4-11.3,7.6-19,9.5
		l-0.6-0.8c7.3-3.3,13-7.8,16.9-13.4c-1.7-3.3-2.7-8.2-3.1-14.7c0,0.1-0.7,1-2.1,2.7c-1.4,1.7-2.5,2.9-3.4,3.6l-0.9-0.6
		C319.2,303.9,319.9,302.3,320.6,300.4z M335,292.4h-6c-1,2.2-2,4-2.8,5.5c0,0.1,0.5,1.7,1.4,4.8c0.9,3.1,2,5.5,3.1,7.2
		C333.3,305,334.7,299.2,335,292.4z"/>
	<path class="st0" d="M363.9,291.8c0-3.6-0.2-6.4-0.5-8.5c3.1,0.7,6,1.5,8.7,2.4h14.5c-0.4-0.2-0.8-0.7-1.1-1.4
		c-0.9-2.5-2.6-4.2-5.1-5l0.3-0.8c1.2-0.1,2.6-0.2,4.1-0.2c5.8,0,8.7,1.5,8.7,4.4c0,1.4-0.6,2.4-1.8,3h10.2c2.5-3.2,4-4.9,4.6-4.9
		c0.4,0,1.6,0.8,3.6,2.5c2.1,1.7,3.1,2.7,3.1,3c0,0.4-0.2,0.6-0.7,0.6h-40.9v9.9c0,9.7-1,16.7-3,21c-2.1,4.3-4.8,7.6-8.1,10
		l-0.8-0.5c2.8-5.8,4.2-15.9,4.2-30.1V291.8z M379.3,288.3c6.5,1.3,9.8,2.3,9.8,2.9c0,0.3-0.2,0.5-0.7,0.6c-1.2,0.3-1.8,0.5-1.9,0.6
		c0,0-0.2,0.4-0.4,1.1c-1,3-2.1,5.4-3.2,7.3c1.4,0.5,2.2,0.9,2.2,1.2c0,0.3-0.2,0.5-0.5,0.6c-0.8,0.4-1.2,0.7-1.2,1v14.9
		c0,0.5,0.1,3.4,0.3,8.7c0,0.9-2,1.4-6,1.4c-1.2,0-1.7-0.4-1.7-1.1c0.2-4.7,0.2-7.9,0.2-9.8v-8.9c-1.5,1.4-3,2.6-4.5,3.5l-0.6-0.5
		c1.8-2.7,3.5-6.4,5.2-11.1C377.8,296,378.9,291.9,379.3,288.3z M393.9,300.1c-3.6,0-6.2,0.1-7.6,0.3l-1.1-2.1
		c2.4,0.3,5.5,0.5,9.3,0.5h4.4v-2.1c0-3-0.2-5.6-0.6-7.9c6.6,0.7,9.9,1.4,9.9,1.8c0,0.3-0.2,0.6-0.6,0.7c-1,0.5-1.5,0.8-1.5,1.1v6.4
		h0.3c1.5-3.8,2.5-5.7,3-5.7c0.3,0,1.2,1,2.6,2.9c1.4,1.9,2.1,3.1,2.1,3.4c0,0.3-0.1,0.5-0.4,0.5h-7.6v21.7c0,3.5-2.4,5.7-7.1,6.6
		H399c-0.4,0.1-0.8,0.2-1.1,0.2c-0.6,0-1-0.3-1.1-0.8c-0.3-1.9-0.7-3.2-1.3-3.8c-0.6-0.7-2.3-1.4-5.1-2.1l0.2-1c2,0.1,4,0.2,5.9,0.2
		c0.3,0,0.6,0,0.9,0c1,0,1.5-0.4,1.5-1.2v-19.6H393.9z M386.3,304.2l0.6-0.6c2.6,0.4,4.8,1.4,6.7,2.8c1.9,1.4,2.8,3,2.8,4.8
		c0,2.5-1.4,3.7-4.2,3.7c-2.1,0-3.1-1.2-3.1-3.5C389.1,308.2,388.1,305.8,386.3,304.2z"/>
</g>
</svg>
