<?xml version="1.0" encoding="utf-8"?>
<!-- Generator: Adobe Illustrator 19.0.0, SVG Export Plug-In . SVG Version: 6.00 Build 0)  -->
<svg version="1.1" id="圖層_1" xmlns="http://www.w3.org/2000/svg" xmlns:xlink="http://www.w3.org/1999/xlink" x="0px" y="0px"
	 viewBox="0 0 798.9 519.2" style="enable-background:new 0 0 798.9 519.2;" xml:space="preserve">
<style type="text/css">
	.st0{fill:#5D5D5D;}
</style>
<path class="st0" d="M290,220.5c-3.9,1.3-7.8,2.7-11.8,4c-36.5,12.3-73.5,22.8-111.3,30.2c-16.6,3.3-33.4,5.9-50.3,7.6
	c-10.3,1-20.5,1.9-30.9,1.9c-8.2,0-16.5,0.2-24.7-0.2c-19.6-0.9-38.8-3.9-57.5-10c-1-0.3-2-0.7-2.9-1c-0.1,0-0.2-0.2-0.6-0.5
	c0.7-0.1,1.1-0.3,1.6-0.3c13,0,25.9-0.9,38.8-2.2c34.3-3.3,68.2-9,101.6-17.1c35.4-8.6,69.9-19.6,103.5-33.5
	c43.8-18.1,85.2-40.6,123.7-68.2c16.7-12,32.9-24.7,48.1-38.6c9.2-8.4,18.1-17.1,27.1-25.9c3.8-3.7,7.4-7.8,11-11.7
	c0.7-0.7,1.2-1.5,2.1-2.4c0.8,0.9,1.4,1.5,1.9,2.2c15.9,22.2,31.7,44.4,47.6,66.6c0.5,0.6,0.9,1.3,1.5,2.2c-0.8,0.3-1.5,0.5-2.1,0.7
	c-19.7,4.1-38.5,10.7-56.7,19.1c-24.8,11.4-48,25.6-70,41.7c-13.5,9.9-27,19.8-39.8,30.5c-9.5,7.9-18.6,16.1-27.5,24.7
	c-18.1,17.6-34.4,36.6-48.6,57.4c-13.6,19.8-25.2,40.6-33.8,63.1c-3.9,10.3-6.9,20.8-8.5,31.7c-1.6,10.7-1.7,21.4,1.2,31.9
	c3.3,12,10,21.5,21.3,27.4c5.2,2.7,10.8,4.2,16.7,4.9c8.9,1,17.3-0.7,25.7-3.4c11.8-3.8,22.8-8.9,32.6-16.5
	c14.2-11,24-24.9,28.2-42.5c2.4-10,2.4-20-1.2-29.8c-2.7-7.4-7.3-13.3-14.6-16.7c-6.5-3-13.2-2.9-19.9-1.2
	c-7.7,2-14.5,5.9-20.9,10.5c-7,5.1-13.4,10.9-19.2,17.4c-1.5,1.6-2.5,3.7-3.7,5.6c-0.5,0.7-0.8,1.5-1.3,2.2
	c-0.2-0.1-0.3-0.1-0.5-0.2c0.4-1,0.8-2,1.2-3.1c4.3-10.8,9.7-21,15.8-31c11-18.1,23.9-34.8,38.2-50.4c22.3-24.5,47.3-45.9,74.2-65
	c24.7-17.6,50.7-32.9,77.7-46.7c34.9-17.8,71.1-32.5,108.2-45.1c12-4.1,23.9-8.6,36.1-12.3c7.2-2.2,13.6-5.5,19.8-9.7
	c44.4-30.4,92.2-53.7,143.4-70.3c1.7-0.5,3.4-1,5.1-1.5c0.1,0,0.3,0,1,0.1c-31.3,17.9-59.4,39.3-85.5,63.4c0,0.2,0.1,0.4,0.1,0.6
	c0.9,0,1.8,0.2,2.7,0.1c8.7-0.2,17.3,0.2,25.8,1.9c9.3,1.8,18.3,4.6,26.4,9.9c7,4.5,12.5,10.3,14.8,18.5c2.4,8.5,2.9,17.2,0.6,25.8
	c-2.6,9.8-7.9,18.1-14.5,25.7c-9.3,10.7-20.4,19.1-32.4,26.5c-3.6,2.2-7.3,4.2-11.3,6.6c0.2-0.7,0.2-0.9,0.3-1.1
	c6.5-5.6,9.6-13,11.3-21.2c1.2-5.9,1.4-11.9-0.5-17.8c-3.6-11.3-11.3-18.5-22.2-22.6c-9.8-3.7-19.9-3.5-30-1.3
	c-12.2,2.6-22.8,8.3-32.6,15.7c-16.9,12.9-31,28.3-42.9,45.9c-15.5,22.9-26.2,47.9-33.6,74.5c-3.8,13.7-6.5,27.7-8.7,41.8
	c-0.3,1.7-0.6,3.3-0.8,5c0,0.2,0.1,0.5,0.2,1c0.7,0.1,1.4,0.3,2.2,0.3c11.4,0.2,22.7,0.9,34.1,0.4c29.4-1.2,58.1-6.4,85.8-16.6
	c10.8-4,21.1-8.8,30.8-15.1c7.1-4.7,13.8-9.9,18.9-16.8c4.5-6.2,7-12.9,6.7-20.8c-0.3-7.3-1.7-14.1-5.5-20.3
	c-6.6-10.7-16.4-17.1-28.6-19.7c-5.8-1.2-11.6-1.3-17.4-0.2c-0.7,0.1-1.4,0.1-2.3-0.3c0.6-0.3,1.1-0.6,1.7-0.9
	c9.4-3.5,19-6.1,28.9-7.9c8.9-1.6,17.9-2.3,27-1.9c11.1,0.5,21.7,2.7,31.7,7.7c6.2,3.1,11.4,7.7,16.2,12.7c6,6.3,10.7,13.5,13.3,22
	c2.7,8.7,2.8,17.6-0.1,26.2c-2.9,8.9-7.7,16.8-13.8,24c-9.7,11.4-21.3,20.2-34.1,27.8c-18.1,10.7-37.5,18.3-57.6,24
	c-16.9,4.8-34,8.1-51.5,10.2c-11.9,1.4-23.9,2.4-35.9,2.4c-6.9,0-13.8,0.2-20.6-0.2c-9.8-0.6-19.6-1.7-29.4-2.5
	c-0.9-0.1-1.7-0.1-2.6-0.2c-0.8,2-0.5,4-0.3,5.8c1,10,3,19.7,7.3,28.9c2,4.4,4.8,8.3,8,11.9c13.5,15.1,30.3,24,50.3,26.8
	c12.4,1.7,24.6,0.4,36.7-2.2c18.9-4,36.9-10.4,54.1-19.1c18.8-9.5,35.9-21.5,51.1-36.2c6.1-5.9,11.8-12.2,17.1-18.8
	c0.4-0.5,0.9-1,1.8-1.3c-0.3,0.9-0.6,1.8-0.9,2.6c-7.8,20.3-18.7,38.9-32.1,56c-15,19-32.7,35-53.6,47.5
	c-20.9,12.4-43.3,20.4-67.3,24.3c-13.6,2.2-27.3,3.6-41.1,2.7c-25.3-1.7-48.6-9.2-68.6-25.5c-9.8-8-17.1-18-23-29.2
	c-6.5-12.6-10.3-26-12.5-39.9c-1.6-10.5-1.7-21-1-31.6c0.4-6.1,0.9-12.1,1.3-18.2c0.1-1.7,0.1-1.7-1.8-2.6
	c-5.9-2.8-11.9-5.5-17.7-8.6c-7.9-4.3-15.1-9.7-21.3-16.2c-6.7-7-11.7-15-13.8-24.6c-1.6-7.3-1.3-14.6,0.7-21.8
	c0.1-0.4,0.3-0.8,0.5-1.4c0.2,0.4,0.3,0.5,0.3,0.6c-0.4,7.6,2.9,13.8,7.9,19.2c4.1,4.5,8.9,8,14.1,11.1c10.4,6.3,21.7,10.6,33.3,14
	c0.6,0.2,1.2,0.3,2.1,0.4c0.3-1,0.6-2,0.8-3c4.5-21.2,11.2-41.7,20-61.5c10.1-22.5,22.8-43.5,37.7-63.1c2.4-3.2,4.9-6.3,7.4-9.4
	c0.3-0.4,0.6-0.9,1.3-1.8c-1.4,0.4-2.3,0.7-3.2,0.9c-34.5,11.3-68.1,24.8-100.9,40.3c-28.8,13.7-56.7,29-83.2,46.7
	c-13.1,8.8-25.8,18.2-37.8,28.3c-0.5,0.4-0.9,0.8-1.2,1.6c0.5-0.2,1.1-0.3,1.6-0.5c7.5-3.3,15.3-5.7,23.4-6.8
	c14.9-2,29.1-0.1,42,7.9c10.1,6.3,17.2,15.1,21.6,26.2c3.7,9.6,5.6,19.5,5.3,29.8c-0.2,6.5-1.6,12.8-3.4,19.1
	c-7.5,25.9-19.4,49.6-36.9,70.2c-23.8,28.1-53.3,47.1-89.3,55.5c-8.7,2-17.6,3.1-26.6,3.3c-14.1,0.4-27.7-1.5-40.9-6.6
	c-20.5-7.8-34.8-22-43.6-41.8c-5.2-11.7-8-24.1-8.9-36.9c-2-26.2,2.9-51.3,13.1-75.4c9-21.2,21.1-40.6,34.9-58.9
	c10.5-14,21.9-27.3,34-40c12.5-13.1,25.5-25.6,39-37.6c0.4-0.3,0.9-0.4,1.3-0.7C290.4,221,290.2,220.8,290,220.5z"/>
<path class="st0" d="M278.6,145.2c-9.3-0.2-17.1-1.4-24.2-5.4c-11-6.1-15.7-17-14.3-28.9c1.2-9.8,5.5-18.3,11.6-25.9
	c14.9-18.5,34.3-29.6,57.7-33.7c8.7-1.5,17.5-1.4,26.1,1.3c7,2.1,13,5.8,17.2,11.9c2.9,4.3,4.4,9,4.7,14.1
	c0.5,9.4-2.6,17.8-7.4,25.6c-7.1,11.5-16.8,20.3-28.2,27.3c-10.8,6.6-22.5,11.1-35.1,12.9C283.7,144.8,280.5,145,278.6,145.2z"/>
<path class="st0" d="M596,92.3c-7.6,0.3-15-0.9-21.9-4.1c-8.1-3.7-13.9-9.6-16.3-18.4c-1.8-6.5-1-13,1.1-19.3
	c2.9-8.5,7.8-15.7,14.1-22.1C587.9,13.1,606,4,627.1,0.8c10.4-1.6,20.8-1,30.6,3.2c5.3,2.3,9.9,5.6,13.2,10.4c5,7.2,5.8,15.1,4,23.4
	c-1.4,6.8-4.6,12.9-8.7,18.6c-6.7,9.3-15.2,16.6-24.9,22.5c-11.9,7.2-24.8,11.8-38.7,13.4c-0.4,0-0.8,0.1-1.2,0.1
	C599.7,92.3,597.9,92.3,596,92.3z"/>
</svg>
