<?xml version="1.0" encoding="utf-8"?>
<!-- Generator: Adobe Illustrator 19.0.0, SVG Export Plug-In . SVG Version: 6.00 Build 0)  -->
<svg version="1.1" id="Capa_1" xmlns="http://www.w3.org/2000/svg" xmlns:xlink="http://www.w3.org/1999/xlink" x="0px" y="0px"
	 viewBox="190 183.4 226.5 475.5" style="enable-background:new 190 183.4 226.5 475.5;" xml:space="preserve">
<style type="text/css">
	.st0{fill:#010002;}
</style>
<path class="st0" d="M358.3,308c-0.1,0.1-0.2,0.1-0.2,0.2c-4.2,4-8.9,7.5-13.9,10.5c-11.6,6.9-25,11-39.5,11
	c-15.9,0-30.8-4.8-43-13.1c-3.7-2.5-7.1-5.3-10.3-8.4c-0.1-0.1-0.2-0.2-0.3-0.3c-0.3,0-0.5-0.1-0.8-0.1c-15.7,0-44.8,23.9-44.8,47.8
	v143.2c0,12.9,12.8,23.4,28.5,23.4c0.8,0,1.6-0.1,2.3-0.2c0,1.4,0.2,2.7,0.4,4c-0.2,1.2-0.4,2.5-0.4,3.8v98.6
	c0,13.5,12.6,24.4,28.2,24.4h4.2c15.6,0,28.2-10.9,28.2-24.4v-82.3h15.8v84.3c0,13.5,12.4,24.4,27.8,24.4h4.1
	c15.4,0,27.8-10.9,27.8-24.4v-98.6c0-1.1-0.2-2.1-0.4-3.1c0.6-2.1,1.1-4.3,1.1-6.5c15.5-0.3,27.9-10.6,27.9-23.4V355.6
	C401,332.7,374.3,309.8,358.3,308z"/>
<path class="st0" d="M261.5,306.3c11.8,9.5,26.8,15.2,43.2,15.2c16.3,0,31.3-5.7,43.2-15.2c15.8-12.7,25.9-32.1,25.9-53.9
	c0-38.1-31-69.1-69.1-69.1s-69.1,31-69.1,69.1C235.6,274.2,245.7,293.6,261.5,306.3z"/>
</svg>
